{
.appVersion = "3150";
.formatVersion = 3;
axes = (
{
name = Weight;
tag = wght;
}
);
classes = (
{
automatic = 1;

glyphs = (
{
glyphname = A;
layers = (
{
anchors = (
{
name = bottom;
pos = (300,0);
},
{
name = ogonek;
pos = (500,0);
},
{
name = top;
pos = (300,730);
}
);
layerId = "CCC0BD40-BA8C-414E-B576-CF0B94E6C996";
shapes = (
{
closed = 1;
nodes = (
(142,0,l),
(190,194,l),
(411,194,l),
(459,0,l),
(550,0,l),
(361,730,l),
(240,730,l),
(50,0,l)
);
},
{
closed = 1;
nodes = (
(264,496,ls),
(285,580,o),
(297,640,o),
(300,658,c),
(303,640,o),
(315,580,o),
(336,495,cs),
(392,270,l),
(208,270,l)
);
}
);
width = 600;
},
{
anchors = (
{
name = bottom;
pos = (300,0);
},
{
name = ogonek;
pos = (495,0);
},
{
name = top;
pos = (300,730);
}
);
layerId = "EDF5EB54-295C-4C90-9A2F-67CD82979CFF";
shapes = (
{
closed = 1;
nodes = (
(118,0,l),
(174,210,l),
(424,210,l),
(480,0,l),
(532,0,l),
(331,730,l),
(269,730,l),
(68,0,l)
);
},
{
closed = 1;
nodes = (
(266,550,ls),
(285,622,o),
(297,673,o),
(300,688,c),
(303,673,o),
(314,622,o),
(333,550,cs),
(412,255,l),
(186,255,l)
);
}
);
width = 600;
},
{
anchors = (
{
name = bottom;
pos = (300,0);
},
{
name = ogonek;
pos = (465,0);
},
{
name = top;
pos = (300,730);
}
);
layerId = "9ADF6715-3D0F-493D-8567-18A6FBCFC567";
shapes = (
{
closed = 1;
nodes = (
(178,0,l),
(213,165,l),
(387,165,l),
(422,0,l),
(575,0,l),
(394,730,l),
(204,730,l),
(25,0,l)
);
},
{
closed = 1;
nodes = (
(275,462,ls),
(285,512,o),
(295,567,o),
(300,595,c),
(305,567,o),
(316,512,o),
(326,461,cs),
(361,285,l),
(238,285,l)
);
}
);
width = 600;
}
);
unicode = 65;
},
{
glyphname = Aogonek;
layers = (
{
layerId = "EDF5EB54-295C-4C90-9A2F-67CD82979CFF";
shapes = (
{
closed = 1;
nodes = (
(572,-195,l),
(572,-153,l),
(508,-153,ls),
(476,-153,o),
(457,-134,o),
(457,-103,cs),
(457,-75,o),
(480,-36,o),
(518,0,cs),
(529,10,l),
(492,10,l),
(441,-27,o),
(410,-74,o),
(410,-115,cs),
(410,-165,o),
(444,-195,o),
(499,-195,c)
);
},
{
ref = A;
}
);
width = 600;
},
{
layerId = "CCC0BD40-BA8C-414E-B576-CF0B94E6C996";
shapes = (
{
closed = 1;
nodes = (
(585,-203,l),
(585,-143,l),
(525,-143,ls),
(491,-143,o),
(470,-122,o),
(470,-93,cs),
(470,-65,o),
(489,-36,o),
(534,1,c),
(545,10,l),
(470,10,l),
(407,-34,o),
(385,-72,o),
(385,-110,cs),
(385,-164,o),
(433,-203,o),
(507,-203,cs)
);
},
{
ref = A;
}
);
width = 600;
},
{
layerId = "9ADF6715-3D0F-493D-8567-18A6FBCFC567";
shapes = (
{
closed = 1;
nodes = (
(572,-225,l),
(572,-120,l),
(503,-120,ls),
(474,-120,o),
(457,-103,o),
(457,-83,cs),
(457,-66,o),
(472,-42,o),
(498,-18,cs),
(530,11,l),
(444,11,l),
(376,-19,o),
(333,-68,o),
(333,-115,cs),
(333,-180,o),
(383,-225,o),
(464,-225,cs)
);
},
{
ref = A;
}
);
width = 600;
}
);
unicode = 260;
},
{
glyphname = AE;
layers = (
{
anchors = (
{
name = bottom;
pos = (300,0);
},
{
name = top;
pos = (300,730);
}
);
layerId = "9ADF6715-3D0F-493D-8567-18A6FBCFC567";
shapes = (
{
closed = 1;
nodes = (
(143,0,l),
(169,165,l),
(291,165,l),
(291,0,l),
(580,0,l),
(580,126,l),
(416,126,l),
(416,305,l),
(555,305,l),
(555,436,l),
(416,436,l),
(416,605,l),
(580,605,l),
(580,730,l),
(137,730,l),
(0,0,l)
);
},
{
closed = 1;
nodes = (
(242,605,l),
(291,605,l),
(291,270,l),
(186,270,l)
);
}
);
width = 600;
},
{
anchors = (
{
name = bottom;
pos = (300,0);
},
{
name = top;
pos = (300,730);
}
);
layerId = "CCC0BD40-BA8C-414E-B576-CF0B94E6C996";
shapes = (
{
closed = 1;
nodes = (
(121,0,l),
(161,203,l),
(302,203,l),
(302,0,l),
(570,0,l),
(570,82,l),
(388,82,l),
(388,338,l),
(545,338,l),
(545,420,l),
(388,420,l),
(388,648,l),
(570,648,l),
(570,730,l),
(175,730,l),
(30,0,l)
);
},
{
closed = 1;
nodes = (
(246,648,l),
(302,648,l),
(302,278,l),
(175,278,l)
);
}
);
width = 600;
},
{
anchors = (
{
name = bottom;
pos = (300,0);
},
{
name = top;
pos = (300,730);
}
);
layerId = "EDF5EB54-295C-4C90-9A2F-67CD82979CFF";
shapes = (
{
closed = 1;
nodes = (
(84,0,l),
(140,215,l),
(310,215,l),
(310,0,l),
(569,0,l),
(569,45,l),
(360,45,l),
(360,357,l),
(533,357,l),
(533,402,l),
(360,402,l),
(360,685,l),
(569,685,l),
(569,730,l),
(222,730,l),
(34,0,l)
);
},
{
closed = 1;
nodes = (
(259,685,l),
(310,685,l),
(310,260,l),
(153,260,l)
);
}
);
width = 600;
}
);
unicode = 198;
},
{
glyphname = B;
layers = (
{
anchors = (
{
name = bottom;
pos = (300,0);
},
{
name = top;
pos = (300,730);
}
);
layerId = "9ADF6715-3D0F-493D-8567-18A6FBCFC567";
shapes = (
{
closed = 1;
nodes = (
(310,0,ls),
(460,0,o),
(561,84,o),
(561,211,cs),
(561,304,o),
(504,378,o),
(422,387,c),
(422,389,l),
(494,399,o),
(544,459,o),
(544,542,cs),
(544,655,o),
(447,730,o),
(301,730,cs),
(66,730,l),
(66,0,l)
);
},
{
closed = 1;
nodes = (
(211,318,l),
(305,318,ls),
(370,318,o),
(410,280,o),
(410,219,cs),
(410,158,o),
(370,121,o),
(305,121,cs),
(211,121,l)
);
},
{
closed = 1;
nodes = (
(211,609,l),
(299,609,ls),
(357,609,o),
(393,577,o),
(393,523,cs),
(393,469,o),
(357,436,o),
(299,436,cs),
(211,436,l)
);
}
);
width = 600;
},
{
anchors = (
{
name = bottom;
pos = (300,0);
},
{
name = top;
pos = (300,730);
}
);
layerId = "CCC0BD40-BA8C-414E-B576-CF0B94E6C996";
shapes = (
{
closed = 1;
nodes = (
(315,0,ls),
(448,0,o),
(530,78,o),
(530,203,cs),
(530,295,o),
(471,370,o),
(385,381,c),
(385,384,l),
(461,399,o),
(513,466,o),
(513,541,cs),
(513,659,o),
(433,730,o),
(300,730,cs),
(93,730,l),
(93,0,l)
);
},
{
closed = 1;
nodes = (
(181,341,l),
(305,341,ls),
(389,341,o),
(441,286,o),
(441,206,cs),
(441,129,o),
(389,81,o),
(305,81,cs),
(181,81,l)
);
},
{
closed = 1;
nodes = (
(181,649,l),
(300,649,ls),
(377,649,o),
(424,605,o),
(424,534,cs),
(424,463,o),
(376,419,o),
(299,419,cs),
(181,419,l)
);
}
);
width = 600;
},
{
anchors = (
{
name = bottom;
pos = (300,0);
},
{
name = top;
pos = (300,730);
}
);
layerId = "EDF5EB54-295C-4C90-9A2F-67CD82979CFF";
shapes = (
{
closed = 1;
nodes = (
(301,0,ls),
(433,0,o),
(515,78,o),
(515,200,cs),
(515,289,o),
(455,368,o),
(375,381,c),
(375,384,l),
(445,397,o),
(498,467,o),
(498,542,cs),
(498,656,o),
(419,730,o),
(298,730,cs),
(110,730,l),
(110,0,l)
);
},
{
closed = 1;
nodes = (
(160,353,l),
(301,353,ls),
(403,353,o),
(466,294,o),
(466,199,cs),
(466,104,o),
(403,46,o),
(301,46,cs),
(160,46,l)
);
},
{
closed = 1;
nodes = (
(160,684,l),
(298,684,ls),
(391,684,o),
(448,630,o),
(448,541,cs),
(448,452,o),
(392,398,o),
(298,398,cs),
(160,398,l)
);
}
);
width = 600;
}
);
unicode = 66;
},
{
glyphname = C;
layers = (
{
anchors = (
{
name = bottom;
pos = (305,0);
},
{
name = top;
pos = (305,730);
}
);
layerId = "9ADF6715-3D0F-493D-8567-18A6FBCFC567";
shapes = (
{
closed = 1;
nodes = (
(455,-10,o),
(552,77,o),
(552,210,c),
(402,210,l),
(402,152,o),
(368,120,o),
(308,120,cs),
(248,120,o),
(214,152,o),
(214,210,cs),
(214,520,ls),
(214,578,o),
(248,610,o),
(308,610,cs),
(368,610,o),
(402,578,o),
(402,520,c),
(552,520,l),
(552,653,o),
(455,740,o),
(308,740,cs),
(161,740,o),
(64,653,o),
(64,520,cs),
(64,210,ls),
(64,78,o),
(161,-10,o),
(308,-10,cs)
);
}
);
width = 600;
},
{
anchors = (
{
name = bottom;
pos = (305,0);
},
{
name = top;
pos = (305,730);
}
);
layerId = "EDF5EB54-295C-4C90-9A2F-67CD82979CFF";
shapes = (
{
closed = 1;
nodes = (
(434,-10,o),
(514,72,o),
(514,200,c),
(464,200,l),
(464,98,o),
(406,35,o),
(310,35,cs),
(216,35,o),
(159,94,o),
(159,190,cs),
(159,540,ls),
(159,636,o),
(217,695,o),
(310,695,cs),
(405,695,o),
(464,632,o),
(464,530,c),
(514,530,l),
(514,658,o),
(434,740,o),
(310,740,cs),
(188,740,o),
(109,662,o),
(109,540,cs),
(109,190,ls),
(109,69,o),
(188,-10,o),
(310,-10,cs)
);
}
);
width = 600;
},
{
anchors = (
{
name = bottom;
pos = (305,0);
},
{
name = top;
pos = (305,730);
}
);
layerId = "CCC0BD40-BA8C-414E-B576-CF0B94E6C996";
shapes = (
{
closed = 1;
nodes = (
(439,-10,o),
(522,71,o),
(522,200,c),
(432,200,l),
(432,117,o),
(386,71,o),
(308,71,cs),
(229,71,o),
(182,117,o),
(182,200,cs),
(182,530,ls),
(182,613,o),
(229,659,o),
(308,659,cs),
(386,659,o),
(432,613,o),
(432,530,c),
(522,530,l),
(522,659,o),
(439,740,o),
(308,740,cs),
(175,740,o),
(92,661,o),
(92,530,cs),
(92,200,ls),
(92,69,o),
(175,-10,o),
(308,-10,cs)
);
}
);
width = 600;
}
);
unicode = 67;
},
{
glyphname = Ccedilla;
layers = (
{
anchors = (
{
name = _bottom;
pos = (305,0);
}
);
layerId = "EDF5EB54-295C-4C90-9A2F-67CD82979CFF";
shapes = (
{
closed = 1;
nodes = (
(320,-195,ls),
(380,-195,o),
(420,-161,o),
(420,-118,cs),
(420,-61,o),
(357,-37,o),
(310,-34,c),
(333,26,l),
(291,26,l),
(256,-64,l),
(327,-64,o),
(374,-86,o),
(374,-118,cs),
(374,-140,o),
(352,-160,o),
(320,-160,cs),
(240,-160,l),
(240,-195,l)
);
},
{
ref = C;
}
);
width = 600;
},
{
anchors = (
{
name = _bottom;
pos = (305,0);
}
);
layerId = "CCC0BD40-BA8C-414E-B576-CF0B94E6C996";
shapes = (
{
closed = 1;
nodes = (
(295,-203,ls),
(367,-203,o),
(415,-166,o),
(415,-120,cs),
(415,-68,o),
(347,-41,o),
(295,-35,c),
(316,26,l),
(259,26,l),
(224,-69,l),
(291,-69,o),
(329,-89,o),
(329,-112,cs),
(329,-130,o),
(309,-148,o),
(280,-148,cs),
(210,-148,l),
(210,-203,l)
);
},
{
ref = C;
}
);
width = 600;
},
{
anchors = (
{
name = _bottom;
pos = (305,0);
}
);
layerId = "9ADF6715-3D0F-493D-8567-18A6FBCFC567";
shapes = (
{
closed = 1;
nodes = (
(310,-225,ls),
(394,-225,o),
(450,-182,o),
(450,-133,cs),
(450,-72,o),
(369,-43,o),
(308,-39,c),
(327,16,l),
(254,16,l),
(219,-69,l),
(292,-69,o),
(335,-88,o),
(335,-119,cs),
(335,-135,o),
(313,-155,o),
(280,-155,cs),
(200,-155,l),
(200,-225,l)
);
},
{
ref = C;
}
);
width = 600;
}
);
unicode = 199;
},
{
glyphname = D;
layers = (
{
anchors = (
{
name = bottom;
pos = (300,0);
},
{
name = center;
pos = (300,365);
},
{
name = top;
pos = (300,730);
}
);
layerId = "9ADF6715-3D0F-493D-8567-18A6FBCFC567";
shapes = (
{
closed = 1;
nodes = (
(300,0,ls),
(451,0,o),
(552,94,o),
(552,235,cs),
(552,496,ls),
(552,637,o),
(451,730,o),
(300,730,cs),
(63,730,l),
(63,0,l)
);
},
{
closed = 1;
nodes = (
(213,595,l),
(300,595,ls),
(360,595,o),
(402,555,o),
(402,496,cs),
(402,235,ls),
(402,176,o),
(360,135,o),
(300,135,cs),
(213,135,l)
);
}
);
width = 600;
},
{
anchors = (
{
name = bottom;
pos = (300,0);
},
{
name = center;
pos = (300,365);
},
{
name = top;
pos = (300,730);
}
);
layerId = "CCC0BD40-BA8C-414E-B576-CF0B94E6C996";
shapes = (
{
closed = 1;
nodes = (
(281,0,ls),
(422,0,o),
(512,86,o),
(512,220,cs),
(512,511,ls),
(512,644,o),
(422,730,o),
(281,730,cs),
(92,730,l),
(92,0,l)
);
},
{
closed = 1;
nodes = (
(182,650,l),
(281,650,ls),
(369,650,o),
(422,598,o),
(422,511,cs),
(422,220,ls),
(422,132,o),
(369,80,o),
(281,80,cs),
(182,80,l)
);
}
);
width = 600;
},
{
anchors = (
{
name = bottom;
pos = (300,0);
},
{
name = center;
pos = (300,365);
},
{
name = top;
pos = (300,730);
}
);
layerId = "EDF5EB54-295C-4C90-9A2F-67CD82979CFF";
shapes = (
{
closed = 1;
nodes = (
(270,0,ls),
(405,0,o),
(495,88,o),
(495,220,cs),
(495,510,ls),
(495,642,o),
(405,730,o),
(270,730,cs),
(110,730,l),
(110,0,l)
);
},
{
closed = 1;
nodes = (
(160,684,l),
(270,684,ls),
(374,684,o),
(445,614,o),
(445,510,cs),
(445,220,ls),
(445,115,o),
(375,46,o),
(270,46,cs),
(160,46,l)
);
}
);
width = 600;
}
);
unicode = 68;
},
{
glyphname = Eth;
layers = (
{
layerId = "9ADF6715-3D0F-493D-8567-18A6FBCFC567";
shapes = (
{
closed = 1;
nodes = (
(290,325,l),
(290,420,l),
(10,420,l),
(10,325,l)
);
},
{
ref = D;
}
);
width = 600;
},
{
layerId = "CCC0BD40-BA8C-414E-B576-CF0B94E6C996";
shapes = (
{
closed = 1;
nodes = (
(290,335,l),
(290,410,l),
(10,410,l),
(10,335,l)
);
},
{
ref = D;
}
);
width = 600;
},
{
layerId = "EDF5EB54-295C-4C90-9A2F-67CD82979CFF";
shapes = (
{
closed = 1;
nodes = (
(290,351,l),
(290,395,l),
(10,395,l),
(10,351,l)
);
},
{
ref = D;
}
);
width = 600;
}
);
unicode = 208;
},
{
glyphname = Dcroat;
layers = (
{
layerId = "EDF5EB54-295C-4C90-9A2F-67CD82979CFF";
shapes = (
{
closed = 1;
nodes = (
(290,351,l),
(290,395,l),
(10,395,l),
(10,351,l)
);
},
{
ref = D;
}
);
width = 600;
},
{
layerId = "CCC0BD40-BA8C-414E-B576-CF0B94E6C996";
shapes = (
{
closed = 1;
nodes = (
(290,335,l),
(290,410,l),
(10,410,l),
(10,335,l)
);
},
{
ref = D;
}
);
width = 600;
},
{
layerId = "9ADF6715-3D0F-493D-8567-18A6FBCFC567";
shapes = (
{
closed = 1;
nodes = (
(290,325,l),
(290,420,l),
(10,420,l),
(10,325,l)
);
},
{
ref = D;
}
);
width = 600;
}
);
unicode = 272;
},
{
glyphname = E;
layers = (
{
anchors = (
{
name = bottom;
pos = (305,0);
},
{
name = ogonek;
pos = (430,0);
},
{
name = top;
pos = (305,730);
},
{
name = topleft;
pos = (20,730);
}
);
layerId = "9ADF6715-3D0F-493D-8567-18A6FBCFC567";
shapes = (
{
closed = 1;
nodes = (
(530,0,l),
(530,130,l),
(227,130,l),
(227,312,l),
(495,312,l),
(495,436,l),
(227,436,l),
(227,600,l),
(530,600,l),
(530,730,l),
(80,730,l),
(80,0,l)
);
}
);
width = 600;
},
{
anchors = (
{
name = bottom;
pos = (310,0);
},
{
name = ogonek;
pos = (440,0);
},
{
name = top;
pos = (310,730);
},
{
name = topleft;
pos = (20,730);
}
);
layerId = "CCC0BD40-BA8C-414E-B576-CF0B94E6C996";
shapes = (
{
closed = 1;
nodes = (
(520,0,l),
(520,82,l),
(189,82,l),
(189,342,l),
(485,342,l),
(485,422,l),
(189,422,l),
(189,648,l),
(520,648,l),
(520,730,l),
(100,730,l),
(100,0,l)
);
}
);
width = 600;
},
{
anchors = (
{
name = bottom;
pos = (315,0);
},
{
name = ogonek;
pos = (440,0);
},
{
name = top;
pos = (315,730);
},
{
name = topleft;
pos = (20,730);
}
);
layerId = "EDF5EB54-295C-4C90-9A2F-67CD82979CFF";
shapes = (
{
closed = 1;
nodes = (
(510,0,l),
(510,46,l),
(170,46,l),
(170,358,l),
(475,358,l),
(475,403,l),
(170,403,l),
(170,684,l),
(510,684,l),
(510,730,l),
(120,730,l),
(120,0,l)
);
}
);
width = 600;
}
);
unicode = 69;
},
{
glyphname = Eogonek;
layers = (
{
layerId = "9ADF6715-3D0F-493D-8567-18A6FBCFC567";
shapes = (
{
closed = 1;
nodes = (
(534,-225,l),
(534,-120,l),
(465,-120,ls),
(436,-120,o),
(419,-103,o),
(419,-83,cs),
(419,-66,o),
(434,-42,o),
(460,-18,cs),
(492,11,l),
(406,11,l),
(338,-19,o),
(295,-68,o),
(295,-115,cs),
(295,-180,o),
(345,-225,o),
(426,-225,cs)
);
},
{
alignment = -1;
ref = E;
}
);
width = 600;
},
{
layerId = "CCC0BD40-BA8C-414E-B576-CF0B94E6C996";
shapes = (
{
closed = 1;
nodes = (
(525,-203,l),
(525,-143,l),
(465,-143,ls),
(431,-143,o),
(410,-122,o),
(410,-93,cs),
(410,-65,o),
(429,-36,o),
(474,1,c),
(485,10,l),
(410,10,l),
(347,-34,o),
(325,-72,o),
(325,-110,cs),
(325,-164,o),
(373,-203,o),
(447,-203,cs)
);
},
{
alignment = -1;
ref = E;
}
);
width = 600;
},
{
layerId = "EDF5EB54-295C-4C90-9A2F-67CD82979CFF";
shapes = (
{
closed = 1;
nodes = (
(515,-195,l),
(515,-153,l),
(451,-153,ls),
(419,-153,o),
(400,-134,o),
(400,-103,cs),
(400,-75,o),
(423,-36,o),
(461,0,cs),
(472,10,l),
(435,10,l),
(384,-27,o),
(353,-74,o),
(353,-115,cs),
(353,-165,o),
(387,-195,o),
(442,-195,c)
);
},
{
alignment = -1;
ref = E;
}
);
width = 600;
}
);
unicode = 280;
},
{
glyphname = Schwa;
layers = (
{
layerId = "9ADF6715-3D0F-493D-8567-18A6FBCFC567";
shapes = (
{
closed = 1;
nodes = (
(448,-10,o),
(540,78,o),
(540,210,cs),
(540,520,ls),
(540,653,o),
(448,740,o),
(301,740,cs),
(155,740,o),
(62,654,o),
(62,520,c),
(212,520,l),
(212,578,o),
(241,610,o),
(301,610,cs),
(361,610,o),
(390,578,o),
(390,520,c),
(390,416,l),
(60,416,l),
(60,210,ls),
(60,78,o),
(155,-10,o),
(301,-10,cs)
);
},
{
closed = 1;
nodes = (
(239,105,o),
(210,138,o),
(210,210,cs),
(210,316,l),
(200,306,l),
(390,306,l),
(390,210,ls),
(390,142,o),
(367,105,o),
(301,105,cs)
);
}
);
width = 600;
},
{
layerId = "CCC0BD40-BA8C-414E-B576-CF0B94E6C996";
shapes = (
{
closed = 1;
nodes = (
(430,-10,o),
(510,73,o),
(510,200,cs),
(510,530,ls),
(510,661,o),
(433,740,o),
(300,740,cs),
(169,740,o),
(90,659,o),
(90,530,c),
(180,530,l),
(180,613,o),
(222,660,o),
(300,660,cs),
(379,660,o),
(420,613,o),
(420,531,cs),
(420,400,l),
(90,400,l),
(90,200,ls),
(90,73,o),
(170,-10,o),
(300,-10,cs)
);
},
{
closed = 1;
nodes = (
(218,65,o),
(180,113,o),
(180,200,cs),
(180,338,l),
(173,330,l),
(420,330,l),
(420,200,ls),
(420,113,o),
(382,65,o),
(300,65,cs)
);
}
);
width = 600;
},
{
layerId = "EDF5EB54-295C-4C90-9A2F-67CD82979CFF";
shapes = (
{
closed = 1;
nodes = (
(421,-10,o),
(495,69,o),
(495,190,cs),
(495,540,ls),
(495,662,o),
(421,740,o),
(299,740,cs),
(175,740,o),
(105,658,o),
(105,530,c),
(155,530,l),
(155,632,o),
(204,695,o),
(299,695,cs),
(392,695,o),
(445,636,o),
(445,540,cs),
(445,378,l),
(105,378,l),
(105,190,ls),
(105,69,o),
(178,-10,o),
(299,-10,cs)
);
},
{
closed = 1;
nodes = (
(207,34,o),
(155,94,o),
(155,190,cs),
(155,344,l),
(144,335,l),
(445,335,l),
(445,190,ls),
(445,93,o),
(393,34,o),
(299,34,cs)
);
}
);
width = 600;
}
);
unicode = 399;
},
{
glyphname = F;
layers = (
{
anchors = (
{
name = bottom;
pos = (300,0);
},
{
name = top;
pos = (300,730);
}
);
layerId = "9ADF6715-3D0F-493D-8567-18A6FBCFC567";
shapes = (
{
closed = 1;
nodes = (
(220,0,l),
(220,288,l),
(514,288,l),
(514,428,l),
(218,428,l),
(218,590,l),
(540,590,l),
(540,730,l),
(70,730,l),
(70,0,l)
);
}
);
width = 600;
},
{
anchors = (
{
name = bottom;
pos = (300,0);
},
{
name = top;
pos = (300,730);
}
);
layerId = "CCC0BD40-BA8C-414E-B576-CF0B94E6C996";
shapes = (
{
closed = 1;
nodes = (
(185,0,l),
(185,324,l),
(499,324,l),
(499,406,l),
(183,406,l),
(183,648,l),
(525,648,l),
(525,730,l),
(95,730,l),
(95,0,l)
);
}
);
width = 600;
},
{
anchors = (
{
name = bottom;
pos = (300,0);
},
{
name = top;
pos = (300,730);
}
);
layerId = "EDF5EB54-295C-4C90-9A2F-67CD82979CFF";
shapes = (
{
closed = 1;
nodes = (
(165,0,l),
(165,346,l),
(490,346,l),
(490,392,l),
(165,392,l),
(165,684,l),
(525,684,l),
(525,730,l),
(115,730,l),
(115,0,l)
);
}
);
width = 600;
}
);
unicode = 70;
},
{
glyphname = G;
layers = (
{
anchors = (
{
name = bottom;
pos = (304,0);
},
{
name = top;
pos = (300,730);
}
);
layerId = "9ADF6715-3D0F-493D-8567-18A6FBCFC567";
shapes = (
{
closed = 1;
nodes = (
(451,-10,o),
(548,77,o),
(548,210,cs),
(548,405,l),
(290,405,l),
(290,278,l),
(398,278,l),
(398,210,ls),
(398,152,o),
(364,120,o),
(304,120,cs),
(244,120,o),
(210,152,o),
(210,210,cs),
(210,520,ls),
(210,578,o),
(244,610,o),
(304,610,cs),
(364,610,o),
(398,578,o),
(398,520,c),
(548,520,l),
(548,653,o),
(451,740,o),
(304,740,cs),
(157,740,o),
(60,653,o),
(60,520,cs),
(60,210,ls),
(60,78,o),
(157,-10,o),
(304,-10,cs)
);
}
);
width = 600;
},
{
anchors = (
{
name = bottom;
pos = (304,0);
},
{
name = top;
pos = (300,730);
}
);
layerId = "CCC0BD40-BA8C-414E-B576-CF0B94E6C996";
shapes = (
{
closed = 1;
nodes = (
(435,-10,o),
(518,71,o),
(518,200,cs),
(518,382,l),
(280,382,l),
(280,300,l),
(428,300,l),
(428,200,ls),
(428,117,o),
(382,70,o),
(304,70,cs),
(225,70,o),
(178,117,o),
(178,200,cs),
(178,531,ls),
(178,613,o),
(225,659,o),
(304,659,cs),
(382,659,o),
(428,613,o),
(428,530,c),
(518,530,l),
(518,659,o),
(435,740,o),
(304,740,cs),
(171,740,o),
(88,661,o),
(88,530,cs),
(88,200,ls),
(88,69,o),
(171.007,-10,o),
(304,-10,cs)
);
}
);
width = 600;
},
{
anchors = (
{
name = bottom;
pos = (306,0);
},
{
name = top;
pos = (306,730);
}
);
layerId = "EDF5EB54-295C-4C90-9A2F-67CD82979CFF";
shapes = (
{
closed = 1;
nodes = (
(430,-10,o),
(510,72,o),
(510,200,cs),
(510,364,l),
(287,364,l),
(287,318,l),
(460,318,l),
(460,200,ls),
(460,98,o),
(402,35,o),
(306,35,cs),
(212,35,o),
(155,94,o),
(155,190,cs),
(155,540,ls),
(155,636,o),
(213,695,o),
(306,695,cs),
(401,695,o),
(460,632,o),
(460,530,c),
(510,530,l),
(510,658,o),
(430,740,o),
(306,740,cs),
(184,740,o),
(105,662,o),
(105,540,cs),
(105,190,ls),
(105,69,o),
(184,-10,o),
(306,-10,cs)
);
}
);
width = 600;
}
);
unicode = 71;
},
{
glyphname = H;
layers = (
{
anchors = (
{
name = bottom;
pos = (300,0);
},
{
name = center;
pos = (300,365);
},
{
name = top;
pos = (300,730);
},
{
name = topleft;
pos = (20,730);
}
);
layerId = "9ADF6715-3D0F-493D-8567-18A6FBCFC567";
shapes = (
{
closed = 1;
nodes = (
(216,0,l),
(216,311,l),
(384,311,l),
(384,0,l),
(534,0,l),
(534,730,l),
(384,730,l),
(384,446,l),
(216,446,l),
(216,730,l),
(66,730,l),
(66,0,l)
);
}
);
width = 600;
},
{
anchors = (
{
name = bottom;
pos = (300,0);
},
{
name = center;
pos = (300,365);
},
{
name = top;
pos = (300,730);
},
{
name = topleft;
pos = (20,730);
}
);
layerId = "CCC0BD40-BA8C-414E-B576-CF0B94E6C996";
shapes = (
{
closed = 1;
nodes = (
(183,0,l),
(183,336,l),
(417,336,l),
(417,0,l),
(507,0,l),
(507,730,l),
(417,730,l),
(417,418,l),
(183,418,l),
(183,730,l),
(93,730,l),
(93,0,l)
);
}
);
width = 600;
},
{
anchors = (
{
name = bottom;
pos = (300,0);
},
{
name = center;
pos = (300,365);
},
{
name = top;
pos = (300,730);
},
{
name = topleft;
pos = (20,730);
}
);
layerId = "EDF5EB54-295C-4C90-9A2F-67CD82979CFF";
shapes = (
{
closed = 1;
nodes = (
(160,0,l),
(160,357,l),
(440,357,l),
(440,0,l),
(490,0,l),
(490,730,l),
(440,730,l),
(440,402,l),
(160,402,l),
(160,730,l),
(110,730,l),
(110,0,l)
);
}
);
width = 600;
}
);
unicode = 72;
},
{
glyphname = Hbar;
layers = (
{
layerId = "9ADF6715-3D0F-493D-8567-18A6FBCFC567";
shapes = (
{
closed = 1;
nodes = (
(590,525,l),
(590,620,l),
(10,620,l),
(10,525,l)
);
},
{
alignment = -1;
ref = H;
}
);
width = 600;
},
{
layerId = "CCC0BD40-BA8C-414E-B576-CF0B94E6C996";
shapes = (
{
closed = 1;
nodes = (
(590,525,l),
(590,600,l),
(10,600,l),
(10,525,l)
);
},
{
alignment = -1;
ref = H;
}
);
width = 600;
},
{
layerId = "EDF5EB54-295C-4C90-9A2F-67CD82979CFF";
shapes = (
{
closed = 1;
nodes = (
(590,540,l),
(590,584,l),
(10,584,l),
(10,540,l)
);
},
{
alignment = -1;
ref = H;
}
);
width = 600;
}
);
unicode = 294;
},
{
glyphname = I;
layers = (
{
anchors = (
{
name = bottom;
pos = (300,0);
},
{
name = ogonek;
pos = (320,0);
},
{
name = top;
pos = (300,730);
},
{
name = topleft;
pos = (20,730);
}
);
layerId = "9ADF6715-3D0F-493D-8567-18A6FBCFC567";
shapes = (
{
closed = 1;
nodes = (
(520,0,l),
(520,135,l),
(375,135,l),
(375,595,l),
(520,595,l),
(520,730,l),
(80,730,l),
(80,595,l),
(225,595,l),
(225,135,l),
(80,135,l),
(80,0,l)
);
}
);
width = 600;
},
{
anchors = (
{
name = bottom;
pos = (300,0);
},
{
name = ogonek;
pos = (320,0);
},
{
name = top;
pos = (300,730);
},
{
name = topleft;
pos = (20,730);
}
);
layerId = "CCC0BD40-BA8C-414E-B576-CF0B94E6C996";
shapes = (
{
closed = 1;
nodes = (
(495,0,l),
(495,82,l),
(346,82,l),
(346,648,l),
(495,648,l),
(495,730,l),
(105,730,l),
(105,648,l),
(254,648,l),
(254,82,l),
(105,82,l),
(105,0,l)
);
}
);
width = 600;
},
{
anchors = (
{
name = bottom;
pos = (300,0);
},
{
name = ogonek;
pos = (320,0);
},
{
name = top;
pos = (300,730);
},
{
name = topleft;
pos = (20,730);
}
);
layerId = "EDF5EB54-295C-4C90-9A2F-67CD82979CFF";
shapes = (
{
closed = 1;
nodes = (
(480,0,l),
(480,46,l),
(326,46,l),
(326,684,l),
(480,684,l),
(480,730,l),
(120,730,l),
(120,684,l),
(276,684,l),
(276,46,l),
(120,46,l),
(120,0,l)
);
}
);
width = 600;
}
);
unicode = 73;
},
{
glyphname = IJ;
layers = (
{
layerId = "EDF5EB54-295C-4C90-9A2F-67CD82979CFF";
shapes = (
{
closed = 1;
nodes = (
(284,245,l),
(284,287,l),
(185,287,l),
(185,688,l),
(284,688,l),
(284,730,l),
(34,730,l),
(34,688,l),
(135,688,l),
(135,287,l),
(34,287,l),
(34,245,l)
);
},
{
closed = 1;
nodes = (
(467,-10,o),
(545,69,o),
(545,199,cs),
(545,730,l),
(495,730,l),
(495,199,ls),
(495,97,o),
(436,35,o),
(340,35,cs),
(249,35,o),
(190,90,o),
(185,180,c),
(135,180,l),
(140,62,o),
(218,-10,o),
(340,-10,cs)
);
}
);
width = 600;
},
{
layerId = "CCC0BD40-BA8C-414E-B576-CF0B94E6C996";
shapes = (
{
closed = 1;
nodes = (
(307,245,l),
(307,323,l),
(212,323,l),
(212,652,l),
(307,652,l),
(307,730,l),
(25,730,l),
(25,652,l),
(120,652,l),
(120,323,l),
(25,323,l),
(25,245,l)
);
},
{
closed = 1;
nodes = (
(473,-10,o),
(560,76,o),
(560,210,cs),
(560,730,l),
(470,730,l),
(470,210,ls),
(470,125,o),
(419,70,o),
(339,70,cs),
(266,70,o),
(216,113,o),
(212,180,c),
(122,180,l),
(126,64,o),
(211,-10,o),
(339,-10,cs)
);
}
);
width = 600;
},
{
layerId = "9ADF6715-3D0F-493D-8567-18A6FBCFC567";
shapes = (
{
closed = 1;
nodes = (
(310,245,l),
(310,350,l),
(235,350,l),
(235,625,l),
(310,625,l),
(310,730,l),
(10,730,l),
(10,625,l),
(85,625,l),
(85,350,l),
(10,350,l),
(10,245,l)
);
},
{
closed = 1;
nodes = (
(477,-10,o),
(570,77,o),
(570,219,cs),
(570,730,l),
(420,730,l),
(420,219,ls),
(420,157,o),
(384,120,o),
(325,120,cs),
(273,120,o),
(239,147,o),
(235,190,c),
(85,190,l),
(88,66,o),
(179,-10,o),
(325,-10,cs)
);
}
);
width = 600;
}
);
unicode = 306;
},
{
glyphname = IJ_acute;
layers = (
{
layerId = "EDF5EB54-295C-4C90-9A2F-67CD82979CFF";
shapes = (
{
closed = 1;
nodes = (
(284,245,l),
(284,287,l),
(185,287,l),
(185,688,l),
(284,688,l),
(284,730,l),
(34,730,l),
(34,688,l),
(135,688,l),
(135,287,l),
(34,287,l),
(34,245,l)
);
},
{
closed = 1;
nodes = (
(467,-10,o),
(545,69,o),
(545,199,cs),
(545,730,l),
(495,730,l),
(495,199,ls),
(495,97,o),
(436,35,o),
(340,35,cs),
(249,35,o),
(190,90,o),
(185,180,c),
(135,180,l),
(140,62,o),
(218,-10,o),
(340,-10,cs)
);
},
{
alignment = -1;
pos = (485,0);
ref = acutecomb.case;
},
{
alignment = -1;
pos = (826,0);
ref = acutecomb.case;
}
);
width = 600;
},
{
layerId = "CCC0BD40-BA8C-414E-B576-CF0B94E6C996";
shapes = (
{
closed = 1;
nodes = (
(307,245,l),
(307,323,l),
(212,323,l),
(212,652,l),
(307,652,l),
(307,730,l),
(25,730,l),
(25,652,l),
(120,652,l),
(120,323,l),
(25,323,l),
(25,245,l)
);
},
{
closed = 1;
nodes = (
(473,-10,o),
(560,76,o),
(560,210,cs),
(560,730,l),
(470,730,l),
(470,210,ls),
(470,125,o),
(419,70,o),
(339,70,cs),
(266,70,o),
(216,113,o),
(212,180,c),
(122,180,l),
(126,64,o),
(211,-10,o),
(339,-10,cs)
);
},
{
alignment = -1;
pos = (490,0);
ref = acutecomb.case;
},
{
alignment = -1;
pos = (831,0);
ref = acutecomb.case;
}
);
width = 600;
},
{
layerId = "9ADF6715-3D0F-493D-8567-18A6FBCFC567";
shapes = (
{
closed = 1;
nodes = (
(310,245,l),
(310,350,l),
(235,350,l),
(235,625,l),
(310,625,l),
(310,730,l),
(10,730,l),
(10,625,l),
(85,625,l),
(85,350,l),
(10,350,l),
(10,245,l)
);
},
{
closed = 1;
nodes = (
(477,-10,o),
(570,77,o),
(570,219,cs),
(570,730,l),
(420,730,l),
(420,219,ls),
(420,157,o),
(384,120,o),
(325,120,cs),
(273,120,o),
(239,147,o),
(235,190,c),
(85,190,l),
(88,66,o),
(179,-10,o),
(325,-10,cs)
);
},
{
alignment = -1;
pos = (476,0);
ref = acutecomb.case;
},
{
alignment = -1;
pos = (817,0);
ref = acutecomb.case;
}
);
width = 600;
}
);
},
{
glyphname = Iogonek;
layers = (
{
layerId = "EDF5EB54-295C-4C90-9A2F-67CD82979CFF";
shapes = (
{
closed = 1;
nodes = (
(375,-195,l),
(375,-153,l),
(311,-153,ls),
(279,-153,o),
(260,-134,o),
(260,-103,cs),
(260,-75,o),
(283,-36,o),
(321,0,cs),
(332,10,l),
(295,10,l),
(244,-27,o),
(213,-74,o),
(213,-115,cs),
(213,-165,o),
(247,-195,o),
(302,-195,c)
);
},
{
ref = I;
}
);
width = 600;
},
{
layerId = "CCC0BD40-BA8C-414E-B576-CF0B94E6C996";
shapes = (
{
closed = 1;
nodes = (
(385,-203,l),
(385,-143,l),
(325,-143,ls),
(291,-143,o),
(270,-122,o),
(270,-93,cs),
(270,-65,o),
(289,-36,o),
(334,1,c),
(345,10,l),
(270,10,l),
(207,-34,o),
(185,-72,o),
(185,-110,cs),
(185,-164,o),
(233,-203,o),
(307,-203,cs)
);
},
{
ref = I;
}
);
width = 600;
},
{
layerId = "9ADF6715-3D0F-493D-8567-18A6FBCFC567";
shapes = (
{
closed = 1;
nodes = (
(404,-225,l),
(404,-120,l),
(335,-120,ls),
(306,-120,o),
(289,-103,o),
(289,-83,cs),
(289,-66,o),
(304,-42,o),
(330,-18,cs),
(362,11,l),
(276,11,l),
(208,-19,o),
(165,-68,o),
(165,-115,cs),
(165,-180,o),
(215,-225,o),
(296,-225,cs)
);
},
{
ref = I;
}
);
width = 600;
}
);
unicode = 302;
},
{
glyphname = J;
layers = (
{
anchors = (
{
name = bottom;
pos = (300,0);
},
{
name = top;
pos = (450,730);
}
);
layerId = "9ADF6715-3D0F-493D-8567-18A6FBCFC567";
shapes = (
{
closed = 1;
nodes = (
(424,-10,o),
(520,78,o),
(520,219,cs),
(520,730,l),
(370,730,l),
(370,219,ls),
(370,158,o),
(331,120,o),
(270,120,cs),
(208,120,o),
(170,159,o),
(170,221,c),
(20,221,l),
(20,79,o),
(116,-10,o),
(270,-10,cs)
);
}
);
width = 600;
},
{
anchors = (
{
name = bottom;
pos = (300,0);
},
{
name = top;
pos = (450,730);
}
);
layerId = "CCC0BD40-BA8C-414E-B576-CF0B94E6C996";
shapes = (
{
closed = 1;
nodes = (
(409,-10,o),
(495,74,o),
(495,210,cs),
(495,730,l),
(405,730,l),
(405,210,ls),
(405,121,o),
(355,70,o),
(270,70,cs),
(185,70,o),
(135,121,o),
(135,210,c),
(45,210,l),
(45,74,o),
(130,-10,o),
(270,-10,cs)
);
}
);
width = 600;
},
{
anchors = (
{
name = bottom;
pos = (300,0);
},
{
name = top;
pos = (453,730);
}
);
layerId = "EDF5EB54-295C-4C90-9A2F-67CD82979CFF";
shapes = (
{
closed = 1;
nodes = (
(402,-10,o),
(480,69,o),
(480,199,cs),
(480,730,l),
(430,730,l),
(430,199,ls),
(430,98,o),
(371,35,o),
(275,35,cs),
(179,35,o),
(120,97,o),
(120,200,c),
(70,200,l),
(70,69.007,o),
(147,-10,o),
(275,-10,cs)
);
}
);
width = 600;
}
);
unicode = 74;
},
{
glyphname = K;
layers = (
{
anchors = (
{
name = bottom;
pos = (300,0);
},
{
name = top;
pos = (300,730);
}
);
layerId = "9ADF6715-3D0F-493D-8567-18A6FBCFC567";
shapes = (
{
closed = 1;
nodes = (
(215,0,l),
(215,313,l),
(286,313,l),
(411,0,l),
(575,0,l),
(417,385,l),
(569,730,l),
(407,730,l),
(285,444,l),
(215,444,l),
(215,730,l),
(65,730,l),
(65,0,l)
);
}
);
width = 600;
},
{
anchors = (
{
name = bottom;
pos = (300,0);
},
{
name = top;
pos = (300,730);
}
);
layerId = "CCC0BD40-BA8C-414E-B576-CF0B94E6C996";
shapes = (
{
closed = 1;
nodes = (
(182,0,l),
(182,337,l),
(287,337,l),
(457,0,l),
(560,0,l),
(369,378,l),
(550,730,l),
(452,730,l),
(290,416,l),
(182,416,l),
(182,730,l),
(92,730,l),
(92,0,l)
);
}
);
width = 600;
},
{
anchors = (
{
name = bottom;
pos = (300,0);
},
{
name = top;
pos = (300,730);
}
);
layerId = "EDF5EB54-295C-4C90-9A2F-67CD82979CFF";
shapes = (
{
closed = 1;
nodes = (
(160,0,l),
(160,356,l),
(312,356,l),
(481,0,l),
(540,0,l),
(358,381,l),
(530,730,l),
(475,730,l),
(313,401,l),
(160,401,l),
(160,730,l),
(110,730,l),
(110,0,l)
);
}
);
width = 600;
}
);
unicode = 75;
},
{
glyphname = L;
layers = (
{
anchors = (
{
name = bottom;
pos = (340,0);
},
{
name = center;
pos = (300,365);
},
{
name = top;
pos = (190,730);
}
);
layerId = "9ADF6715-3D0F-493D-8567-18A6FBCFC567";
shapes = (
{
closed = 1;
nodes = (
(560,0,l),
(560,135,l),
(265,135,l),
(265,730,l),
(115,730,l),
(115,0,l)
);
}
);
width = 600;
},
{
anchors = (
{
name = bottom;
pos = (340,0);
},
{
name = center;
pos = (300,365);
},
{
name = top;
pos = (175,730);
}
);
layerId = "CCC0BD40-BA8C-414E-B576-CF0B94E6C996";
shapes = (
{
closed = 1;
nodes = (
(550,0,l),
(550,82,l),
(220,82,l),
(220,730,l),
(130,730,l),
(130,0,l)
);
}
);
width = 600;
},
{
anchors = (
{
name = bottom;
pos = (340,0);
},
{
name = center;
pos = (300,365);
},
{
name = top;
pos = (166,730);
}
);
layerId = "EDF5EB54-295C-4C90-9A2F-67CD82979CFF";
shapes = (
{
closed = 1;
nodes = (
(545,0,l),
(545,46,l),
(190,46,l),
(190,730,l),
(140,730,l),
(140,0,l)
);
}
);
width = 600;
}
);
unicode = 76;
},
{
glyphname = Lslash;
layers = (
{
layerId = "9ADF6715-3D0F-493D-8567-18A6FBCFC567";
shapes = (
{
closed = 1;
nodes = (
(400,420,l),
(400,560,l),
(20,370,l),
(20,230,l)
);
},
{
alignment = -1;
pos = (10,0);
ref = L;
}
);
width = 600;
},
{
layerId = "CCC0BD40-BA8C-414E-B576-CF0B94E6C996";
shapes = (
{
closed = 1;
nodes = (
(390,480,l),
(390,560,l),
(20,310,l),
(20,230,l)
);
},
{
alignment = -1;
ref = L;
}
);
width = 600;
},
{
layerId = "EDF5EB54-295C-4C90-9A2F-67CD82979CFF";
shapes = (
{
closed = 1;
nodes = (
(390,495,l),
(390,550,l),
(20,295,l),
(20,240,l)
);
},
{
alignment = -1;
pos = (10,0);
ref = L;
}
);
width = 600;
}
);
unicode = 321;
},
{
glyphname = M;
layers = (
{
anchors = (
{
name = bottom;
pos = (300,0);
},
{
name = top;
pos = (300,730);
}
);
layerId = "9ADF6715-3D0F-493D-8567-18A6FBCFC567";
shapes = (
{
closed = 1;
nodes = (
(179,0,l),
(179,280,ls),
(179,433,o),
(161,574,o),
(148,661,c),
(238,310,l),
(358,310,l),
(450,670,l),
(437,567,o),
(421,426,o),
(421,280,cs),
(421,0,l),
(558,0,l),
(558,730,l),
(373,730,l),
(299,418,l),
(225,730,l),
(42,730,l),
(42,0,l)
);
}
);
width = 600;
},
{
anchors = (
{
name = bottom;
pos = (300,0);
},
{
name = top;
pos = (300,730);
}
);
layerId = "EDF5EB54-295C-4C90-9A2F-67CD82979CFF";
shapes = (
{
closed = 1;
nodes = (
(141,0,l),
(141,440,ls),
(141,542,o),
(136,651,o),
(131,705,c),
(273,325,l),
(328,325,l),
(467,707,l),
(463,653,o),
(459,542,o),
(459,440,cs),
(459,0,l),
(508,0,l),
(508,730,l),
(437,730,l),
(301,361,l),
(163,730,l),
(92,730,l),
(92,0,l)
);
}
);
width = 600;
},
{
anchors = (
{
name = bottom;
pos = (300,0);
},
{
name = top;
pos = (300,730);
}
);
layerId = "CCC0BD40-BA8C-414E-B576-CF0B94E6C996";
shapes = (
{
closed = 1;
nodes = (
(159,0,l),
(159,345,ls),
(159,477,o),
(156,595,o),
(145,694,c),
(258,326,l),
(336,326,l),
(454,703,l),
(445,598,o),
(441,443,o),
(441,345,cs),
(441,0,l),
(528,0,l),
(528,730,l),
(395,730,l),
(298,414,l),
(205,730,l),
(72,730,l),
(72,0,l)
);
}
);
width = 600;
}
);
unicode = 77;
},
{
glyphname = N;
layers = (
{
anchors = (
{
name = bottom;
pos = (300,0);
},
{
name = top;
pos = (300,730);
}
);
layerId = "CCC0BD40-BA8C-414E-B576-CF0B94E6C996";
shapes = (
{
closed = 1;
nodes = (
(177,0,l),
(177,410,ls),
(177,483,o),
(172,576,o),
(168,625,c),
(390,0,l),
(510,0,l),
(510,730,l),
(423,730,l),
(423,320,ls),
(423,247,o),
(429,154,o),
(433,105,c),
(210,730,l),
(90,730,l),
(90,0,l)
);
}
);
width = 600;
},
{
anchors = (
{
name = bottom;
pos = (300,0);
},
{
name = top;
pos = (300,730);
}
);
layerId = "EDF5EB54-295C-4C90-9A2F-67CD82979CFF";
shapes = (
{
closed = 1;
nodes = (
(158,0,l),
(158,560,ls),
(158,611,o),
(157,656,o),
(156,675,c),
(421,0,l),
(490,0,l),
(490,730,l),
(442,730,l),
(442,170,ls),
(442,155,o),
(444,95,o),
(446,55,c),
(178,730,l),
(110,730,l),
(110,0,l)
);
}
);
width = 600;
},
{
anchors = (
{
name = bottom;
pos = (300,0);
},
{
name = top;
pos = (300,730);
}
);
layerId = "9ADF6715-3D0F-493D-8567-18A6FBCFC567";
shapes = (
{
closed = 1;
nodes = (
(192,0,l),
(192,320,ls),
(192,389,o),
(184,501,o),
(178,565,c),
(365,0,l),
(540,0,l),
(540,730,l),
(408,730,l),
(408,430,ls),
(408,361,o),
(417,238,o),
(424,165,c),
(235,730,l),
(60,730,l),
(60,0,l)
);
}
);
width = 600;
}
);
unicode = 78;
},
{
glyphname = Eng;
layers = (
{
layerId = "9ADF6715-3D0F-493D-8567-18A6FBCFC567";
shapes = (
{
closed = 1;
nodes = (
(300,-180,ls),
(441,-180,o),
(540,-96,o),
(540,25,cs),
(540,730,l),
(408,730,l),
(408,526,ls),
(408,457,o),
(417,334,o),
(424,261,c),
(235,730,l),
(60,730,l),
(60,0,l),
(192,0,l),
(192,320,ls),
(192,389,o),
(184,501,o),
(178,565,c),
(390,41,l),
(390,-7,o),
(361,-35,o),
(310,-35,cs),
(250,-35,l),
(250,-180,l)
);
}
);
width = 600;
},
{
layerId = "CCC0BD40-BA8C-414E-B576-CF0B94E6C996";
shapes = (
{
closed = 1;
nodes = (
(305,-180,ls),
(429,-180,o),
(510,-103,o),
(510,15,cs),
(510,730,l),
(423,730,l),
(423,397,ls),
(423,324,o),
(429,231,o),
(433,181,c),
(210,730,l),
(90,730,l),
(90,0,l),
(177,0,l),
(177,410,ls),
(177,483,o),
(172,576,o),
(168,625,c),
(420,15,l),
(420,-55,o),
(376,-98,o),
(305,-98,cs),
(240,-98,l),
(240,-180,l)
);
}
);
width = 600;
},
{
layerId = "EDF5EB54-295C-4C90-9A2F-67CD82979CFF";
shapes = (
{
closed = 1;
nodes = (
(307,-180,ls),
(425,-180,o),
(491,-115,o),
(491,0,cs),
(491,730,l),
(443,730,l),
(443,219,ls),
(443,168,o),
(445,118,o),
(447,94,c),
(178,730,l),
(109,730,l),
(109,0,l),
(157,0,l),
(157,560,ls),
(157,611,o),
(156,656,o),
(155,675,c),
(441,0,l),
(441,-88,o),
(395,-135,o),
(307,-135,cs),
(227,-135,l),
(227,-180,l)
);
}
);
width = 600;
}
);
unicode = 330;
},
{
glyphname = O;
layers = (
{
anchors = (
{
name = bottom;
pos = (300,0);
},
{
name = center;
pos = (300,365);
},
{
name = horn;
pos = (320,700);
},
{
name = ogonek;
pos = (355,0);
},
{
name = top;
pos = (300,730);
},
{
name = topleft;
pos = (20,730);
},
{
name = topright;
pos = (580,730);
}
);
layerId = "EDF5EB54-295C-4C90-9A2F-67CD82979CFF";
shapes = (
{
closed = 1;
nodes = (
(419,-10,o),
(495,68,o),
(495,190,cs),
(495,540,ls),
(495,661,o),
(418,740,o),
(300,740,cs),
(182,740,o),
(105,661,o),
(105,540,cs),
(105,190,ls),
(105,68,o),
(182,-10,o),
(300,-10,cs)
);
},
{
closed = 1;
nodes = (
(208,34,o),
(155,91,o),
(155,190,cs),
(155,540,ls),
(155,638,o),
(209,696,o),
(300,696,cs),
(391,696,o),
(445,638,o),
(445,540,cs),
(445,190,ls),
(445,91,o),
(392,34,o),
(300,34,cs)
);
}
);
width = 600;
},
{
anchors = (
{
name = bottom;
pos = (300,0);
},
{
name = center;
pos = (300,365);
},
{
name = horn;
pos = (320,700);
},
{
name = ogonek;
pos = (350,0);
},
{
name = top;
pos = (300,730);
},
{
name = topleft;
pos = (20,730);
},
{
name = topright;
pos = (580,730);
}
);
layerId = "CCC0BD40-BA8C-414E-B576-CF0B94E6C996";
shapes = (
{
closed = 1;
nodes = (
(431,-10,o),
(512,69,o),
(512,210,cs),
(512,521,ls),
(512,661,o),
(431,740,o),
(300,740,cs),
(169,740,o),
(88,661,o),
(88,520,cs),
(88,210,ls),
(88,69,o),
(169,-10,o),
(300,-10,cs)
);
},
{
closed = 1;
nodes = (
(222,71,o),
(178,117,o),
(178,200,cs),
(178,530,ls),
(178,613,o),
(222,659,o),
(300,659,cs),
(378,659,o),
(422,613,o),
(422,530,cs),
(422,200,ls),
(422,117,o),
(378,71,o),
(300,71,cs)
);
}
);
width = 600;
},
{
anchors = (
{
name = bottom;
pos = (300,0);
},
{
name = center;
pos = (300,365);
},
{
name = horn;
pos = (320,700);
},
{
name = ogonek;
pos = (345,0);
},
{
name = top;
pos = (300,730);
},
{
name = topleft;
pos = (20,730);
},
{
name = topright;
pos = (580,730);
}
);
layerId = "9ADF6715-3D0F-493D-8567-18A6FBCFC567";
shapes = (
{
closed = 1;
nodes = (
(447,-10,o),
(540,78,o),
(540,220,cs),
(540,510,ls),
(540,652,o),
(447,740,o),
(300,740,cs),
(153,740,o),
(60,652,o),
(60,510,cs),
(60,220,ls),
(60,78,o),
(153,-10,o),
(300,-10,cs)
);
},
{
closed = 1;
nodes = (
(240,120,o),
(210,152,o),
(210,210,cs),
(210,520,ls),
(210,578,o),
(239,610,o),
(300,610,cs),
(361,610,o),
(390,578,o),
(390,520,cs),
(390,210,ls),
(390,152,o),
(360,120,o),
(300,120,cs)
);
}
);
width = 600;
}
);
unicode = 79;
},
{
glyphname = Ohorn;
layers = (
{
anchors = (
{
name = top;
pos = (290,730);
}
);
layerId = "9ADF6715-3D0F-493D-8567-18A6FBCFC567";
shapes = (
{
closed = 1;
nodes = (
(441,600,ls),
(528,600,o),
(586,654,o),
(586,735,cs),
(586,810,l),
(466,810,l),
(466,735,ls),
(466,713,o),
(453,700,o),
(431,700,cs),
(381,700,l),
(381,600,l)
);
},
{
ref = O;
}
);
width = 600;
},
{
anchors = (
{
name = top;
pos = (290,730);
}
);
layerId = "CCC0BD40-BA8C-414E-B576-CF0B94E6C996";
shapes = (
{
closed = 1;
nodes = (
(425,635,ls),
(489,635,o),
(530,672,o),
(530,730,cs),
(530,810,l),
(455,810,l),
(455,735,ls),
(455,714,o),
(441,700,o),
(420,700,cs),
(400,700,l),
(400,635,l)
);
},
{
ref = O;
}
);
width = 600;
},
{
anchors = (
{
name = top;
pos = (290,730);
}
);
layerId = "EDF5EB54-295C-4C90-9A2F-67CD82979CFF";
shapes = (
{
closed = 1;
nodes = (
(435,665,ls),
(486,665,o),
(520,699,o),
(520,750,cs),
(520,810,l),
(480,810,l),
(480,750,ls),
(480,720,o),
(462,700,o),
(435,700,cs),
(410,700,l),
(410,665,l)
);
},
{
ref = O;
}
);
width = 600;
}
);
unicode = 416;
},
{
glyphname = Oogonek;
layers = (
{
anchors = (
{
name = horn;
pos = (320,700);
},
{
name = top;
pos = (300,730);
}
);
layerId = "9ADF6715-3D0F-493D-8567-18A6FBCFC567";
shapes = (
{
closed = 1;
nodes = (
(462,-225,l),
(462,-120,l),
(393,-120,ls),
(364,-120,o),
(347,-103,o),
(347,-82,cs),
(347,-65,o),
(359,-38,o),
(386,-17,cs),
(434,21,l),
(498,58,o),
(540,127,o),
(540,210,cs),
(540,520,ls),
(540,652,o),
(447,740,o),
(300,740,cs),
(153,740,o),
(60,652,o),
(60,520,cs),
(60,210,ls),
(60,78,o),
(153,-10,o),
(300,-10,cs),
(333,-10,o),
(348,11,o),
(348,21,c),
(280,-9,o),
(223,-68,o),
(223,-115,cs),
(223,-180,o),
(273,-225,o),
(354,-225,cs)
);
},
{
closed = 1;
nodes = (
(240,120,o),
(210,152,o),
(210,210,cs),
(210,520,ls),
(210,578,o),
(239,610,o),
(300,610,cs),
(361,610,o),
(390,578,o),
(390,520,cs),
(390,210,ls),
(390,152,o),
(360,120,o),
(300,120,cs)
);
}
);
width = 600;
},
{
anchors = (
{
name = horn;
pos = (320,700);
},
{
name = top;
pos = (300,730);
}
);
layerId = "EDF5EB54-295C-4C90-9A2F-67CD82979CFF";
shapes = (
{
closed = 1;
nodes = (
(442,-195,l),
(442,-153,l),
(378,-153,ls),
(346,-153,o),
(327,-134,o),
(327,-103,cs),
(327,-75,o),
(349,-33,o),
(388,2,cs),
(397,10,l),
(459,45,o),
(495,105,o),
(495,190,cs),
(495,540,ls),
(495,661,o),
(418,740,o),
(300,740,cs),
(182,740,o),
(105,661,o),
(105,540,cs),
(105,190,ls),
(105,68,o),
(182,-10,o),
(300,-10,cs),
(311,-10,o),
(329,-9,o),
(340,-6,c),
(302,-39,o),
(280,-80,o),
(280,-115,cs),
(280,-165,o),
(314,-195,o),
(369,-195,cs)
);
},
{
closed = 1;
nodes = (
(208,34,o),
(155,91,o),
(155,190,cs),
(155,540,ls),
(155,638,o),
(209,696,o),
(300,696,cs),
(391,696,o),
(445,638,o),
(445,540,cs),
(445,190,ls),
(445,91,o),
(392,34,o),
(300,34,cs)
);
}
);
width = 600;
},
{
anchors = (
{
name = horn;
pos = (320,700);
},
{
name = top;
pos = (300,730);
}
);
layerId = "CCC0BD40-BA8C-414E-B576-CF0B94E6C996";
shapes = (
{
closed = 1;
nodes = (
(457,-203,l),
(457,-143,l),
(397,-143,ls),
(363,-143,o),
(342,-122,o),
(342,-93,cs),
(342,-65,o),
(357,-36,o),
(401,1,cs),
(430,25,l),
(482,60,o),
(512,121,o),
(512,200,cs),
(512,531,ls),
(512,661,o),
(431,740,o),
(300,740,cs),
(169,740,o),
(88,661,o),
(88,530,cs),
(88,200,ls),
(88,69,o),
(169,-10,o),
(300,-10,cs),
(304,-10,o),
(309,-10,o),
(313,-10,c),
(277,-45,o),
(257,-82,o),
(257,-110,cs),
(257,-164,o),
(305,-203,o),
(379,-203,cs)
);
},
{
closed = 1;
nodes = (
(222,71,o),
(178,117,o),
(178,200,cs),
(178,530,ls),
(178,613,o),
(222,659,o),
(300,659,cs),
(378,659,o),
(422,613,o),
(422,530,cs),
(422,200,ls),
(422,117,o),
(378,71,o),
(300,71,cs)
);
}
);
width = 600;
}
);
unicode = 490;
},
{
glyphname = Oslash;
layers = (
{
anchors = (
{
name = bottom;
pos = (300,0);
},
{
name = horn;
pos = (320,730);
},
{
name = top;
pos = (300,730);
}
);
layerId = "9ADF6715-3D0F-493D-8567-18A6FBCFC567";
shapes = (
{
closed = 1;
nodes = (
(133,-40,l),
(585,750,l),
(467,750,l),
(15,-40,l)
);
},
{
closed = 1;
nodes = (
(447,-10,o),
(540,78,o),
(540,210,cs),
(540,520,ls),
(540,652,o),
(447,740,o),
(300,740,cs),
(153,740,o),
(60,652,o),
(60,520,cs),
(60,210,ls),
(60,78,o),
(153,-10,o),
(300,-10,cs)
);
},
{
closed = 1;
nodes = (
(239,120,o),
(205,152,o),
(205,210,cs),
(205,520,ls),
(205,578,o),
(239,610,o),
(300,610,cs),
(361,610,o),
(395,578,o),
(395,520,cs),
(395,210,ls),
(395,152,o),
(361,120,o),
(300,120,cs)
);
}
);
width = 600;
},
{
anchors = (
{
name = bottom;
pos = (300,0);
},
{
name = horn;
pos = (320,730);
},
{
name = top;
pos = (300,730);
}
);
layerId = "CCC0BD40-BA8C-414E-B576-CF0B94E6C996";
shapes = (
{
closed = 1;
nodes = (
(119,-40,l),
(565,750,l),
(481,750,l),
(35,-40,l)
);
},
{
closed = 1;
nodes = (
(431,-10,o),
(512,69,o),
(512,200,cs),
(512,531,ls),
(512,661,o),
(431,740,o),
(300,740,cs),
(169,740,o),
(88,661,o),
(88,530,cs),
(88,200,ls),
(88,69,o),
(169,-10,o),
(300,-10,cs)
);
},
{
closed = 1;
nodes = (
(222,71,o),
(178,117,o),
(178,200,cs),
(178,530,ls),
(178,613,o),
(222,659,o),
(300,659,cs),
(378,659,o),
(422,613,o),
(422,530,cs),
(422,200,ls),
(422,117,o),
(378,71,o),
(300,71,cs)
);
}
);
width = 600;
},
{
anchors = (
{
name = bottom;
pos = (300,0);
},
{
name = horn;
pos = (320,730);
},
{
name = top;
pos = (300,730);
}
);
layerId = "EDF5EB54-295C-4C90-9A2F-67CD82979CFF";
shapes = (
{
closed = 1;
nodes = (
(98,-40,l),
(550,750,l),
(502,750,l),
(50,-40,l)
);
},
{
closed = 1;
nodes = (
(419,-10,o),
(495,68,o),
(495,190,cs),
(495,540,ls),
(495,661,o),
(418,740,o),
(300,740,cs),
(182,740,o),
(105,661,o),
(105,540,cs),
(105,190,ls),
(105,68,o),
(182,-10,o),
(300,-10,cs)
);
},
{
closed = 1;
nodes = (
(208,34,o),
(155,91,o),
(155,190,cs),
(155,540,ls),
(155,638,o),
(209,696,o),
(300,696,cs),
(391,696,o),
(445,638,o),
(445,540,cs),
(445,190,ls),
(445,91,o),
(392,34,o),
(300,34,cs)
);
}
);
width = 600;
}
);
unicode = 216;
},
{
glyphname = OE;
layers = (
{
layerId = "9ADF6715-3D0F-493D-8567-18A6FBCFC567";
shapes = (
{
closed = 1;
nodes = (
(247,-4,o),
(280,47,o),
(285,86,c),
(290,86,l),
(290,0,l),
(580,0,l),
(580,126,l),
(419,126,l),
(419,311,l),
(555,311,l),
(555,437,l),
(419,437,l),
(419,605,l),
(580,605,l),
(580,730,l),
(290,730,l),
(290,650,l),
(285,650,l),
(280,689,o),
(247,740,o),
(175,740,cs),
(84,740,o),
(30,666,o),
(30,541,cs),
(30,195,ls),
(30,70,o),
(84,-4,o),
(175,-4,cs)
);
},
{
closed = 1;
nodes = (
(192,121,o),
(170,149,o),
(170,195,cs),
(170,541,ls),
(170,587,o),
(192,615,o),
(227,615,cs),
(263,615,o),
(284,588,o),
(284,541,cs),
(284,195,ls),
(284,148,o),
(263,121,o),
(227,121,cs)
);
}
);
width = 600;
},
{
layerId = "CCC0BD40-BA8C-414E-B576-CF0B94E6C996";
shapes = (
{
closed = 1;
nodes = (
(264,-10,o),
(299,41,o),
(305,80,c),
(310,80,l),
(310,0,l),
(575,0,l),
(575,82,l),
(398,82,l),
(398,336,l),
(550,336,l),
(550,418,l),
(398,418,l),
(398,648,l),
(575,648,l),
(575,730,l),
(310,730,l),
(310,650,l),
(305,650,l),
(299,689,o),
(264,740,o),
(195,740,cs),
(99,740,o),
(40,667,o),
(40,550,cs),
(40,180,ls),
(40,63,o),
(99,-10,o),
(195,-10,cs)
);
},
{
closed = 1;
nodes = (
(164,70,o),
(130,112,o),
(130,180,cs),
(130,550,ls),
(130,618,o),
(164,660,o),
(220,660,cs),
(276,660,o),
(310,618,o),
(310,550,cs),
(310,180,ls),
(310,112,o),
(276,70,o),
(220,70,cs)
);
}
);
width = 600;
},
{
layerId = "EDF5EB54-295C-4C90-9A2F-67CD82979CFF";
shapes = (
{
closed = 1;
nodes = (
(265,-10,o),
(305,41,o),
(315,80,c),
(320,80,l),
(320,0,l),
(569,0,l),
(569,50,l),
(375,50,l),
(375,352,l),
(533,352,l),
(533,402,l),
(375,402,l),
(375,680,l),
(569,680,l),
(569,730,l),
(320,730,l),
(320,650,l),
(315,650,l),
(305,689,o),
(265,740,o),
(196,740,cs),
(105,740,o),
(40,664,o),
(40,557,cs),
(40,173,ls),
(40,66,o),
(105,-10,o),
(196,-10,cs)
);
},
{
closed = 1;
nodes = (
(140,40,o),
(95,94,o),
(95,173,cs),
(95,557,ls),
(95,636,o),
(140,690,o),
(207,690,cs),
(273,690,o),
(320,638,o),
(320,557,cs),
(320,173,ls),
(320,92,o),
(273,40,o),
(207,40,cs)
);
}
);
width = 600;
}
);
unicode = 338;
},
{
glyphname = P;
layers = (
{
anchors = (
{
name = bottom;
pos = (300,0);
},
{
name = top;
pos = (300,730);
}
);
layerId = "9ADF6715-3D0F-493D-8567-18A6FBCFC567";
shapes = (
{
closed = 1;
nodes = (
(216,0,l),
(216,266,l),
(315,266,ls),
(468,266,o),
(570,359,o),
(570,498,cs),
(570,638,o),
(469,730,o),
(315,730,cs),
(66,730,l),
(66,0,l)
);
},
{
closed = 1;
nodes = (
(216,600,l),
(315,600,ls),
(379,600,o),
(420,557,o),
(420,498,cs),
(420,439,o),
(379,396,o),
(315,396,cs),
(216,396,l)
);
}
);
width = 600;
},
{
anchors = (
{
name = bottom;
pos = (300,0);
},
{
name = top;
pos = (300,730);
}
);
layerId = "CCC0BD40-BA8C-414E-B576-CF0B94E6C996";
shapes = (
{
closed = 1;
nodes = (
(182,0,l),
(182,300,l),
(327,300,ls),
(463,300,o),
(550,384,o),
(550,515,cs),
(550,646,o),
(463,730,o),
(327,730,cs),
(92,730,l),
(92,0,l)
);
},
{
closed = 1;
nodes = (
(182,649,l),
(327,649,ls),
(406,649,o),
(457,597,o),
(457,515,cs),
(457,433,o),
(406,381,o),
(327,381,cs),
(182,381,l)
);
}
);
width = 600;
},
{
anchors = (
{
name = bottom;
pos = (300,0);
},
{
name = top;
pos = (300,730);
}
);
layerId = "EDF5EB54-295C-4C90-9A2F-67CD82979CFF";
shapes = (
{
closed = 1;
nodes = (
(160,0,l),
(160,324,l),
(325,324,ls),
(452,324,o),
(535,404,o),
(535,527,cs),
(535,650,o),
(453,730,o),
(325,730,cs),
(110,730,l),
(110,0,l)
);
},
{
closed = 1;
nodes = (
(160,684,l),
(325,684,ls),
(423,684,o),
(485,624,o),
(485,527,cs),
(485,431,o),
(422,370,o),
(325,370,cs),
(160,370,l)
);
}
);
width = 600;
}
);
unicode = 80;
},
{
glyphname = Thorn;
layers = (
{
layerId = "9ADF6715-3D0F-493D-8567-18A6FBCFC567";
shapes = (
{
closed = 1;
nodes = (
(220,0,l),
(220,165,l),
(340,165,ls),
(483,165,o),
(570,246,o),
(570,380,cs),
(570,515,o),
(484,595,o),
(340,595,cs),
(220,595,l),
(220,730,l),
(70,730,l),
(70,0,l)
);
},
{
closed = 1;
nodes = (
(220,470,l),
(315,470,ls),
(383,470,o),
(420,438,o),
(420,380,cs),
(420,322,o),
(383,290,o),
(315,290,cs),
(220,290,l)
);
}
);
width = 600;
},
{
layerId = "CCC0BD40-BA8C-414E-B576-CF0B94E6C996";
shapes = (
{
closed = 1;
nodes = (
(180,0,l),
(180,180,l),
(333,180,ls),
(465,180,o),
(550,258,o),
(550,380,cs),
(550,500,o),
(464,580,o),
(333,580,cs),
(180,580,l),
(180,730,l),
(90,730,l),
(90,0,l)
);
},
{
closed = 1;
nodes = (
(180,500,l),
(333,500,ls),
(409,500,o),
(457,454,o),
(457,380,cs),
(457,306,o),
(410,260,o),
(333,260,cs),
(180,260,l)
);
}
);
width = 600;
},
{
layerId = "EDF5EB54-295C-4C90-9A2F-67CD82979CFF";
shapes = (
{
closed = 1;
nodes = (
(155,0,l),
(155,195,l),
(333,195,ls),
(454,195,o),
(530,266,o),
(530,380,cs),
(530,494,o),
(454,565,o),
(333,565,cs),
(155,565,l),
(155,730,l),
(105,730,l),
(105,0,l)
);
},
{
closed = 1;
nodes = (
(155,520,l),
(333,520,ls),
(424,520,o),
(480,467,o),
(480,380,cs),
(480,294,o),
(424,241,o),
(333,241,cs),
(155,241,l)
);
}
);
width = 600;
}
);
unicode = 222;
},
{
glyphname = Q;
layers = (
{
anchors = (
{
name = bottom;
pos = (300,0);
},
{
name = top;
pos = (300,730);
}
);
layerId = "9ADF6715-3D0F-493D-8567-18A6FBCFC567";
shapes = (
{
closed = 1;
nodes = (
(556,-180,l),
(433,20,l),
(502,55,o),
(540,123,o),
(540,210,cs),
(540,520,ls),
(540,652,o),
(444,740,o),
(300,740,cs),
(155,740,o),
(60,653,o),
(60,520,cs),
(60,210,ls),
(60,79.007,o),
(156,-10,o),
(300,-10,cs),
(306,-10,o),
(314,-9,o),
(319,-9,c),
(288,4,l),
(400,-180,l)
);
},
{
closed = 1;
nodes = (
(238,121,o),
(210,153,o),
(210,210,cs),
(210,520,ls),
(210,578,o),
(242,610,o),
(300,610,cs),
(358,610,o),
(390,578,o),
(390,520,cs),
(390,210,ls),
(390,153,o),
(362,121,o),
(300,121,cs)
);
}
);
width = 600;
},
{
anchors = (
{
name = bottom;
pos = (300,0);
},
{
name = top;
pos = (300,730);
}
);
layerId = "CCC0BD40-BA8C-414E-B576-CF0B94E6C996";
shapes = (
{
closed = 1;
nodes = (
(526,-180,l),
(409,13,l),
(479,46,o),
(520,115,o),
(520,205,cs),
(520,525,ls),
(520,656,o),
(435,740,o),
(300,740,cs),
(165,740,o),
(80,656,o),
(80,525,cs),
(80,205,ls),
(80,74,o),
(165,-10,o),
(300,-10,cs),
(310,-10,o),
(320,-9,o),
(325,-9,c),
(315,-3,l),
(422,-180,l)
);
},
{
closed = 1;
nodes = (
(221,70,o),
(170,123,o),
(170,205,cs),
(170,525,ls),
(170,607,o),
(221,660,o),
(300,660,cs),
(379,660,o),
(430,607,o),
(430,525,cs),
(430,205,ls),
(430,123,o),
(379,70,o),
(300,70,cs)
);
}
);
width = 600;
},
{
anchors = (
{
name = bottom;
pos = (300,0);
},
{
name = top;
pos = (300,730);
}
);
layerId = "EDF5EB54-295C-4C90-9A2F-67CD82979CFF";
shapes = (
{
closed = 1;
nodes = (
(510,-180,l),
(395,10,l),
(459,40,o),
(495,106,o),
(495,190,cs),
(495,540,ls),
(495,656,o),
(420,740,o),
(301,740,cs),
(181,740,o),
(105,662,o),
(105,540,cs),
(105,190,ls),
(105,69,o),
(182,-10,o),
(301,-10,cs),
(321,-10,o),
(343,-7,o),
(354,-5,c),
(339,0,l),
(449,-180,l)
);
},
{
closed = 1;
nodes = (
(209,35,o),
(155,92,o),
(155,190,cs),
(155,540,ls),
(155,638,o),
(209,695,o),
(301,695,cs),
(391,695,o),
(445,637,o),
(445,540,cs),
(445,190,ls),
(445,92,o),
(392,35,o),
(301,35,cs)
);
}
);
width = 600;
}
);
unicode = 81;
},
{
glyphname = R;
layers = (
{
anchors = (
{
name = bottom;
pos = (300,0);
},
{
name = top;
pos = (300,730);
}
);
layerId = "9ADF6715-3D0F-493D-8567-18A6FBCFC567";
shapes = (
{
closed = 1;
nodes = (
(214,0,l),
(214,276,l),
(284,276,l),
(402,0,l),
(565,0,l),
(427,300,l),
(505,333,o),
(555,413,o),
(555,508,cs),
(555,644,o),
(455,730,o),
(300,730,cs),
(66,730,l),
(66,0,l)
);
},
{
closed = 1;
nodes = (
(214,600,l),
(300,600,ls),
(366,600,o),
(405,563,o),
(405,501,cs),
(405,441,o),
(366,406,o),
(300,406,cs),
(214,406,l)
);
}
);
width = 600;
},
{
anchors = (
{
name = bottom;
pos = (300,0);
},
{
name = top;
pos = (300,730);
}
);
layerId = "CCC0BD40-BA8C-414E-B576-CF0B94E6C996";
shapes = (
{
closed = 1;
nodes = (
(182,0,l),
(182,310,l),
(303,310,l),
(446,0,l),
(545,0,l),
(396,319,l),
(480,347,o),
(535,421,o),
(535,520,cs),
(535,645,o),
(448,730,o),
(318,730,cs),
(93,730,l),
(93,0,l)
);
},
{
closed = 1;
nodes = (
(182,649,l),
(318,649,ls),
(392,649,o),
(442,598,o),
(442,520,cs),
(442,442,o),
(393,391,o),
(318,391,cs),
(182,391,l)
);
}
);
width = 600;
},
{
anchors = (
{
name = bottom;
pos = (300,0);
},
{
name = top;
pos = (300,730);
}
);
layerId = "EDF5EB54-295C-4C90-9A2F-67CD82979CFF";
shapes = (
{
closed = 1;
nodes = (
(160,0,l),
(160,330,l),
(305,330,l),
(470,0,l),
(530,0,l),
(359,332,l),
(461,347,o),
(525,422,o),
(525,528,cs),
(525,652,o),
(444,730,o),
(315,730,cs),
(110,730,l),
(110,0,l)
);
},
{
closed = 1;
nodes = (
(160,684,l),
(315,684,ls),
(412,684,o),
(475,624,o),
(475,530,cs),
(475,436,o),
(412,375,o),
(315,375,cs),
(160,375,l)
);
}
);
width = 600;
}
);
unicode = 82;
},
{
glyphname = S;
layers = (
{
anchors = (
{
name = bottom;
pos = (300,0);
},
{
name = top;
pos = (300,730);
}
);
layerId = "9ADF6715-3D0F-493D-8567-18A6FBCFC567";
shapes = (
{
closed = 1;
nodes = (
(456,-10,o),
(553,75,o),
(553,206,cs),
(553,324,o),
(481,415,o),
(366,441,cs),
(274,462,ls),
(230,472,o),
(205,496,o),
(205,535,cs),
(205,582,o),
(239,612,o),
(296,612,cs),
(355,612,o),
(390,581,o),
(390,531,c),
(536,531,l),
(536,659,o),
(443,740,o),
(296,740,cs),
(149,740,o),
(59,660,o),
(59,530,cs),
(59,423,o),
(131,342,o),
(246,315,cs),
(335,294,ls),
(382,283,o),
(406,247,o),
(406,206,cs),
(406,154,o),
(367,120,o),
(302,120,cs),
(235,120,o),
(193,155,o),
(193,210,c),
(47,210,l),
(47,75,o),
(148,-10,o),
(302,-10,cs)
);
}
);
width = 600;
},
{
anchors = (
{
name = bottom;
pos = (300,0);
},
{
name = top;
pos = (300,730);
}
);
layerId = "CCC0BD40-BA8C-414E-B576-CF0B94E6C996";
shapes = (
{
closed = 1;
nodes = (
(440,-10,o),
(528,72,o),
(528,200,cs),
(528,301,o),
(471,380,o),
(374,407,cs),
(260,439,ls),
(208,454,o),
(178,493,o),
(178,547,cs),
(178,614,o),
(226,660,o),
(297,660,cs),
(368,660,o),
(418,614,o),
(418,547,c),
(508,547,l),
(508,661,o),
(421,740,o),
(297,740,cs),
(174,740,o),
(90,661,o),
(90,545,cs),
(90,451,o),
(146,378,o),
(238,352,cs),
(349,321,ls),
(407,305,o),
(440,259,o),
(440,200,cs),
(440,122,o),
(387,70,o),
(304,70,cs),
(218,70,o),
(162,119,o),
(162,200,c),
(72,200,l),
(72,69,o),
(163,-10,o),
(304,-10,cs)
);
}
);
width = 600;
},
{
anchors = (
{
name = bottom;
pos = (300,0);
},
{
name = top;
pos = (300,730);
}
);
layerId = "EDF5EB54-295C-4C90-9A2F-67CD82979CFF";
shapes = (
{
closed = 1;
nodes = (
(430,-10,o),
(515,69,o),
(515,183,cs),
(515,279,o),
(456,357,o),
(363,386,cs),
(261,418,ls),
(195,439,o),
(154,495,o),
(154,563,cs),
(154,642,o),
(215,696,o),
(303,696,cs),
(393,696,o),
(454,635,o),
(454,545,c),
(503,545,l),
(503,661,o),
(422,740,o),
(304,740,cs),
(186,740,o),
(105,666,o),
(105,559,cs),
(105,471,o),
(161,399,o),
(249,372,cs),
(351,341,ls),
(422,319,o),
(466,257,o),
(466,180,cs),
(466,94,o),
(400,35,o),
(305,35,cs),
(204,35,o),
(134,102,o),
(134,200,c),
(85,200,l),
(85,75,o),
(175,-10,o),
(305,-10,cs)
);
}
);
width = 600;
}
);
unicode = 83;
},
{
glyphname = Scedilla;
layers = (
{
anchors = (
{
name = _bottom;
pos = (300,0);
}
);
layerId = "9ADF6715-3D0F-493D-8567-18A6FBCFC567";
shapes = (
{
closed = 1;
nodes = (
(305,-225,ls),
(389,-225,o),
(445,-182,o),
(445,-133,cs),
(445,-72,o),
(364,-43,o),
(303,-39,c),
(322,16,l),
(249,16,l),
(214,-69,l),
(287,-69,o),
(330,-88,o),
(330,-119,cs),
(330,-135,o),
(308,-155,o),
(275,-155,cs),
(195,-155,l),
(195,-225,l)
);
},
{
alignment = -1;
ref = S;
}
);
width = 600;
},
{
anchors = (
{
name = _bottom;
pos = (300,0);
}
);
layerId = "CCC0BD40-BA8C-414E-B576-CF0B94E6C996";
shapes = (
{
closed = 1;
nodes = (
(290,-203,ls),
(362,-203,o),
(410,-166,o),
(410,-120,cs),
(410,-68,o),
(342,-41,o),
(290,-35,c),
(311,26,l),
(254,26,l),
(219,-69,l),
(286,-69,o),
(324,-89,o),
(324,-112,cs),
(324,-130,o),
(304,-148,o),
(275,-148,cs),
(205,-148,l),
(205,-203,l)
);
},
{
alignment = -1;
ref = S;
}
);
width = 600;
},
{
anchors = (
{
name = _bottom;
pos = (300,0);
}
);
layerId = "EDF5EB54-295C-4C90-9A2F-67CD82979CFF";
shapes = (
{
closed = 1;
nodes = (
(315,-195,ls),
(375,-195,o),
(415,-161,o),
(415,-118,cs),
(415,-61,o),
(352,-37,o),
(305,-34,c),
(328,26,l),
(286,26,l),
(251,-64,l),
(322,-64,o),
(369,-86,o),
(369,-118,cs),
(369,-140,o),
(347,-160,o),
(315,-160,cs),
(235,-160,l),
(235,-195,l)
);
},
{
alignment = -1;
ref = S;
}
);
width = 600;
}
);
unicode = 350;
},
{
glyphname = Germandbls;
layers = (
{
layerId = "EDF5EB54-295C-4C90-9A2F-67CD82979CFF";
shapes = (
{
closed = 1;
nodes = (
(160,0,l),
(160,543,ls),
(160,629,o),
(217,685,o),
(305,685,cs),
(466,685,l),
(270,411,l),
(270,368,l),
(310,368,ls),
(407,368,o),
(470,305,o),
(470,208,cs),
(470,109,o),
(407,45,o),
(310,45,cs),
(248,45,l),
(248,0,l),
(310,0,ls),
(438,0,o),
(520,82,o),
(520,210,cs),
(520,330,o),
(438,407,o),
(310,407,c),
(310,398,l),
(517,684,l),
(517,730,l),
(305,730,ls),
(187,730,o),
(110,657,o),
(110,543,cs),
(110,0,l)
);
}
);
width = 600;
},
{
layerId = "9ADF6715-3D0F-493D-8567-18A6FBCFC567";
shapes = (
{
closed = 1;
nodes = (
(195,0,l),
(195,511,ls),
(195,568,o),
(234,605,o),
(295,605,cs),
(412,605,l),
(259,438,l),
(259,328,l),
(306,328,ls),
(369,328,o),
(408,287,o),
(408,227,cs),
(408,167,o),
(370,125,o),
(306,125,cs),
(259,125,l),
(259,0,l),
(311,0,ls),
(462,0,o),
(559,84,o),
(559,215,cs),
(559,344,o),
(471,427,o),
(336,425,c),
(349,375,l),
(546,589,l),
(546,730,l),
(296,730,ls),
(153,730,o),
(60,644,o),
(60,511,cs),
(60,0,l)
);
}
);
width = 600;
},
{
layerId = "CCC0BD40-BA8C-414E-B576-CF0B94E6C996";
shapes = (
{
closed = 1;
nodes = (
(182,0,l),
(182,524,ls),
(182,601,o),
(228,648,o),
(302,648,cs),
(434,648,l),
(270,423,l),
(270,345,l),
(315,345,ls),
(395,345,o),
(445,295,o),
(445,215,cs),
(445,133,o),
(395,82,o),
(315,82,cs),
(258,82,l),
(258,0,l),
(325,0,ls),
(454,0,o),
(540,86,o),
(540,215,cs),
(540,342,o),
(464,425,o),
(350,423,c),
(350,400,l),
(529,642,l),
(529,730,l),
(302,730,ls),
(176,730,o),
(92,648,o),
(92,524,cs),
(92,0,l)
);
}
);
width = 600;
}
);
unicode = 7838;
},
{
glyphname = T;
layers = (
{
anchors = (
{
name = bottom;
pos = (300,0);
},
{
name = center;
pos = (300,365);
},
{
name = top;
pos = (300,730);
}
);
layerId = "9ADF6715-3D0F-493D-8567-18A6FBCFC567";
shapes = (
{
closed = 1;
nodes = (
(375,0,l),
(375,595,l),
(560,595,l),
(560,730,l),
(40,730,l),
(40,595,l),
(225,595,l),
(225,0,l)
);
}
);
width = 600;
},
{
anchors = (
{
name = bottom;
pos = (300,0);
},
{
name = center;
pos = (300,365);
},
{
name = top;
pos = (300,730);
}
);
layerId = "CCC0BD40-BA8C-414E-B576-CF0B94E6C996";
shapes = (
{
closed = 1;
nodes = (
(345,0,l),
(345,648,l),
(545,648,l),
(545,730,l),
(55,730,l),
(55,648,l),
(255,648,l),
(255,0,l)
);
}
);
width = 600;
},
{
anchors = (
{
name = bottom;
pos = (300,0);
},
{
name = center;
pos = (300,365);
},
{
name = top;
pos = (300,730);
}
);
layerId = "EDF5EB54-295C-4C90-9A2F-67CD82979CFF";
shapes = (
{
closed = 1;
nodes = (
(326,0,l),
(326,685,l),
(540,685,l),
(540,730,l),
(60,730,l),
(60,685,l),
(276,685,l),
(276,0,l)
);
}
);
width = 600;
}
);
unicode = 84;
},
{
glyphname = Tbar;
layers = (
{
layerId = "9ADF6715-3D0F-493D-8567-18A6FBCFC567";
shapes = (
{
closed = 1;
nodes = (
(500,265,l),
(500,390,l),
(100,390,l),
(100,265,l)
);
},
{
alignment = -1;
ref = T;
}
);
width = 600;
},
{
layerId = "CCC0BD40-BA8C-414E-B576-CF0B94E6C996";
shapes = (
{
closed = 1;
nodes = (
(490,295,l),
(490,370,l),
(110,370,l),
(110,295,l)
);
},
{
alignment = -1;
ref = T;
}
);
width = 600;
},
{
layerId = "EDF5EB54-295C-4C90-9A2F-67CD82979CFF";
shapes = (
{
closed = 1;
nodes = (
(480,310,l),
(480,355,l),
(120,355,l),
(120,310,l)
);
},
{
alignment = -1;
ref = T;
}
);
width = 600;
}
);
unicode = 358;
},
{
glyphname = Tcedilla;
layers = (
{
anchors = (
{
name = _bottom;
pos = (300,0);
}
);
layerId = "9ADF6715-3D0F-493D-8567-18A6FBCFC567";
shapes = (
{
closed = 1;
nodes = (
(364,-225,ls),
(448,-225,o),
(504,-182,o),
(504,-133,cs),
(504,-72,o),
(423,-43,o),
(362,-39,c),
(375,0,l),
(308,16,l),
(273,-69,l),
(346,-69,o),
(389,-88,o),
(389,-119,cs),
(389,-135,o),
(367,-155,o),
(334,-155,cs),
(254,-155,l),
(254,-225,l)
);
},
{
alignment = -1;
ref = T;
}
);
width = 600;
},
{
anchors = (
{
name = _bottom;
pos = (300,0);
}
);
layerId = "CCC0BD40-BA8C-414E-B576-CF0B94E6C996";
shapes = (
{
closed = 1;
nodes = (
(333,-203,ls),
(405,-203,o),
(453,-166,o),
(453,-120,cs),
(453,-68,o),
(385,-41,o),
(333,-35,c),
(345,0,l),
(297,26,l),
(262,-69,l),
(329,-69,o),
(367,-89,o),
(367,-112,cs),
(367,-130,o),
(347,-148,o),
(318,-148,cs),
(248,-148,l),
(248,-203,l)
);
},
{
alignment = -1;
ref = T;
}
);
width = 600;
},
{
anchors = (
{
name = _bottom;
pos = (300,0);
}
);
layerId = "EDF5EB54-295C-4C90-9A2F-67CD82979CFF";
shapes = (
{
closed = 1;
nodes = (
(323,-195,ls),
(383,-195,o),
(423,-161,o),
(423,-118,cs),
(423,-61,o),
(360,-37,o),
(313,-34,c),
(326,0,l),
(294,26,l),
(259,-64,l),
(330,-64,o),
(377,-86,o),
(377,-118,cs),
(377,-140,o),
(355,-160,o),
(323,-160,cs),
(243,-160,l),
(243,-195,l)
);
},
{
alignment = -1;
ref = T;
}
);
width = 600;
}
);
unicode = 354;
},
{
glyphname = U;
layers = (
{
anchors = (
{
name = bottom;
pos = (300,0);
},
{
name = horn;
pos = (385,730);
},
{
name = ogonek;
pos = (345,0);
},
{
name = top;
pos = (300,730);
},
{
name = topright;
pos = (580,730);
}
);
layerId = "9ADF6715-3D0F-493D-8567-18A6FBCFC567";
shapes = (
{
closed = 1;
nodes = (
(448,-10,o),
(540,76,o),
(540,214,cs),
(540,730,l),
(390,730,l),
(390,215,ls),
(390,154,o),
(356,120,o),
(300,120,cs),
(243,120,o),
(210,154,o),
(210,215,cs),
(210,730,l),
(60,730,l),
(60,214,ls),
(60,75,o),
(152,-10,o),
(300,-10,cs)
);
}
);
width = 600;
},
{
anchors = (
{
name = bottom;
pos = (300,0);
},
{
name = horn;
pos = (385,730);
},
{
name = ogonek;
pos = (350,0);
},
{
name = top;
pos = (300,730);
},
{
name = topright;
pos = (580,730);
}
);
layerId = "CCC0BD40-BA8C-414E-B576-CF0B94E6C996";
shapes = (
{
closed = 1;
nodes = (
(437,-10,o),
(510,69,o),
(510,200,cs),
(510,730,l),
(420,730,l),
(420,200,ls),
(420,120,o),
(380,70,o),
(300,70,cs),
(219,70,o),
(180,120,o),
(180,200,cs),
(180,730,l),
(90,730,l),
(90,200,ls),
(90,70,o),
(164,-10,o),
(300,-10,cs)
);
}
);
width = 600;
},
{
anchors = (
{
name = bottom;
pos = (300,0);
},
{
name = horn;
pos = (392,730);
},
{
name = ogonek;
pos = (355,0);
},
{
name = top;
pos = (300,730);
},
{
name = topright;
pos = (580,730);
}
);
layerId = "EDF5EB54-295C-4C90-9A2F-67CD82979CFF";
shapes = (
{
closed = 1;
nodes = (
(417,-10,o),
(492,69,o),
(492,190,cs),
(492,730,l),
(442,730,l),
(442,190,ls),
(442,93,o),
(390,35,o),
(301,35,cs),
(211,35,o),
(158,92,o),
(158,190,cs),
(158,730,l),
(108,730,l),
(108,190,ls),
(108,69,o),
(184,-10,o),
(301,-10,cs)
);
}
);
width = 600;
}
);
unicode = 85;
},
{
glyphname = Uhorn;
layers = (
{
anchors = (
{
name = top;
pos = (300,730);
}
);
layerId = "9ADF6715-3D0F-493D-8567-18A6FBCFC567";
shapes = (
{
closed = 1;
nodes = (
(506,630,ls),
(593,630,o),
(651,684,o),
(651,765,cs),
(651,840,l),
(531,840,l),
(531,765,ls),
(531,743,o),
(518,730,o),
(496,730,cs),
(446,730,l),
(446,630,l)
);
},
{
alignment = -1;
ref = U;
}
);
width = 600;
},
{
anchors = (
{
name = top;
pos = (300,730);
}
);
layerId = "CCC0BD40-BA8C-414E-B576-CF0B94E6C996";
shapes = (
{
closed = 1;
nodes = (
(490,665,ls),
(554,665,o),
(595,702,o),
(595,760,cs),
(595,840,l),
(520,840,l),
(520,765,ls),
(520,744,o),
(506,730,o),
(485,730,cs),
(435,730,l),
(435,665,l)
);
},
{
alignment = -1;
ref = U;
}
);
width = 600;
},
{
anchors = (
{
name = top;
pos = (300,730);
}
);
layerId = "EDF5EB54-295C-4C90-9A2F-67CD82979CFF";
shapes = (
{
closed = 1;
nodes = (
(497,695,ls),
(548,695,o),
(582,729,o),
(582,780,cs),
(582,840,l),
(542,840,l),
(542,780,ls),
(542,750,o),
(524,730,o),
(497,730,cs),
(442,730,l),
(442,695,l)
);
},
{
alignment = -1;
ref = U;
}
);
width = 600;
}
);
unicode = 431;
},
{
glyphname = Uogonek;
layers = (
{
anchors = (
{
name = horn;
pos = (385,730);
},
{
name = top;
pos = (300,730);
}
);
layerId = "9ADF6715-3D0F-493D-8567-18A6FBCFC567";
shapes = (
{
closed = 1;
nodes = (
(462,-225,l),
(462,-120,l),
(393,-120,ls),
(364,-120,o),
(347,-103,o),
(347,-82,cs),
(347,-65,o),
(359,-38,o),
(386,-17,cs),
(434,21,l),
(498,58,o),
(540,127,o),
(540,210,cs),
(540,730,l),
(390,730,l),
(390,210,ls),
(390,152,o),
(360,120,o),
(300,120,cs),
(240,120,o),
(210,152,o),
(210,210,cs),
(210,730,l),
(60,730,l),
(60,210,ls),
(60,78,o),
(153,-10,o),
(300,-10,cs),
(333,-10,o),
(348,11,o),
(348,21,c),
(280,-9,o),
(223,-68,o),
(223,-115,cs),
(223,-180,o),
(273,-225,o),
(354,-225,cs)
);
}
);
width = 600;
},
{
anchors = (
{
name = horn;
pos = (385,730);
},
{
name = top;
pos = (300,730);
}
);
layerId = "CCC0BD40-BA8C-414E-B576-CF0B94E6C996";
shapes = (
{
closed = 1;
nodes = (
(457,-203,l),
(457,-143,l),
(397,-143,ls),
(363,-143,o),
(342,-122,o),
(342,-93,cs),
(342,-65,o),
(357,-36,o),
(401,1,cs),
(430,25,l),
(482,60,o),
(510,121,o),
(510,200,cs),
(510,730,l),
(420,730,l),
(420,200,ls),
(420,117,o),
(378,71,o),
(300,71,cs),
(222,71,o),
(180,117,o),
(180,200,cs),
(180,730,l),
(90,730,l),
(90,200,ls),
(90,69,o),
(169,-10,o),
(300,-10,cs),
(304,-10,o),
(309,-10,o),
(313,-10,c),
(277,-45,o),
(257,-82,o),
(257,-110,cs),
(257,-164,o),
(305,-203,o),
(379,-203,cs)
);
}
);
width = 600;
},
{
anchors = (
{
name = horn;
pos = (392,730);
},
{
name = top;
pos = (300,730);
}
);
layerId = "EDF5EB54-295C-4C90-9A2F-67CD82979CFF";
shapes = (
{
closed = 1;
nodes = (
(442,-195,l),
(442,-153,l),
(378,-153,ls),
(346,-153,o),
(327,-134,o),
(327,-103,cs),
(327,-75,o),
(349,-33,o),
(388,2,cs),
(397,10,l),
(459,45,o),
(492,105,o),
(492,190,cs),
(492,730,l),
(442,730,l),
(442,190,ls),
(442,91,o),
(392,34,o),
(300,34,cs),
(208,34,o),
(158,91,o),
(158,190,cs),
(158,730,l),
(108,730,l),
(108,190,ls),
(108,68,o),
(182,-10,o),
(300,-10,cs),
(311,-10,o),
(329,-9,o),
(340,-6,c),
(302,-39,o),
(280,-80,o),
(280,-115,cs),
(280,-165,o),
(314,-195,o),
(369,-195,cs)
);
}
);
width = 600;
}
);
unicode = 370;
},
{
glyphname = V;
layers = (
{
anchors = (
{
name = bottom;
pos = (300,0);
},
{
name = top;
pos = (300,730);
}
);
layerId = "9ADF6715-3D0F-493D-8567-18A6FBCFC567";
shapes = (
{
closed = 1;
nodes = (
(396,0,l),
(575,730,l),
(424,730,l),
(326,270,ls),
(319,237,o),
(310,179,o),
(305,145,c),
(299,179,o),
(288,237,o),
(281,269,cs),
(180,730,l),
(25,730,l),
(206,0,l)
);
}
);
width = 600;
},
{
anchors = (
{
name = bottom;
pos = (300,0);
},
{
name = top;
pos = (300,730);
}
);
layerId = "CCC0BD40-BA8C-414E-B576-CF0B94E6C996";
shapes = (
{
closed = 1;
nodes = (
(361,0,l),
(550,730,l),
(457,730,l),
(337,234,ls),
(320,165,o),
(306,100,o),
(301,70,c),
(296,100,o),
(284,164,o),
(267,233,cs),
(142,730,l),
(50,730,l),
(238,0,l)
);
}
);
width = 600;
},
{
anchors = (
{
name = bottom;
pos = (300,0);
},
{
name = top;
pos = (300,730);
}
);
layerId = "EDF5EB54-295C-4C90-9A2F-67CD82979CFF";
shapes = (
{
closed = 1;
nodes = (
(332,0,l),
(532,730,l),
(483,730,l),
(334,180,ls),
(318,122,o),
(306,66,o),
(301,40,c),
(296,66,o),
(285,122,o),
(269,180,cs),
(121,730,l),
(68,730,l),
(268,0,l)
);
}
);
width = 600;
}
);
unicode = 86;
},
{
glyphname = W;
layers = (
{
anchors = (
{
name = bottom;
pos = (300,0);
},
{
name = top;
pos = (300,730);
}
);
layerId = "9ADF6715-3D0F-493D-8567-18A6FBCFC567";
shapes = (
{
closed = 1;
nodes = (
(235,0,l),
(289,485,ls),
(293,519,o),
(297,594,o),
(300,640,c),
(303,594,o),
(309,519,o),
(312,485,cs),
(361,0,l),
(517,0,l),
(590,730,l),
(470,730,l),
(436,242,ls),
(434,213,o),
(430,144,o),
(429,100,c),
(424,144,o),
(417,213,o),
(414,242,cs),
(358,730,l),
(244,730,l),
(186,242,ls),
(183,213,o),
(177,144,o),
(173,100,c),
(172,144,o),
(168,213,o),
(166,242,cs),
(129,730,l),
(10,730,l),
(78,0,l)
);
}
);
width = 600;
},
{
anchors = (
{
name = bottom;
pos = (300,0);
},
{
name = top;
pos = (300,730);
}
);
layerId = "CCC0BD40-BA8C-414E-B576-CF0B94E6C996";
shapes = (
{
closed = 1;
nodes = (
(220,0,l),
(291,550,ls),
(297,595,o),
(299,643,o),
(302,667,c),
(304,643,o),
(307,595,o),
(312,550,cs),
(378,0,l),
(491,0,l),
(580,730,l),
(501,730,l),
(442,190,ls),
(437,146,o),
(433,93,o),
(431,65,c),
(428,93,o),
(422,146,o),
(417,190,cs),
(351,730,l),
(254,730,l),
(182,190,ls),
(176,146,o),
(172,93,o),
(169,65,c),
(168,93,o),
(165,146,o),
(160,190,cs),
(103,730,l),
(20,730,l),
(107,0,l)
);
}
);
width = 600;
},
{
anchors = (
{
name = bottom;
pos = (300,0);
},
{
name = top;
pos = (300,730);
}
);
layerId = "EDF5EB54-295C-4C90-9A2F-67CD82979CFF";
shapes = (
{
closed = 1;
nodes = (
(200,0,l),
(282,530,ls),
(290,582,o),
(297,652,o),
(303,690,c),
(308,651,o),
(315,581,o),
(322,530,cs),
(397,0,l),
(469,0,l),
(560,730,l),
(513,730,l),
(451,190,ls),
(447,154,o),
(437,80,o),
(431,35,c),
(425,80,o),
(417,154,o),
(412,190,cs),
(335,730,l),
(271,730,l),
(191,190,ls),
(186,154,o),
(177,80,o),
(171,35,c),
(166,80,o),
(159,154,o),
(154,190,cs),
(86,730,l),
(40,730,l),
(130,0,l)
);
}
);
width = 600;
}
);
unicode = 87;
},
{
glyphname = X;
layers = (
{
anchors = (
{
name = bottom;
pos = (300,0);
},
{
name = top;
pos = (300,730);
}
);
layerId = "9ADF6715-3D0F-493D-8567-18A6FBCFC567";
shapes = (
{
closed = 1;
nodes = (
(181,0,l),
(269,180,ls),
(283,209,o),
(293,237,o),
(297,250,c),
(302,237,o),
(313,209,o),
(327,180,cs),
(415,0,l),
(580,0,l),
(384,377,l),
(567,730,l),
(406,730,l),
(328,570,ls),
(314,541,o),
(305,515,o),
(302,504,c),
(299,515,o),
(289,541,o),
(274,570,cs),
(198,730,l),
(33,730,l),
(216,377,l),
(20,0,l)
);
}
);
width = 600;
},
{
anchors = (
{
name = bottom;
pos = (300,0);
},
{
name = top;
pos = (300,730);
}
);
layerId = "EDF5EB54-295C-4C90-9A2F-67CD82979CFF";
shapes = (
{
closed = 1;
nodes = (
(108,0,l),
(248,252,ls),
(260,273,o),
(285,317,o),
(301,345,c),
(317,317,o),
(343,273,o),
(355,252,cs),
(491,0,l),
(547,0,l),
(330,382,l),
(532,730,l),
(478,730,l),
(354,508,ls),
(341,485,o),
(315,441,o),
(300,415,c),
(284,442,o),
(258,485,o),
(246,508,cs),
(124,730,l),
(68,730,l),
(270,380,l),
(53,0,l)
);
}
);
width = 600;
},
{
anchors = (
{
name = bottom;
pos = (300,0);
},
{
name = top;
pos = (300,730);
}
);
layerId = "CCC0BD40-BA8C-414E-B576-CF0B94E6C996";
shapes = (
{
closed = 1;
nodes = (
(140,0,l),
(266,233,ls),
(278,255,o),
(292,284,o),
(299,300,c),
(306,284,o),
(320,255,o),
(332,232,cs),
(457,0,l),
(560,0,l),
(350,376,l),
(549,730,l),
(450,730,l),
(335,514,ls),
(323,491,o),
(309,462,o),
(302,447,c),
(294,462,o),
(280,491,o),
(268,514,cs),
(155,730,l),
(51,730,l),
(250,370,l),
(40,0,l)
);
}
);
width = 600;
}
);
unicode = 88;
},
{
glyphname = Y;
layers = (
{
anchors = (
{
name = bottom;
pos = (300,0);
},
{
name = top;
pos = (300,730);
},
{
name = topleft;
pos = (20,730);
}
);
layerId = "9ADF6715-3D0F-493D-8567-18A6FBCFC567";
shapes = (
{
closed = 1;
nodes = (
(375,0,l),
(375,260,l),
(585,730,l),
(429,730,l),
(340,510,ls),
(322,466,o),
(309,410,o),
(303,380,c),
(297,410,o),
(282,466,o),
(264,510,cs),
(172,730,l),
(15,730,l),
(225,260,l),
(225,0,l)
);
}
);
width = 600;
},
{
anchors = (
{
name = bottom;
pos = (300,0);
},
{
name = top;
pos = (300,730);
},
{
name = topleft;
pos = (20,730);
}
);
layerId = "CCC0BD40-BA8C-414E-B576-CF0B94E6C996";
shapes = (
{
closed = 1;
nodes = (
(345,0,l),
(345,273,l),
(565,730,l),
(472,730,l),
(330,430,ls),
(314,397,o),
(304,372,o),
(301,362,c),
(298,372,o),
(289,397,o),
(273,430,cs),
(131,730,l),
(35,730,l),
(255,273,l),
(255,0,l)
);
}
);
width = 600;
},
{
anchors = (
{
name = bottom;
pos = (300,0);
},
{
name = top;
pos = (300,730);
},
{
name = topleft;
pos = (20,730);
}
);
layerId = "EDF5EB54-295C-4C90-9A2F-67CD82979CFF";
shapes = (
{
closed = 1;
nodes = (
(325,0,l),
(325,280,l),
(550,730,l),
(498,730,l),
(333,400,ls),
(318,370,o),
(307,342,o),
(301,330,c),
(295,343,o),
(282,371,o),
(268,400,cs),
(103,730,l),
(50,730,l),
(275,280,l),
(275,0,l)
);
}
);
width = 600;
}
);
unicode = 89;
},
{
glyphname = Z;
layers = (
{
anchors = (
{
name = bottom;
pos = (300,0);
},
{
name = center;
pos = (300,365);
},
{
name = top;
pos = (300,730);
}
);
layerId = "9ADF6715-3D0F-493D-8567-18A6FBCFC567";
shapes = (
{
closed = 1;
nodes = (
(525,0,l),
(525,135,l),
(245,135,l),
(514,595,l),
(514,730,l),
(83,730,l),
(83,595,l),
(343,595,l),
(75,135,l),
(75,0,l)
);
}
);
width = 600;
},
{
anchors = (
{
name = bottom;
pos = (300,0);
},
{
name = center;
pos = (300,365);
},
{
name = top;
pos = (300,730);
}
);
layerId = "CCC0BD40-BA8C-414E-B576-CF0B94E6C996";
shapes = (
{
closed = 1;
nodes = (
(515,0,l),
(515,82,l),
(176,82,l),
(505,640,l),
(505,730,l),
(90,730,l),
(90,648,l),
(414,648,l),
(85,90,l),
(85,0,l)
);
}
);
width = 600;
},
{
anchors = (
{
name = bottom;
pos = (300,0);
},
{
name = center;
pos = (300,365);
},
{
name = top;
pos = (300,730);
}
);
layerId = "EDF5EB54-295C-4C90-9A2F-67CD82979CFF";
shapes = (
{
closed = 1;
nodes = (
(510,0,l),
(510,46,l),
(141,46,l),
(497,673,l),
(497,730,l),
(94,730,l),
(94,684,l),
(449,684,l),
(90,50,l),
(90,0,l)
);
}
);
width = 600;
}
);
unicode = 90;
},
{
glyphname = W.cv07;
layers = (
{
anchors = (
{
name = bottom;
pos = (300,0);
},
{
name = top;
pos = (300,730);
}
);
layerId = "9ADF6715-3D0F-493D-8567-18A6FBCFC567";
shapes = (
{
closed = 1;
nodes = (
(229,0,l),
(302,485,l),
(367,0,l),
(527,0,l),
(590,730,l),
(470,730,l),
(444,242,ls),
(443,215,o),
(439,134,o),
(437,90,c),
(434,134,o),
(427,213,o),
(422,242,cs),
(363,605,l),
(239,605,l),
(178,242,ls),
(173,215,o),
(168,144,o),
(164,100,c),
(163,144,o),
(160,215,o),
(158,242,cs),
(129,730,l),
(10,730,l),
(68,0,l)
);
}
);
width = 600;
},
{
anchors = (
{
name = bottom;
pos = (300,0);
},
{
name = top;
pos = (300,730);
}
);
layerId = "CCC0BD40-BA8C-414E-B576-CF0B94E6C996";
shapes = (
{
closed = 1;
nodes = (
(213,0,l),
(302,500,l),
(385,0,l),
(500,0,l),
(575,730,l),
(496,730,l),
(446,190,ls),
(442,146,o),
(438,103,o),
(437,75,c),
(435,103,o),
(431,144,o),
(423,190,cs),
(354,590,l),
(252,590,l),
(176,190,ls),
(167,145,o),
(165,103,o),
(163,75,c),
(162,103,o),
(160,146,o),
(156,190,cs),
(108,730,l),
(25,730,l),
(98,0,l)
);
}
);
width = 600;
},
{
anchors = (
{
name = bottom;
pos = (300,0);
},
{
name = top;
pos = (300,730);
}
);
layerId = "EDF5EB54-295C-4C90-9A2F-67CD82979CFF";
shapes = (
{
closed = 1;
nodes = (
(190,0,l),
(303,530,l),
(407,0,l),
(479,0,l),
(560,730,l),
(509,730,l),
(457,190,ls),
(454,154,o),
(444,83,o),
(441,38,c),
(437,82,o),
(424,152,o),
(416,190,cs),
(334,575,l),
(272,575,l),
(187,190,ls),
(179,155,o),
(169,82,o),
(164,38,c),
(161,83,o),
(152,154,o),
(148,190,cs),
(90,730,l),
(40,730,l),
(122,0,l)
);
}
);
width = 600;
}
);
},
{
glyphname = K.cv08;
layers = (
{
anchors = (
{
name = bottom;
pos = (300,0);
},
{
name = top;
pos = (300,730);
}
);
layerId = "9ADF6715-3D0F-493D-8567-18A6FBCFC567";
shapes = (
{
closed = 1;
nodes = (
(575,0,l),
(385,384,l),
(565,730,l),
(402,730,l),
(226,380,l),
(407,0,l)
);
},
{
closed = 1;
nodes = (
(216,0,l),
(216,730,l),
(66,730,l),
(66,0,l)
);
}
);
width = 600;
},
{
anchors = (
{
name = bottom;
pos = (300,0);
},
{
name = top;
pos = (300,730);
}
);
layerId = "CCC0BD40-BA8C-414E-B576-CF0B94E6C996";
shapes = (
{
closed = 1;
nodes = (
(560,0,l),
(310,380,l),
(550,730,l),
(447,730,l),
(198,380,l),
(447,0,l)
);
},
{
closed = 1;
nodes = (
(183,0,l),
(183,730,l),
(93,730,l),
(93,0,l)
);
}
);
width = 600;
},
{
anchors = (
{
name = bottom;
pos = (300,0);
},
{
name = top;
pos = (300,730);
}
);
layerId = "EDF5EB54-295C-4C90-9A2F-67CD82979CFF";
shapes = (
{
closed = 1;
nodes = (
(540,0,l),
(235,382,l),
(524,730,l),
(463,730,l),
(172,381,l),
(476,0,l)
);
},
{
closed = 1;
nodes = (
(160,0,l),
(160,730,l),
(110,730,l),
(110,0,l)
);
}
);
width = 600;
}
);
},
{
glyphname = Q.cv16;
layers = (
{
anchors = (
{
name = bottom;
pos = (300,0);
},
{
name = top;
pos = (300,730);
}
);
layerId = "9ADF6715-3D0F-493D-8567-18A6FBCFC567";
shapes = (
{
closed = 1;
nodes = (
(530,-180,l),
(530,-65,l),
(400,-65,ls),
(372,-65,o),
(355,-50,o),
(355,-22,cs),
(355,71,l),
(225,71,l),
(225,-34,ls),
(225,-127,o),
(283,-180,o),
(385,-180,cs)
);
},
{
ref = O;
}
);
width = 600;
},
{
anchors = (
{
name = bottom;
pos = (300,0);
},
{
name = top;
pos = (300,730);
}
);
layerId = "CCC0BD40-BA8C-414E-B576-CF0B94E6C996";
shapes = (
{
closed = 1;
nodes = (
(505,-180,l),
(505,-98,l),
(395,-98,ls),
(359,-98,o),
(335,-73,o),
(335,-35,cs),
(335,48,l),
(245,48,l),
(245,-35,ls),
(245,-123,o),
(304,-180,o),
(395,-180,cs)
);
},
{
ref = O;
}
);
width = 600;
},
{
anchors = (
{
name = bottom;
pos = (300,0);
},
{
name = top;
pos = (300,730);
}
);
layerId = "EDF5EB54-295C-4C90-9A2F-67CD82979CFF";
shapes = (
{
closed = 1;
nodes = (
(490,-180,l),
(490,-135,l),
(400,-135,ls),
(348,-135,o),
(320,-107,o),
(320,-55,cs),
(320,25,l),
(270,25,l),
(270,-55,ls),
(270,-136,o),
(316,-180,o),
(400,-180,cs)
);
},
{
ref = O;
}
);
width = 600;
}
);
},
{
export = 0;
glyphname = A.half;
layers = (
{
layerId = "EDF5EB54-295C-4C90-9A2F-67CD82979CFF";
shapes = (
{
closed = 1;
nodes = (
(328,0,l),
(374,0,l),
(221,335,l),
(179,335,l),
(26,0,l),
(75,0,l),
(166,206,ls),
(186,252,o),
(195,276,o),
(200,297,c),
(205,276,o),
(215,251,o),
(235,206,cs)
);
},
{
closed = 1;
nodes = (
(95,75,l),
(303,75,l),
(303,114,l),
(95,114,l)
);
}
);
width = 400;
},
{
layerId = "9ADF6715-3D0F-493D-8567-18A6FBCFC567";
shapes = (
{
closed = 1;
nodes = (
(306,0,l),
(395,0,l),
(247,335,l),
(153,335,l),
(5,0,l),
(95,0,l),
(181,206,ls),
(191,231,o),
(196,252,o),
(199,270,c),
(202,252,o),
(206,232,o),
(217,206,cs)
);
},
{
closed = 1;
nodes = (
(105,60,l),
(293,60,l),
(293,134,l),
(105,134,l)
);
}
);
width = 600;
},
{
layerId = "CCC0BD40-BA8C-414E-B576-CF0B94E6C996";
shapes = (
{
closed = 1;
nodes = (
(316,0,l),
(385,0,l),
(237,335,l),
(163,335,l),
(15,0,l),
(85,0,l),
(171,206,ls),
(181,231,o),
(196,262,o),
(199,280,c),
(202,262,o),
(216,231,o),
(227,206,cs)
);
},
{
closed = 1;
nodes = (
(105,65,l),
(293,65,l),
(293,124,l),
(105,124,l)
);
}
);
width = 400;
}
);
},
{
export = 0;
glyphname = B.half;
layers = (
{
layerId = "9ADF6715-3D0F-493D-8567-18A6FBCFC567";
shapes = (
{
closed = 1;
nodes = (
(254,0,ls),
(323,0,o),
(380,38,o),
(380,93,cs),
(380,146,o),
(333,181,o),
(261,179,c),
(261,168,l),
(323,166,o),
(363,200,o),
(363,251,cs),
(363,301,o),
(307,335,o),
(239,335,cs),
(35,335,l),
(35,0,l)
);
},
{
closed = 1;
nodes = (
(121,137,l),
(241,137,ls),
(272,137,o),
(293,125,o),
(293,100,cs),
(293,75,o),
(272,66,o),
(241,66,cs),
(121,66,l)
);
},
{
closed = 1;
nodes = (
(121,269,l),
(231,269,ls),
(258,269,o),
(276,260,o),
(276,235,cs),
(276,210,o),
(257,199,o),
(230,199,cs),
(121,199,l)
);
}
);
width = 600;
},
{
layerId = "CCC0BD40-BA8C-414E-B576-CF0B94E6C996";
shapes = (
{
closed = 1;
nodes = (
(254,0,ls),
(323,0,o),
(370,38,o),
(370,93,cs),
(370,146,o),
(323,181,o),
(251,179,c),
(251,168,l),
(313,166,o),
(353,200,o),
(353,251,cs),
(353,301,o),
(307,335,o),
(239,335,cs),
(45,335,l),
(45,0,l)
);
},
{
closed = 1;
nodes = (
(111,144,l),
(251,144,ls),
(282,144,o),
(303,127,o),
(303,102,cs),
(303,77,o),
(282,58,o),
(251,58,cs),
(111,58,l)
);
},
{
closed = 1;
nodes = (
(111,277,l),
(241,277,ls),
(268,277,o),
(286,258,o),
(286,233,cs),
(286,208,o),
(267,191,o),
(240,191,cs),
(111,191,l)
);
}
);
width = 400;
},
{
layerId = "EDF5EB54-295C-4C90-9A2F-67CD82979CFF";
shapes = (
{
closed = 1;
nodes = (
(255,0,ls),
(315,0,o),
(356,38,o),
(356,93,cs),
(356,146,o),
(314,181,o),
(254,179,c),
(254,168,l),
(304,166,o),
(339,199,o),
(339,249,cs),
(339,300,o),
(299,335,o),
(240,335,cs),
(58,335,l),
(58,0,l)
);
},
{
closed = 1;
nodes = (
(104,148,l),
(252,148,ls),
(287,148,o),
(311,126,o),
(311,94,cs),
(311,61,o),
(287,39,o),
(252,39,cs),
(104,39,l)
);
},
{
closed = 1;
nodes = (
(104,296,l),
(242,296,ls),
(273,296,o),
(294,274,o),
(294,242,cs),
(294,209,o),
(272,187,o),
(241,187,cs),
(104,187,l)
);
}
);
width = 400;
}
);
},
{
export = 0;
glyphname = C.half;
layers = (
{
layerId = "9ADF6715-3D0F-493D-8567-18A6FBCFC567";
shapes = (
{
closed = 1;
nodes = (
(299,-5,o),
(359,45,o),
(378,118,c),
(290,118,l),
(279,91,o),
(246,73,o),
(207,73,cs),
(149,73,o),
(110,111,o),
(110,167,cs),
(110,223,o),
(149,262,o),
(207,262,cs),
(246,262,o),
(279,244,o),
(290,217,c),
(378,217,l),
(359,290,o),
(299,340,o),
(207,340,cs),
(97,340,o),
(22,270,o),
(22,167,cs),
(22,65,o),
(97,-5,o),
(207,-5,cs)
);
}
);
width = 600;
},
{
layerId = "EDF5EB54-295C-4C90-9A2F-67CD82979CFF";
shapes = (
{
closed = 1;
nodes = (
(287,-5,o),
(349,36,o),
(363,102,c),
(317,102,l),
(305,62,o),
(267,33,o),
(212,33,cs),
(143,33,o),
(92,88,o),
(92,167,cs),
(92,247,o),
(143,302,o),
(212,302,cs),
(267,302,o),
(305,273,o),
(317,233,c),
(363,233,l),
(349,299,o),
(287,340,o),
(212,340,cs),
(114,340,o),
(45,270,o),
(45,167,cs),
(45,65,o),
(114,-5,o),
(212,-5,cs)
);
}
);
width = 400;
},
{
layerId = "CCC0BD40-BA8C-414E-B576-CF0B94E6C996";
shapes = (
{
closed = 1;
nodes = (
(283,-5,o),
(349,41,o),
(370,107,c),
(302,107,l),
(287,75,o),
(248,53,o),
(207,53,cs),
(146,53,o),
(100,101,o),
(100,167,cs),
(100,233,o),
(146,282,o),
(207,282,cs),
(248,282,o),
(287,260,o),
(302,228,c),
(370,228,l),
(349,294,o),
(283,340,o),
(207,340,cs),
(107,340,o),
(32,266,o),
(32,167,cs),
(32,69,o),
(107,-5,o),
(207,-5,cs)
);
}
);
width = 400;
}
);
},
{
export = 0;
glyphname = D.half;
layers = (
{
layerId = "9ADF6715-3D0F-493D-8567-18A6FBCFC567";
shapes = (
{
closed = 1;
nodes = (
(195,0,ls),
(305,0,o),
(380,68,o),
(380,167,cs),
(380,267,o),
(305,335,o),
(195,335,cs),
(35,335,l),
(35,0,l)
);
},
{
closed = 1;
nodes = (
(121,257,l),
(195,257,ls),
(253,257,o),
(292,220,o),
(292,167,cs),
(292,114,o),
(253,77,o),
(195,77,cs),
(121,77,l)
);
}
);
width = 600;
},
{
layerId = "CCC0BD40-BA8C-414E-B576-CF0B94E6C996";
shapes = (
{
closed = 1;
nodes = (
(195,0,ls),
(295,0,o),
(370,69,o),
(370,167,cs),
(370,266,o),
(295,335,o),
(195,335,cs),
(45,335,l),
(45,0,l)
);
},
{
closed = 1;
nodes = (
(111,277,l),
(195,277,ls),
(255,277,o),
(302,232,o),
(302,167,cs),
(302,102,o),
(255,57,o),
(195,57,cs),
(111,57,l)
);
}
);
width = 400;
},
{
layerId = "EDF5EB54-295C-4C90-9A2F-67CD82979CFF";
shapes = (
{
closed = 1;
nodes = (
(189,0,ls),
(287,0,o),
(355,68,o),
(355,167,cs),
(355,267,o),
(287,335,o),
(189,335,cs),
(64,335,l),
(64,0,l)
);
},
{
closed = 1;
nodes = (
(110,297,l),
(189,297,ls),
(258,297,o),
(308,244,o),
(308,167,cs),
(308,90,o),
(258,38,o),
(189,38,cs),
(110,38,l)
);
}
);
width = 400;
}
);
},
{
export = 0;
glyphname = E.half;
layers = (
{
layerId = "9ADF6715-3D0F-493D-8567-18A6FBCFC567";
shapes = (
{
closed = 1;
nodes = (
(134,70,l),
(134,138,l),
(326,138,l),
(326,197,l),
(134,197,l),
(134,265,l),
(356,265,l),
(356,335,l),
(48,335,l),
(48,0,l),
(356,0,l),
(356,70,l)
);
}
);
width = 600;
},
{
layerId = "CCC0BD40-BA8C-414E-B576-CF0B94E6C996";
shapes = (
{
closed = 1;
nodes = (
(118,58,l),
(118,144,l),
(320,144,l),
(320,191,l),
(118,191,l),
(118,277,l),
(350,277,l),
(350,335,l),
(52,335,l),
(52,0,l),
(350,0,l),
(350,58,l)
);
}
);
width = 400;
},
{
layerId = "EDF5EB54-295C-4C90-9A2F-67CD82979CFF";
shapes = (
{
closed = 1;
nodes = (
(115,38,l),
(115,149,l),
(312,149,l),
(312,186,l),
(115,186,l),
(115,297,l),
(342,297,l),
(342,335,l),
(70,335,l),
(70,0,l),
(342,0,l),
(342,38,l)
);
}
);
width = 400;
}
);
},
{
export = 0;
glyphname = F.half;
layers = (
{
layerId = "9ADF6715-3D0F-493D-8567-18A6FBCFC567";
shapes = (
{
closed = 1;
nodes = (
(134,0,l),
(134,112,l),
(326,112,l),
(326,192,l),
(134,192,l),
(134,255,l),
(356,255,l),
(356,335,l),
(48,335,l),
(48,0,l)
);
}
);
width = 600;
},
{
layerId = "CCC0BD40-BA8C-414E-B576-CF0B94E6C996";
shapes = (
{
closed = 1;
nodes = (
(128,0,l),
(128,133,l),
(330,133,l),
(330,191,l),
(128,191,l),
(128,277,l),
(360,277,l),
(360,335,l),
(62,335,l),
(62,0,l)
);
}
);
width = 400;
},
{
layerId = "EDF5EB54-295C-4C90-9A2F-67CD82979CFF";
shapes = (
{
closed = 1;
nodes = (
(125,0,l),
(125,143,l),
(322,143,l),
(322,181,l),
(125,181,l),
(125,297,l),
(352,297,l),
(352,335,l),
(80,335,l),
(80,0,l)
);
}
);
width = 400;
}
);
},
{
export = 0;
glyphname = G.half;
layers = (
{
layerId = "9ADF6715-3D0F-493D-8567-18A6FBCFC567";
shapes = (
{
closed = 1;
nodes = (
(22,69,o),
(101,-5,o),
(207,-5,cs),
(308,-5,o),
(384,69,o),
(384,167,cs),
(384,181,l),
(207,181,l),
(207,114,l),
(289,114,l),
(274,87,o),
(241,73,o),
(207,73,cs),
(152,73,o),
(110,113,o),
(110,167,cs),
(110,221,o),
(152,262,o),
(207,262,cs),
(242,262,o),
(276,251,o),
(291,234,c),
(379,234,l),
(358,295,o),
(284,340,o),
(207,340,cs),
(101,340,o),
(22,266,o),
(22,167,cs)
);
}
);
width = 600;
},
{
layerId = "CCC0BD40-BA8C-414E-B576-CF0B94E6C996";
shapes = (
{
closed = 1;
nodes = (
(32,69,o),
(107,-5,o),
(207,-5,cs),
(302,-5,o),
(374,65,o),
(374,167,cs),
(374,181,l),
(207,181,l),
(207,124,l),
(306,124,l),
(289,72,o),
(250,53,o),
(207,53,cs),
(146,53,o),
(100,101,o),
(100,167,cs),
(100,233,o),
(146,282,o),
(207,282,cs),
(248,282,o),
(286,260,o),
(301,234,c),
(369,234,l),
(348,294,o),
(283,340,o),
(207,340,cs),
(107,340,o),
(32,266,o),
(32,167,cs)
);
}
);
width = 400;
},
{
layerId = "EDF5EB54-295C-4C90-9A2F-67CD82979CFF";
shapes = (
{
closed = 1;
nodes = (
(39,65,o),
(108,-5,o),
(206,-5,cs),
(300,-5,o),
(368,63,o),
(368,167,cs),
(368,181,l),
(206,181,l),
(206,143,l),
(320,143,l),
(314,76,o),
(268,33,o),
(206,33,cs),
(136,33,o),
(86,88,o),
(86,167,cs),
(86,247,o),
(136,302,o),
(206,302,cs),
(261,302,o),
(299,273,o),
(311,241,c),
(357,241,l),
(343,299,o),
(281,340,o),
(206,340,cs),
(108,340,o),
(39,270,o),
(39,167,cs)
);
}
);
width = 400;
}
);
},
{
export = 0;
glyphname = H.half;
layers = (
{
layerId = "9ADF6715-3D0F-493D-8567-18A6FBCFC567";
shapes = (
{
closed = 1;
nodes = (
(121,0,l),
(121,133,l),
(279,133,l),
(279,0,l),
(365,0,l),
(365,335,l),
(279,335,l),
(279,213,l),
(121,213,l),
(121,335,l),
(35,335,l),
(35,0,l)
);
}
);
width = 600;
},
{
layerId = "CCC0BD40-BA8C-414E-B576-CF0B94E6C996";
shapes = (
{
closed = 1;
nodes = (
(111,0,l),
(111,143,l),
(289,143,l),
(289,0,l),
(355,0,l),
(355,335,l),
(289,335,l),
(289,203,l),
(111,203,l),
(111,335,l),
(45,335,l),
(45,0,l)
);
}
);
width = 400;
},
{
layerId = "EDF5EB54-295C-4C90-9A2F-67CD82979CFF";
shapes = (
{
closed = 1;
nodes = (
(101,0,l),
(101,154,l),
(299,154,l),
(299,0,l),
(345,0,l),
(345,335,l),
(299,335,l),
(299,192,l),
(101,192,l),
(101,335,l),
(55,335,l),
(55,0,l)
);
}
);
width = 400;
}
);
},
{
export = 0;
glyphname = I.half;
layers = (
{
layerId = "9ADF6715-3D0F-493D-8567-18A6FBCFC567";
shapes = (
{
closed = 1;
nodes = (
(358,0,l),
(358,78,l),
(243,78,l),
(243,257,l),
(358,257,l),
(358,335,l),
(42,335,l),
(42,257,l),
(157,257,l),
(157,78,l),
(42,78,l),
(42,0,l)
);
}
);
width = 600;
},
{
layerId = "CCC0BD40-BA8C-414E-B576-CF0B94E6C996";
shapes = (
{
closed = 1;
nodes = (
(358,0,l),
(358,60,l),
(233,60,l),
(233,275,l),
(358,275,l),
(358,335,l),
(42,335,l),
(42,275,l),
(167,275,l),
(167,60,l),
(42,60,l),
(42,0,l)
);
}
);
width = 400;
},
{
layerId = "EDF5EB54-295C-4C90-9A2F-67CD82979CFF";
shapes = (
{
closed = 1;
nodes = (
(348,0,l),
(348,38,l),
(223,38,l),
(223,297,l),
(348,297,l),
(348,335,l),
(52,335,l),
(52,297,l),
(177,297,l),
(177,38,l),
(52,38,l),
(52,0,l)
);
}
);
width = 400;
}
);
},
{
export = 0;
glyphname = K.half;
layers = (
{
layerId = "9ADF6715-3D0F-493D-8567-18A6FBCFC567";
shapes = (
{
closed = 1;
nodes = (
(121,0,l),
(121,133,l),
(185,133,l),
(282,0,l),
(380,0,l),
(254,176,l),
(370,335,l),
(276,335,l),
(185,211,l),
(121,211,l),
(121,335,l),
(35,335,l),
(35,0,l)
);
}
);
width = 600;
},
{
layerId = "CCC0BD40-BA8C-414E-B576-CF0B94E6C996";
shapes = (
{
closed = 1;
nodes = (
(111,0,l),
(111,143,l),
(190,143,l),
(292,0,l),
(370,0,l),
(247,174,l),
(360,335,l),
(286,335,l),
(190,201,l),
(111,201,l),
(111,335,l),
(45,335,l),
(45,0,l)
);
}
);
width = 400;
},
{
layerId = "EDF5EB54-295C-4C90-9A2F-67CD82979CFF";
shapes = (
{
closed = 1;
nodes = (
(101,0,l),
(101,153,l),
(189,153,l),
(303,0,l),
(360,0,l),
(231,174,l),
(350,335,l),
(298,335,l),
(190,191,l),
(101,191,l),
(101,335,l),
(55,335,l),
(55,0,l)
);
}
);
width = 400;
}
);
},
{
export = 0;
glyphname = L.half;
layers = (
{
anchors = (
{
name = topright;
pos = (580,730);
}
);
layerId = "9ADF6715-3D0F-493D-8567-18A6FBCFC567";
shapes = (
{
closed = 1;
nodes = (
(370,0,l),
(370,80,l),
(158,80,l),
(158,335,l),
(72,335,l),
(72,0,l)
);
}
);
width = 600;
},
{
anchors = (
{
name = topright;
pos = (580,730);
}
);
layerId = "CCC0BD40-BA8C-414E-B576-CF0B94E6C996";
shapes = (
{
closed = 1;
nodes = (
(370,0,l),
(370,60,l),
(148,60,l),
(148,335,l),
(82,335,l),
(82,0,l)
);
}
);
width = 400;
},
{
anchors = (
{
name = topright;
pos = (580,730);
}
);
layerId = "EDF5EB54-295C-4C90-9A2F-67CD82979CFF";
shapes = (
{
closed = 1;
nodes = (
(360,0,l),
(360,40,l),
(138,40,l),
(138,335,l),
(92,335,l),
(92,0,l)
);
}
);
width = 400;
}
);
},
{
export = 0;
glyphname = M.half;
layers = (
{
layerId = "CCC0BD40-BA8C-414E-B576-CF0B94E6C996";
shapes = (
{
closed = 1;
nodes = (
(95,0,l),
(95,95,ls),
(95,198,o),
(89,244,o),
(79,295,c),
(167,96,l),
(234,96,l),
(320,298,l),
(306,247,o),
(306,185,o),
(306,95,cs),
(306,0,l),
(370,0,l),
(370,335,l),
(280,335,l),
(227,213,ls),
(213,181,o),
(206,169,o),
(201,146,c),
(196,169,o),
(189,182,o),
(176,212,cs),
(121,335,l),
(30,335,l),
(30,0,l)
);
}
);
width = 400;
},
{
layerId = "EDF5EB54-295C-4C90-9A2F-67CD82979CFF";
shapes = (
{
closed = 1;
nodes = (
(85,0,l),
(85,95,ls),
(85,198,o),
(85,252,o),
(74,303,c),
(180,96,l),
(219,96,l),
(326,306,l),
(316,255,o),
(316,185,o),
(316,95,cs),
(316,0,l),
(360,0,l),
(360,335,l),
(300,335,l),
(222,183,ls),
(206,153,o),
(204,144,o),
(200,131,c),
(196,144,o),
(193,153,o),
(178,182,cs),
(101,335,l),
(40,335,l),
(40,0,l)
);
}
);
width = 400;
},
{
layerId = "9ADF6715-3D0F-493D-8567-18A6FBCFC567";
shapes = (
{
closed = 1;
nodes = (
(100,0,l),
(100,95,ls),
(100,198,o),
(100,235,o),
(90,286,c),
(158,96,l),
(244,96,l),
(309,289,l),
(300,238,o),
(300,185,o),
(300,95,cs),
(300,0,l),
(380,0,l),
(380,335,l),
(257,335,l),
(216,213,ls),
(205,180,o),
(204,169,o),
(202,153,c),
(200,169,o),
(198,180,o),
(187,212,cs),
(144,335,l),
(20,335,l),
(20,0,l)
);
}
);
width = 600;
}
);
},
{
export = 0;
glyphname = N.half;
layers = (
{
layerId = "9ADF6715-3D0F-493D-8567-18A6FBCFC567";
shapes = (
{
closed = 1;
nodes = (
(120,0,l),
(120,115,ls),
(120,188,o),
(115,204,o),
(105,255,c),
(255,0,l),
(365,0,l),
(365,335,l),
(280,335,l),
(280,230,ls),
(280,157,o),
(285,130,o),
(295,80,c),
(146,335,l),
(35,335,l),
(35,0,l)
);
}
);
width = 600;
},
{
layerId = "CCC0BD40-BA8C-414E-B576-CF0B94E6C996";
shapes = (
{
closed = 1;
nodes = (
(110,0,l),
(110,105,ls),
(110,195,o),
(108,209,o),
(97,265,c),
(275,0,l),
(355,0,l),
(355,335,l),
(290,335,l),
(290,230,ls),
(290,141,o),
(292,129,o),
(303,70,c),
(125,335,l),
(45,335,l),
(45,0,l)
);
}
);
width = 400;
},
{
layerId = "EDF5EB54-295C-4C90-9A2F-67CD82979CFF";
shapes = (
{
closed = 1;
nodes = (
(100,0,l),
(100,115,ls),
(100,218,o),
(100,244,o),
(89,295,c),
(290,0,l),
(345,0,l),
(345,335,l),
(300,335,l),
(300,230,ls),
(300,127,o),
(300,90,o),
(311,40,c),
(110,335,l),
(55,335,l),
(55,0,l)
);
}
);
width = 400;
}
);
},
{
export = 0;
glyphname = O.half;
layers = (
{
layerId = "EDF5EB54-295C-4C90-9A2F-67CD82979CFF";
shapes = (
{
closed = 1;
nodes = (
(295,-5,o),
(367,69,o),
(367,167,cs),
(367,266,o),
(295,340,o),
(200,340,cs),
(105,340,o),
(33,266,o),
(33,167,cs),
(33,69,o),
(105,-5,o),
(200,-5,cs)
);
},
{
closed = 1;
nodes = (
(131,33,o),
(80,90,o),
(80,167,cs),
(80,244,o),
(131,302,o),
(200,302,cs),
(269,302,o),
(320,244,o),
(320,167,cs),
(320,90,o),
(269,33,o),
(200,33,cs)
);
}
);
width = 400;
},
{
layerId = "CCC0BD40-BA8C-414E-B576-CF0B94E6C996";
shapes = (
{
closed = 1;
nodes = (
(300,-5,o),
(375,69,o),
(375,167,cs),
(375,266,o),
(300,340,o),
(200,340,cs),
(100,340,o),
(25,266,o),
(25,167,cs),
(25,69,o),
(100,-5,o),
(200,-5,cs)
);
},
{
closed = 1;
nodes = (
(140,53,o),
(93,102,o),
(93,167,cs),
(93,232,o),
(140,282,o),
(200,282,cs),
(260,282,o),
(307,232,o),
(307,167,cs),
(307,102,o),
(260,53,o),
(200,53,cs)
);
}
);
width = 400;
},
{
layerId = "9ADF6715-3D0F-493D-8567-18A6FBCFC567";
shapes = (
{
closed = 1;
nodes = (
(305,-5,o),
(383,69,o),
(383,167,cs),
(383,266,o),
(305,340,o),
(200,340,cs),
(95,340,o),
(16,266,o),
(16,167,cs),
(16,69,o),
(95,-5,o),
(200,-5,cs)
);
},
{
closed = 1;
nodes = (
(145,73,o),
(104,113,o),
(104,167,cs),
(104,221,o),
(145,262,o),
(200,262,cs),
(254,262,o),
(295,221,o),
(295,167,cs),
(295,113,o),
(254,73,o),
(200,73,cs)
);
}
);
width = 600;
}
);
},
{
export = 0;
glyphname = P.half;
layers = (
{
layerId = "9ADF6715-3D0F-493D-8567-18A6FBCFC567";
shapes = (
{
closed = 1;
nodes = (
(131,0,l),
(131,107,l),
(236,107,ls),
(321,107,o),
(380,153,o),
(380,220,cs),
(380,288,o),
(321,335,o),
(236,335,cs),
(45,335,l),
(45,0,l)
);
},
{
closed = 1;
nodes = (
(131,267,l),
(238,267,ls),
(271,267,o),
(293,248,o),
(293,220,cs),
(293,193,o),
(270,175,o),
(237,175,cs),
(131,175,l)
);
}
);
width = 600;
},
{
layerId = "CCC0BD40-BA8C-414E-B576-CF0B94E6C996";
shapes = (
{
closed = 1;
nodes = (
(121,0,l),
(121,117,l),
(246,117,ls),
(320,117,o),
(370,163,o),
(370,225,cs),
(370,288,o),
(320,335,o),
(246,335,cs),
(55,335,l),
(55,0,l)
);
},
{
closed = 1;
nodes = (
(121,277,l),
(248,277,ls),
(281,277,o),
(303,254,o),
(303,225,cs),
(303,197,o),
(280,175,o),
(247,175,cs),
(121,175,l)
);
}
);
width = 400;
},
{
layerId = "EDF5EB54-295C-4C90-9A2F-67CD82979CFF";
shapes = (
{
closed = 1;
nodes = (
(111,0,l),
(111,127,l),
(246,127,ls),
(314,127,o),
(360,169,o),
(360,230,cs),
(360,292,o),
(314,335,o),
(246,335,cs),
(65,335,l),
(65,0,l)
);
},
{
closed = 1;
nodes = (
(111,297,l),
(248,297,ls),
(287,297,o),
(313,270,o),
(313,230,cs),
(313,191,o),
(286,165,o),
(247,165,cs),
(111,165,l)
);
}
);
width = 400;
}
);
},
{
export = 0;
glyphname = Q.half;
layers = (
{
layerId = "9ADF6715-3D0F-493D-8567-18A6FBCFC567";
shapes = (
{
closed = 1;
nodes = (
(229,-5,o),
(267,5,o),
(290,18,c),
(256,89,l),
(241,80,o),
(217,73,o),
(200,73,cs),
(145,73,o),
(104,113,o),
(104,167,cs),
(104,221,o),
(145,261,o),
(200,261,cs),
(255,261,o),
(296,221,o),
(296,167,cs),
(296,156,o),
(293,143,o),
(289,134,c),
(348,63,l),
(369,91,o),
(384,136,o),
(384,167,cs),
(384,266,o),
(305,340,o),
(200,340,cs),
(95,340,o),
(16,266,o),
(16,167,cs),
(16,69,o),
(95,-5,o),
(200,-5,cs)
);
},
{
closed = 1;
nodes = (
(392,-58,l),
(250,125,l),
(155,125,l),
(297,-58,l)
);
}
);
width = 600;
},
{
layerId = "CCC0BD40-BA8C-414E-B576-CF0B94E6C996";
shapes = (
{
closed = 1;
nodes = (
(233,-5,o),
(264,3,o),
(290,18,c),
(256,69,l),
(240,59,o),
(221,53,o),
(200,53,cs),
(140,53,o),
(93,102,o),
(93,167,cs),
(93,232,o),
(140,281,o),
(200,281,cs),
(260,281,o),
(307,232,o),
(307,167,cs),
(307,149,o),
(303,132,o),
(297,117,c),
(342,63,l),
(363,92,o),
(375,128,o),
(375,167,cs),
(375,266,o),
(300,340,o),
(200,340,cs),
(100,340,o),
(25,266,o),
(25,167,cs),
(25,69,o),
(100,-5,o),
(200,-5,cs)
);
},
{
closed = 1;
nodes = (
(382,-58,l),
(240,125,l),
(165,125,l),
(307,-58,l)
);
}
);
width = 400;
},
{
layerId = "EDF5EB54-295C-4C90-9A2F-67CD82979CFF";
shapes = (
{
closed = 1;
nodes = (
(232,-5,o),
(261,2,o),
(285,16,c),
(258,48,l),
(241,38,o),
(221,33,o),
(200,33,cs),
(131,33,o),
(80,88,o),
(80,167,cs),
(80,246,o),
(131,302,o),
(200,302,cs),
(269,302,o),
(320,246,o),
(320,167,cs),
(320,137,o),
(312,109,o),
(304,97,c),
(336,62,l),
(355,89,o),
(367,128,o),
(367,167,cs),
(367,270,o),
(298,340,o),
(200,340,cs),
(102,340,o),
(33,270,o),
(33,167,cs),
(33,65,o),
(102,-5,o),
(200,-5,cs)
);
},
{
closed = 1;
nodes = (
(381,-58,l),
(232,125,l),
(180,125,l),
(332,-58,l)
);
}
);
width = 400;
}
);
},
{
export = 0;
glyphname = R.half;
layers = (
{
layerId = "9ADF6715-3D0F-493D-8567-18A6FBCFC567";
shapes = (
{
closed = 1;
nodes = (
(131,0,l),
(131,107,l),
(236,107,ls),
(321,107,o),
(380,153,o),
(380,220,cs),
(380,288,o),
(321,335,o),
(236,335,cs),
(45,335,l),
(45,0,l)
);
},
{
closed = 1;
nodes = (
(385,0,l),
(274,141,l),
(176,141,l),
(285,0,l)
);
},
{
closed = 1;
nodes = (
(131,267,l),
(238,267,ls),
(271,267,o),
(293,248,o),
(293,220,cs),
(293,193,o),
(270,175,o),
(237,175,cs),
(131,175,l)
);
}
);
width = 600;
},
{
layerId = "CCC0BD40-BA8C-414E-B576-CF0B94E6C996";
shapes = (
{
closed = 1;
nodes = (
(111,0,l),
(111,129,l),
(243,129,ls),
(317,129,o),
(367,165,o),
(367,227,cs),
(367,290,o),
(317,335,o),
(243,335,cs),
(45,335,l),
(45,0,l)
);
},
{
closed = 1;
nodes = (
(375,0,l),
(264,141,l),
(186,141,l),
(295,0,l)
);
},
{
closed = 1;
nodes = (
(111,277,l),
(245,277,ls),
(278,277,o),
(300,256,o),
(300,227,cs),
(300,199,o),
(277,179,o),
(244,179,cs),
(111,179,l)
);
}
);
width = 400;
},
{
layerId = "EDF5EB54-295C-4C90-9A2F-67CD82979CFF";
shapes = (
{
closed = 1;
nodes = (
(101,0,l),
(101,127,l),
(236,127,ls),
(304,127,o),
(350,169,o),
(350,230,cs),
(350,292,o),
(304,335,o),
(236,335,cs),
(55,335,l),
(55,0,l)
);
},
{
closed = 1;
nodes = (
(362,0,l),
(251,141,l),
(195,141,l),
(305,0,l)
);
},
{
closed = 1;
nodes = (
(101,297,l),
(238,297,ls),
(277,297,o),
(303,270,o),
(303,230,cs),
(303,191,o),
(276,165,o),
(237,165,cs),
(101,165,l)
);
}
);
width = 400;
}
);
},
{
export = 0;
glyphname = S.half;
layers = (
{
layerId = "9ADF6715-3D0F-493D-8567-18A6FBCFC567";
shapes = (
{
closed = 1;
nodes = (
(234,-3,ls),
(317,-3,o),
(369,37,o),
(369,102,cs),
(369,159,o),
(323,200,o),
(249,208,cs),
(158,218,ls),
(136,220,o),
(122,229,o),
(122,241,cs),
(122,256,o),
(137,268,o),
(160,268,cs),
(230,268,ls),
(257,268,o),
(276,257,o),
(278,244,c),
(364,244,l),
(355,302,o),
(303,338,o),
(230,338,cs),
(160,338,ls),
(84,338,o),
(36,301,o),
(36,241,cs),
(36,187,o),
(81,147,o),
(152,139,cs),
(240,129,ls),
(266,126,o),
(283,114,o),
(283,98,cs),
(283,81,o),
(264,67,o),
(234,67,cs),
(166,67,ls),
(135,67,o),
(115,83,o),
(113,103,c),
(27,103,l),
(34,37,o),
(88,-3,o),
(166,-3,cs)
);
}
);
width = 600;
},
{
layerId = "CCC0BD40-BA8C-414E-B576-CF0B94E6C996";
shapes = (
{
closed = 1;
nodes = (
(213,-4,ls),
(303,-4,o),
(359,37,o),
(359,102,cs),
(359,153,o),
(317,190,o),
(249,198,cs),
(161,208,ls),
(131,211,o),
(112,225,o),
(112,245,cs),
(112,267,o),
(139,281,o),
(183,281,cs),
(208,281,ls),
(252,281,o),
(283,267,o),
(288,244,c),
(354,244,l),
(345,302,o),
(289,339,o),
(208,339,cs),
(183,339,ls),
(99,339,o),
(46,301,o),
(46,241,cs),
(46,191,o),
(87,156,o),
(152,149,cs),
(240,139,ls),
(273,135,o),
(293,119,o),
(293,98,cs),
(293,71,o),
(262,54,o),
(213,54,cs),
(188,54,ls),
(140,54,o),
(107,73,o),
(103,103,c),
(37,103,l),
(44,37,o),
(102,-4,o),
(188,-4,cs)
);
}
);
width = 400;
},
{
layerId = "EDF5EB54-295C-4C90-9A2F-67CD82979CFF";
shapes = (
{
closed = 1;
nodes = (
(203,-4,ls),
(293,-4,o),
(349,36,o),
(349,99,cs),
(349,147,o),
(310,181,o),
(249,188,cs),
(161,198,ls),
(125,202,o),
(102,220,o),
(102,245,cs),
(102,279,o),
(137,301,o),
(193,301,cs),
(203,301,ls),
(255,301,o),
(293,278,o),
(298,244,c),
(344,244,l),
(337,302,o),
(283,339,o),
(203,339,cs),
(193,339,ls),
(109,339,o),
(56,302,o),
(56,243,cs),
(56,198,o),
(93,166,o),
(152,159,cs),
(240,149,ls),
(279,145,o),
(303,125,o),
(303,96,cs),
(303,58,o),
(264,34,o),
(203,34,cs),
(194,34,ls),
(137,34,o),
(98,61,o),
(93,103,c),
(47,103,l),
(52,37,o),
(109,-4,o),
(194,-4,cs)
);
}
);
width = 400;
}
);
},
{
export = 0;
glyphname = T.half;
layers = (
{
layerId = "9ADF6715-3D0F-493D-8567-18A6FBCFC567";
shapes = (
{
closed = 1;
nodes = (
(243,0,l),
(243,255,l),
(385,255,l),
(385,335,l),
(15,335,l),
(15,255,l),
(157,255,l),
(157,0,l)
);
}
);
width = 600;
},
{
layerId = "CCC0BD40-BA8C-414E-B576-CF0B94E6C996";
shapes = (
{
closed = 1;
nodes = (
(233,0,l),
(233,275,l),
(385,275,l),
(385,335,l),
(15,335,l),
(15,275,l),
(167,275,l),
(167,0,l)
);
}
);
width = 400;
},
{
layerId = "EDF5EB54-295C-4C90-9A2F-67CD82979CFF";
shapes = (
{
closed = 1;
nodes = (
(223,0,l),
(223,297,l),
(375,297,l),
(375,335,l),
(25,335,l),
(25,297,l),
(177,297,l),
(177,0,l)
);
}
);
width = 400;
}
);
},
{
export = 0;
glyphname = U.half;
layers = (
{
layerId = "9ADF6715-3D0F-493D-8567-18A6FBCFC567";
shapes = (
{
closed = 1;
nodes = (
(298,-10,o),
(365,53,o),
(365,144,cs),
(365,335,l),
(279,335,l),
(279,144,ls),
(279,100,o),
(247,70,o),
(200,70,cs),
(153,70,o),
(121,100,o),
(121,144,cs),
(121,335,l),
(35,335,l),
(35,144,ls),
(35,53,o),
(102,-10,o),
(200,-10,cs)
);
}
);
width = 600;
},
{
layerId = "CCC0BD40-BA8C-414E-B576-CF0B94E6C996";
shapes = (
{
closed = 1;
nodes = (
(292,-10,o),
(355,49,o),
(355,144,cs),
(355,335,l),
(289,335,l),
(289,144,ls),
(289,85,o),
(253,50,o),
(200,50,cs),
(147,50,o),
(111,85,o),
(111,144,cs),
(111,335,l),
(45,335,l),
(45,144,ls),
(45,49,o),
(108,-10,o),
(200,-10,cs)
);
}
);
width = 400;
},
{
layerId = "EDF5EB54-295C-4C90-9A2F-67CD82979CFF";
shapes = (
{
closed = 1;
nodes = (
(286,-10,o),
(345,49,o),
(345,134,cs),
(345,335,l),
(299,335,l),
(299,134,ls),
(299,72,o),
(259,30,o),
(200,30,cs),
(141,30,o),
(101,72,o),
(101,134,cs),
(101,335,l),
(55,335,l),
(55,134,ls),
(55,49,o),
(114,-10,o),
(200,-10,cs)
);
}
);
width = 400;
}
);
},
{
export = 0;
glyphname = V.half;
layers = (
{
layerId = "9ADF6715-3D0F-493D-8567-18A6FBCFC567";
shapes = (
{
closed = 1;
nodes = (
(94,335,l),
(5,335,l),
(153,0,l),
(247,0,l),
(395,335,l),
(305,335,l),
(219,129,ls),
(209,104,o),
(204,83,o),
(201,65,c),
(198,83,o),
(194,103,o),
(183,129,cs)
);
}
);
width = 600;
},
{
layerId = "CCC0BD40-BA8C-414E-B576-CF0B94E6C996";
shapes = (
{
closed = 1;
nodes = (
(84,335,l),
(15,335,l),
(163,0,l),
(237,0,l),
(385,335,l),
(313,335,l),
(226,129,ls),
(216,104,o),
(204,73,o),
(201,55,c),
(198,73,o),
(184,104,o),
(173,129,cs)
);
}
);
width = 400;
},
{
layerId = "EDF5EB54-295C-4C90-9A2F-67CD82979CFF";
shapes = (
{
closed = 1;
nodes = (
(72,335,l),
(26,335,l),
(179,0,l),
(221,0,l),
(374,335,l),
(325,335,l),
(234,129,ls),
(214,83,o),
(205,59,o),
(200,38,c),
(195,59,o),
(185,84,o),
(165,129,cs)
);
}
);
width = 400;
}
);
},
{
export = 0;
glyphname = X.half;
layers = (
{
layerId = "9ADF6715-3D0F-493D-8567-18A6FBCFC567";
shapes = (
{
closed = 1;
nodes = (
(120,0,l),
(186,86,ls),
(192,94,o),
(195,109,o),
(196,122,c),
(197,111,o),
(205,95,o),
(213,85,cs),
(278,0,l),
(380,0,l),
(246,167,l),
(380,335,l),
(280,335,l),
(216,249,ls),
(209,239,o),
(206,225,o),
(205,214,c),
(203,225,o),
(195,240,o),
(188,249,cs),
(122,335,l),
(21,335,l),
(155,169,l),
(20,0,l)
);
}
);
width = 600;
},
{
layerId = "CCC0BD40-BA8C-414E-B576-CF0B94E6C996";
shapes = (
{
closed = 1;
nodes = (
(107,0,l),
(173,86,ls),
(190,108,o),
(190,123,o),
(197,141,c),
(205,123,o),
(209,107,o),
(226,85,cs),
(291,0,l),
(370,0,l),
(245,167,l),
(370,335,l),
(293,335,l),
(229,249,ls),
(213,227,o),
(209,214,o),
(203,195,c),
(193,213,o),
(192,227,o),
(175,249,cs),
(109,335,l),
(31,335,l),
(156,169,l),
(30,0,l)
);
}
);
width = 400;
},
{
layerId = "EDF5EB54-295C-4C90-9A2F-67CD82979CFF";
shapes = (
{
closed = 1;
nodes = (
(97,0,l),
(161,88,ls),
(177,110,o),
(188,126,o),
(198,143,c),
(209,126,o),
(219,111,o),
(238,85,cs),
(302,0,l),
(360,0,l),
(233,168,l),
(360,335,l),
(303,335,l),
(238,247,ls),
(222,225,o),
(208,207,o),
(202,195,c),
(197,205,o),
(180,227,o),
(163,249,cs),
(98,335,l),
(41,335,l),
(168,169,l),
(40,0,l)
);
}
);
width = 400;
}
);
},
{
glyphname = a;
layers = (
{
anchors = (
{
name = bottom;
pos = (305,0);
},
{
name = ogonek;
pos = (460,0);
},
{
name = top;
pos = (305,550);
}
);
layerId = "EDF5EB54-295C-4C90-9A2F-67CD82979CFF";
shapes = (
{
closed = 1;
nodes = (
(374,-10,o),
(449,52,o),
(449,142,c),
(431,112,l),
(440,112,l),
(440,0,l),
(490,0,l),
(490,375,ls),
(490,494,o),
(424,560,o),
(305,560,cs),
(191,560,o),
(116,500,o),
(111,410,c),
(161,410,l),
(165,473,o),
(220,515,o),
(304,515,cs),
(391,515,o),
(440,465,o),
(440,375,cs),
(440,320,l),
(253,320,ls),
(152,320,o),
(84,253,o),
(84,159,cs),
(84,60,o),
(153,-10,o),
(266,-10,cs)
);
},
{
closed = 1;
nodes = (
(190,35,o),
(134,87,o),
(134,163,cs),
(134,228,o),
(182,276,o),
(252,276,cs),
(440,276,l),
(440,177,ls),
(440,89,o),
(378,35,o),
(280,35,cs)
);
}
);
width = 600;
},
{
anchors = (
{
name = bottom;
pos = (305,0);
},
{
name = ogonek;
pos = (465,0);
},
{
name = top;
pos = (305,550);
}
);
layerId = "CCC0BD40-BA8C-414E-B576-CF0B94E6C996";
shapes = (
{
closed = 1;
nodes = (
(355,-10,o),
(418,40,o),
(418,120,c),
(404,100,l),
(419,100,l),
(419,0,l),
(508,0,l),
(508,378,ls),
(508,493,o),
(434,560,o),
(301,560,cs),
(178,560,o),
(100,496,o),
(93,410,c),
(183,410,l),
(186,455,o),
(231,482,o),
(301,482,cs),
(380,482,o),
(418,447,o),
(418,375,cs),
(418,332,l),
(248,332,ls),
(141,332,o),
(67,263,o),
(67,162,cs),
(67,59,o),
(138,-10,o),
(252,-10,cs)
);
},
{
closed = 1;
nodes = (
(202,66,o),
(159,104,o),
(159,165,cs),
(159,223,o),
(199,262,o),
(258,262,cs),
(418,262,l),
(418,185,ls),
(418,112,o),
(362,66,o),
(274,66,cs)
);
}
);
width = 600;
},
{
anchors = (
{
name = bottom;
pos = (305,0);
},
{
name = ogonek;
pos = (440,0);
},
{
name = top;
pos = (305,550);
}
);
layerId = "9ADF6715-3D0F-493D-8567-18A6FBCFC567";
shapes = (
{
closed = 1;
nodes = (
(329,-10,o),
(392,42,o),
(392,125,c),
(365,109,l),
(389,109,l),
(389,0,l),
(534,0,l),
(534,370,ls),
(534,490,o),
(448,560,o),
(303,560,cs),
(164,560,o),
(78,491,o),
(74,383,c),
(216,383,l),
(219,422,o),
(250,442,o),
(301,442,cs),
(354,442,o),
(384,417,o),
(384,376,cs),
(384,341,l),
(276,341,ls),
(133,341,o),
(51,273,o),
(51,162,cs),
(51,59,o),
(120,-10,o),
(229,-10,cs)
);
},
{
closed = 1;
nodes = (
(227,110,o),
(196,139,o),
(196,181,cs),
(196,222,o),
(226,251,o),
(279,251,cs),
(384,251,l),
(384,195,ls),
(384,144,o),
(345,110,o),
(282,110,cs)
);
}
);
width = 600;
}
);
unicode = 97;
},
{
glyphname = aogonek;
layers = (
{
layerId = "EDF5EB54-295C-4C90-9A2F-67CD82979CFF";
shapes = (
{
closed = 1;
nodes = (
(546,-195,l),
(546,-153,l),
(482,-153,ls),
(450,-153,o),
(431,-134,o),
(431,-103,cs),
(431,-75,o),
(454,-36,o),
(492,0,c),
(466,10,l),
(415,-27,o),
(384,-74,o),
(384,-115,cs),
(384,-165,o),
(418,-195,o),
(473,-195,c)
);
},
{
ref = a;
}
);
width = 600;
},
{
layerId = "CCC0BD40-BA8C-414E-B576-CF0B94E6C996";
shapes = (
{
closed = 1;
nodes = (
(561,-203,l),
(561,-143,l),
(501,-143,ls),
(467,-143,o),
(446,-122,o),
(446,-93,cs),
(446,-65,o),
(465,-37,o),
(510,0,c),
(446,10,l),
(383,-34,o),
(361,-72,o),
(361,-110,cs),
(361,-164,o),
(409,-203,o),
(483,-203,cs)
);
},
{
ref = a;
}
);
width = 600;
},
{
layerId = "9ADF6715-3D0F-493D-8567-18A6FBCFC567";
shapes = (
{
closed = 1;
nodes = (
(590,-225,l),
(590,-120,l),
(521,-120,ls),
(492,-120,o),
(475,-103,o),
(475,-83,cs),
(475,-66,o),
(490,-42,o),
(536,0,c),
(462,11,l),
(394,-19,o),
(351,-68,o),
(351,-115,cs),
(351,-180,o),
(401,-225,o),
(482,-225,cs)
);
},
{
ref = a;
}
);
width = 600;
}
);
unicode = 261;
},
{
glyphname = ae;
layers = (
{
anchors = (
{
name = top;
pos = (300,550);
}
);
layerId = "9ADF6715-3D0F-493D-8567-18A6FBCFC567";
shapes = (
{
closed = 1;
nodes = (
(244,-10,o),
(294,25,o),
(301,81,c),
(308,25,o),
(361,-10,o),
(424,-10,cs),
(511,-10,o),
(570,55,o),
(570,150,c),
(451,150,l),
(451,111,o),
(434,87,o),
(406,87,cs),
(378,87,o),
(361,111,o),
(361,150,cs),
(361,250,l),
(570,250,l),
(570,400,ls),
(570,495,o),
(508,560,o),
(421,560,cs),
(358,560,o),
(308,525,o),
(301,468,c),
(294,525,o),
(245,560,o),
(181,560,cs),
(94,560,o),
(34,495,o),
(34,400,c),
(153,400,l),
(153,439,o),
(170,463,o),
(198,463,cs),
(226,463,o),
(243,439,o),
(243,400,cs),
(243,330,l),
(198,330,ls),
(97,330,o),
(28,260,o),
(28,159,cs),
(28,59,o),
(89,-10,o),
(178,-10,cs)
);
},
{
closed = 1;
nodes = (
(165,87,o),
(147,120,o),
(147,168,cs),
(147,217,o),
(165,250,o),
(198,250,cs),
(243,250,l),
(243,150,ls),
(243,111,o),
(225,87,o),
(197,87,cs)
);
},
{
closed = 1;
nodes = (
(361,400,ls),
(361,439,o),
(379,463,o),
(406,463,cs),
(434,463,o),
(451,439,o),
(451,400,cs),
(451,330,l),
(361,330,l)
);
}
);
width = 600;
},
{
anchors = (
{
name = top;
pos = (300,550);
}
);
layerId = "CCC0BD40-BA8C-414E-B576-CF0B94E6C996";
shapes = (
{
closed = 1;
nodes = (
(242,-10,o),
(293,27,o),
(304,80,c),
(315,27,o),
(362,-10,o),
(420,-10,cs),
(506,-10,o),
(565,50,o),
(565,137,c),
(481,137,l),
(481,94,o),
(454,65,o),
(412,65,cs),
(369,65,o),
(343,96,o),
(343,150,cs),
(343,256,l),
(565,256,l),
(565,400,ls),
(565,495,o),
(506,560,o),
(420,560,cs),
(358,560,o),
(311,524,o),
(304,471,c),
(297,524,o),
(247,560,o),
(182,560,cs),
(102,560,o),
(47,501,o),
(47,414,c),
(126,414,l),
(126,456,o),
(154,485,o),
(195,485,cs),
(238,485,o),
(263,454,o),
(263,399,cs),
(263,324,l),
(182,324,ls),
(92,324,o),
(31,257,o),
(31,159,cs),
(31,59,o),
(91,-10,o),
(178,-10,cs)
);
},
{
closed = 1;
nodes = (
(144,65,o),
(115,102,o),
(115,160,cs),
(115,219,o),
(142,256,o),
(184,256,cs),
(263,256,l),
(263,150,ls),
(263,98,o),
(235,65,o),
(191,65,cs)
);
},
{
closed = 1;
nodes = (
(343,400,ls),
(343,452,o),
(370,485,o),
(412,485,cs),
(454,485,o),
(481,452,o),
(481,400,cs),
(481,324,l),
(343,324,l)
);
}
);
width = 600;
},
{
anchors = (
{
name = top;
pos = (300,550);
}
);
layerId = "EDF5EB54-295C-4C90-9A2F-67CD82979CFF";
shapes = (
{
closed = 1;
nodes = (
(240,-10,o),
(293,25,o),
(303,75,c),
(314,25,o),
(364,-10,o),
(426,-10,cs),
(506,-10,o),
(561,50,o),
(561,137,c),
(513,137,l),
(513,76,o),
(476,34,o),
(423,34,cs),
(366,34,o),
(327,77,o),
(327,140,cs),
(327,269,l),
(560,269,l),
(560,410,ls),
(560,499,o),
(504,560,o),
(422,560,cs),
(362,560,o),
(314,525,o),
(303,474,c),
(295,525,o),
(248,560,o),
(187,560,cs),
(111,560,o),
(58,501,o),
(58,414,c),
(106,414,l),
(106,475,o),
(142,517,o),
(194,517,cs),
(244,517,o),
(279,473,o),
(279,410,cs),
(279,312,l),
(170,312,ls),
(93,312,o),
(40,248,o),
(40,155,cs),
(40,57,o),
(95,-10,o),
(174,-10,cs)
);
},
{
closed = 1;
nodes = (
(127,31,o),
(88,81,o),
(88,155,cs),
(88,223,o),
(121,269,o),
(170,269,cs),
(279,269,l),
(279,140,ls),
(279,75,o),
(240,31,o),
(183,31,cs)
);
},
{
closed = 1;
nodes = (
(327,410,ls),
(327,473,o),
(364,517,o),
(419,517,cs),
(474,517,o),
(512,473,o),
(512,410,cs),
(512,312,l),
(327,312,l)
);
}
);
width = 600;
}
);
unicode = 230;
},
{
glyphname = b;
layers = (
{
anchors = (
{
name = bottom;
pos = (300,0);
},
{
name = top;
pos = (300,730);
}
);
layerId = "CCC0BD40-BA8C-414E-B576-CF0B94E6C996";
shapes = (
{
closed = 1;
nodes = (
(442,-10,o),
(513,68,o),
(513,194,cs),
(513,355,ls),
(513,482,o),
(443,560,o),
(332,560,cs),
(242,560,o),
(180,507,o),
(180,424,c),
(200,445,l),
(180,445,l),
(182,570,l),
(182,730,l),
(92,730,l),
(92,0,l),
(182,0,l),
(182,105,l),
(200,105,l),
(182,126,l),
(182,42,o),
(241,-10,o),
(332,-10,cs)
);
},
{
closed = 1;
nodes = (
(228,68,o),
(182,117,o),
(182,200,cs),
(182,350,ls),
(182,433,o),
(228,482,o),
(302,482,cs),
(378,482,o),
(423,445,o),
(423,355,cs),
(423,195,ls),
(423,105,o),
(378,68,o),
(302,68,cs)
);
}
);
width = 600;
},
{
anchors = (
{
name = bottom;
pos = (300,0);
},
{
name = top;
pos = (300,730);
}
);
layerId = "EDF5EB54-295C-4C90-9A2F-67CD82979CFF";
shapes = (
{
closed = 1;
nodes = (
(423,-10,o),
(495,69,o),
(495,189,cs),
(495,360,ls),
(495,480,o),
(423,560,o),
(313,560,cs),
(217,560,o),
(150,501,o),
(150,410,c),
(178,455,l),
(160,455,l),
(160,580,l),
(160,730,l),
(110,730,l),
(110,0,l),
(160,0,l),
(160,95,l),
(175,95,l),
(150,140,l),
(150,49,o),
(217,-10,o),
(313,-10,cs)
);
},
{
closed = 1;
nodes = (
(213,33,o),
(160,91,o),
(160,189,cs),
(160,360,ls),
(160,458,o),
(212,517,o),
(303,517,cs),
(392,517,o),
(445,458,o),
(445,360,cs),
(445,189,ls),
(445,91,o),
(392,33,o),
(303,33,cs)
);
}
);
width = 600;
},
{
anchors = (
{
name = bottom;
pos = (300,0);
},
{
name = top;
pos = (300,730);
}
);
layerId = "9ADF6715-3D0F-493D-8567-18A6FBCFC567";
shapes = (
{
closed = 1;
nodes = (
(468,-10,o),
(540,74,o),
(540,205,cs),
(540,345,ls),
(540,476,o),
(468,560,o),
(362,560,cs),
(260,560,o),
(197,485,o),
(197,360,c),
(246,435,l),
(211,435,l),
(216,580,l),
(216,730,l),
(66,730,l),
(66,0,l),
(211,0,l),
(211,115,l),
(246,115,l),
(197,190,l),
(197,66,o),
(260,-10,o),
(362,-10,cs)
);
},
{
closed = 1;
nodes = (
(247,120,o),
(216,154,o),
(216,215,cs),
(216,335,ls),
(216,396,o),
(247,430,o),
(304,430,cs),
(359,430,o),
(390,398,o),
(390,340,cs),
(390,210,ls),
(390,152,o),
(359,120,o),
(304,120,cs)
);
}
);
width = 600;
}
);
unicode = 98;
},
{
glyphname = c;
layers = (
{
anchors = (
{
name = bottom;
pos = (309,0);
},
{
name = top;
pos = (309,550);
}
);
layerId = "9ADF6715-3D0F-493D-8567-18A6FBCFC567";
shapes = (
{
closed = 1;
nodes = (
(454,-10,o),
(547,68,o),
(552,195,c),
(406,195,l),
(402,147,o),
(364,120,o),
(309,120,cs),
(249,120,o),
(216,152,o),
(216,210,cs),
(216,340,ls),
(216,398,o),
(249,430,o),
(309,430,cs),
(363,430,o),
(402,402,o),
(406,355,c),
(552,355,l),
(547,482,o),
(454,560,o),
(309,560,cs),
(162,560,o),
(66,473,o),
(66,340,cs),
(66,210,ls),
(66,77,o),
(162,-10,o),
(309,-10,cs)
);
}
);
width = 600;
},
{
anchors = (
{
name = bottom;
pos = (308,0);
},
{
name = top;
pos = (308,550);
}
);
layerId = "CCC0BD40-BA8C-414E-B576-CF0B94E6C996";
shapes = (
{
closed = 1;
nodes = (
(435,-10,o),
(519,63,o),
(523,180,c),
(433,180,l),
(429,110,o),
(382,70,o),
(308,70,cs),
(229,70,o),
(178,117,o),
(178,200,cs),
(178,351,ls),
(178,433,o),
(229,480,o),
(308,480,cs),
(382,480,o),
(429,440,o),
(433,370,c),
(523,370,l),
(519,487,o),
(435,560,o),
(308,560,cs),
(175,560,o),
(88,481,o),
(88,350,cs),
(88,200,ls),
(88,69,o),
(175,-10,o),
(308,-10,cs)
);
}
);
visible = 1;
width = 600;
},
{
anchors = (
{
name = bottom;
pos = (309,0);
},
{
name = top;
pos = (309,550);
}
);
layerId = "EDF5EB54-295C-4C90-9A2F-67CD82979CFF";
shapes = (
{
closed = 1;
nodes = (
(430,-10,o),
(507,64,o),
(507,180,c),
(457,180,l),
(457,90,o),
(401,36,o),
(309,36,cs),
(218,36,o),
(162,94,o),
(162,190,cs),
(162,360,ls),
(162,457,o),
(218,514,o),
(309,514,cs),
(401,514,o),
(457,460,o),
(457,370,c),
(507,370,l),
(507,486,o),
(430,560,o),
(309,560,cs),
(189,560,o),
(112,481,o),
(112,360,cs),
(112,190,ls),
(112,68,o),
(188,-10,o),
(309,-10,cs)
);
}
);
width = 600;
}
);
unicode = 99;
},
{
glyphname = ccedilla;
layers = (
{
anchors = (
{
name = _bottom;
pos = (302,0);
}
);
layerId = "EDF5EB54-295C-4C90-9A2F-67CD82979CFF";
shapes = (
{
closed = 1;
nodes = (
(292,-195,ls),
(352,-195,o),
(392,-161,o),
(392,-118,cs),
(392,-61,o),
(329,-37,o),
(282,-34,c),
(305,26,l),
(263,26,l),
(228,-64,l),
(299,-64,o),
(346,-86,o),
(346,-118,cs),
(346,-140,o),
(324,-160,o),
(292,-160,cs),
(212,-160,l),
(212,-195,l)
);
},
{
ref = c;
}
);
width = 600;
},
{
anchors = (
{
name = _bottom;
pos = (304,0);
}
);
layerId = "CCC0BD40-BA8C-414E-B576-CF0B94E6C996";
shapes = (
{
closed = 1;
nodes = (
(294,-203,ls),
(366,-203,o),
(414,-166,o),
(414,-120,cs),
(414,-68,o),
(346,-41,o),
(294,-35,c),
(315,26,l),
(258,26,l),
(223,-69,l),
(290,-69,o),
(328,-89,o),
(328,-112,cs),
(328,-130,o),
(308,-148,o),
(279,-148,cs),
(209,-148,l),
(209,-203,l)
);
},
{
ref = c;
}
);
width = 600;
},
{
anchors = (
{
name = _bottom;
pos = (303,0);
}
);
layerId = "9ADF6715-3D0F-493D-8567-18A6FBCFC567";
shapes = (
{
closed = 1;
nodes = (
(303,-225,ls),
(387,-225,o),
(443,-182,o),
(443,-133,cs),
(443,-72,o),
(362,-43,o),
(301,-39,c),
(320,16,l),
(247,16,l),
(212,-69,l),
(285,-69,o),
(328,-88,o),
(328,-119,cs),
(328,-135,o),
(306,-155,o),
(273,-155,cs),
(193,-155,l),
(193,-225,l)
);
},
{
ref = c;
}
);
width = 600;
}
);
unicode = 231;
},
{
glyphname = d;
layers = (
{
anchors = (
{
name = bottom;
pos = (300,0);
},
{
name = center;
pos = (300,275);
},
{
name = top;
pos = (300,730);
},
{
name = topright;
pos = (580,550);
}
);
layerId = "EDF5EB54-295C-4C90-9A2F-67CD82979CFF";
shapes = (
{
closed = 1;
nodes = (
(383,-10,o),
(450,49,o),
(450,140,c),
(422,95,l),
(440,95,l),
(440,0,l),
(490,0,l),
(490,730,l),
(440,730,l),
(440,580,l),
(440,455,l),
(422,455,l),
(450,410,l),
(450,501,o),
(383,560,o),
(287,560,cs),
(177,560,o),
(105,480,o),
(105,360,cs),
(105,189,ls),
(105,69,o),
(177,-10,o),
(287,-10,cs)
);
},
{
closed = 1;
nodes = (
(208,33,o),
(155,91,o),
(155,189,cs),
(155,360,ls),
(155,458,o),
(208,517,o),
(297,517,cs),
(388,517,o),
(440,458,o),
(440,360,cs),
(440,189,ls),
(440,91,o),
(387,33,o),
(297,33,cs)
);
}
);
width = 600;
},
{
anchors = (
{
name = bottom;
pos = (300,0);
},
{
name = center;
pos = (300,275);
},
{
name = top;
pos = (300,730);
},
{
name = topright;
pos = (580,550);
}
);
layerId = "9ADF6715-3D0F-493D-8567-18A6FBCFC567";
shapes = (
{
closed = 1;
nodes = (
(340,-10,o),
(403,66,o),
(403,190,c),
(354,115,l),
(389,115,l),
(389,0,l),
(534,0,l),
(534,730,l),
(384,730,l),
(384,580,l),
(389,435,l),
(354,435,l),
(403,360,l),
(403,485,o),
(340,560,o),
(238,560,cs),
(132,560,o),
(60,476,o),
(60,345,cs),
(60,205,ls),
(60,74,o),
(132,-10,o),
(238,-10,cs)
);
},
{
closed = 1;
nodes = (
(241,120,o),
(210,152,o),
(210,210,cs),
(210,340,ls),
(210,398,o),
(241,430,o),
(296,430,cs),
(353,430,o),
(384,396,o),
(384,335,cs),
(384,215,ls),
(384,154,o),
(353,120,o),
(296,120,cs)
);
}
);
width = 600;
},
{
anchors = (
{
name = bottom;
pos = (300,0);
},
{
name = center;
pos = (300,275);
},
{
name = top;
pos = (300,730);
},
{
name = topright;
pos = (580,550);
}
);
layerId = "CCC0BD40-BA8C-414E-B576-CF0B94E6C996";
shapes = (
{
closed = 1;
nodes = (
(359,-10,o),
(418,42,o),
(418,126,c),
(400,105,l),
(418,105,l),
(418,0,l),
(508,0,l),
(508,730,l),
(418,730,l),
(418,570,l),
(420,445,l),
(400,445,l),
(420,424,l),
(420,507,o),
(358,560,o),
(268,560,cs),
(157,560,o),
(87,482,o),
(87,355,cs),
(87,194,ls),
(87,68,o),
(158,-10,o),
(268,-10,cs)
);
},
{
closed = 1;
nodes = (
(222,68,o),
(177,105,o),
(177,195,cs),
(177,355,ls),
(177,445,o),
(222,482,o),
(298,482,cs),
(372,482,o),
(418,433,o),
(418,350,cs),
(418,200,ls),
(418,117,o),
(372,68,o),
(298,68,cs)
);
}
);
width = 600;
}
);
unicode = 100;
},
{
glyphname = eth;
layers = (
{
layerId = "9ADF6715-3D0F-493D-8567-18A6FBCFC567";
shapes = (
{
closed = 1;
nodes = (
(459,0,o),
(560,96,o),
(560,251,cs),
(560,337,o),
(529,430,o),
(446,537,cs),
(393,606,l),
(493,642,l),
(493,747,l),
(329,688,l),
(296,730,l),
(129,730,l),
(198,640,l),
(106,607,l),
(106,502,l),
(261,558,l),
(314,489,ls),
(372,414,o),
(392,380,o),
(391,375,c),
(385,375,l),
(365,410,o),
(312,456,o),
(243,456,cs),
(122,456,o),
(40,368,o),
(40,236,cs),
(40,94,o),
(143,0,o),
(300,0,cs)
);
},
{
closed = 1;
nodes = (
(233,125,o),
(190,168,o),
(190,235,cs),
(190,302,o),
(233,345,o),
(300,345,cs),
(366,345,o),
(410,301,o),
(410,235,cs),
(410,168,o),
(367,125,o),
(300,125,cs)
);
}
);
width = 600;
},
{
layerId = "CCC0BD40-BA8C-414E-B576-CF0B94E6C996";
shapes = (
{
closed = 1;
nodes = (
(438,-10,o),
(530,83,o),
(530,223,cs),
(530,308,o),
(492,408,o),
(433,493,cs),
(355,606,l),
(461,655,l),
(461,735,l),
(313,666,l),
(269,730,l),
(165,730,l),
(237,631,l),
(117,575,l),
(117,495,l),
(280,571,l),
(345,480,ls),
(382,430,o),
(403,393,o),
(409,380,c),
(395,380,l),
(380,404,o),
(339,436,o),
(281,436,cs),
(154,436,o),
(70,348,o),
(70,215,cs),
(70,80,o),
(162,-10,o),
(299,-10,cs)
);
},
{
closed = 1;
nodes = (
(216,70,o),
(160,128,o),
(160,215,cs),
(160,302,o),
(216,360,o),
(299,360,cs),
(384,360,o),
(440,302,o),
(440,215,cs),
(440,128,o),
(384,70,o),
(299,70,cs)
);
}
);
width = 600;
},
{
layerId = "EDF5EB54-295C-4C90-9A2F-67CD82979CFF";
shapes = (
{
closed = 1;
nodes = (
(434,-10,o),
(520,78,o),
(520,213,cs),
(520,302,o),
(483,402,o),
(401,517,cs),
(332,615,l),
(461,675,l),
(461,715,l),
(310,645,l),
(250,730,l),
(184,730,l),
(262,623,l),
(117,555,l),
(117,515,l),
(284,593,l),
(358,491,ls),
(411,419,o),
(439,366,o),
(445,347,c),
(442,347,l),
(420,385,o),
(363,436,o),
(290,436,cs),
(161,436,o),
(80,350,o),
(80,215,cs),
(80,79,o),
(167,-10,o),
(300,-10,cs)
);
},
{
closed = 1;
nodes = (
(199,40,o),
(135,108,o),
(135,215,cs),
(135,322,o),
(199,390,o),
(300,390,cs),
(395,390,o),
(465,318,o),
(465,216,cs),
(465,109,o),
(400,40,o),
(300,40,cs)
);
}
);
width = 600;
}
);
unicode = 240;
},
{
glyphname = dcaron;
layers = (
{
layerId = "9ADF6715-3D0F-493D-8567-18A6FBCFC567";
shapes = (
{
closed = 1;
nodes = (
(280,-10,o),
(329,48,o),
(329,140,c),
(294,105,l),
(329,105,l),
(329,0,l),
(464,0,l),
(464,730,l),
(324,730,l),
(324,580,l),
(329,445,l),
(294,445,l),
(329,410,l),
(329,502,o),
(280,560,o),
(203,560,cs),
(103,560,o),
(40,479,o),
(40,351,cs),
(40,200,ls),
(40,71,o),
(103,-10,o),
(203,-10,cs)
);
},
{
closed = 1;
nodes = (
(209,110,o),
(180,145,o),
(180,205,cs),
(180,346,ls),
(180,405,o),
(209,440,o),
(257,440,cs),
(299,440,o),
(324,405,o),
(324,346,cs),
(324,205,ls),
(324,145,o),
(299,110,o),
(257,110,cs)
);
},
{
pos = (665,0);
ref = caroncomb.alt;
}
);
width = 600;
},
{
layerId = "CCC0BD40-BA8C-414E-B576-CF0B94E6C996";
shapes = (
{
closed = 1;
nodes = (
(311,-10,o),
(363,43,o),
(363,126,c),
(345,105,l),
(363,105,l),
(363,0,l),
(453,0,l),
(453,730,l),
(363,730,l),
(363,570,l),
(365,445,l),
(345,445,l),
(363,424,l),
(363,507,o),
(311,560,o),
(228,560,cs),
(127,560,o),
(63,483,o),
(63,360,cs),
(63,189,ls),
(63,67,o),
(127,-10,o),
(228,-10,cs)
);
},
{
closed = 1;
nodes = (
(192,68,o),
(153,115,o),
(153,195,cs),
(153,355,ls),
(153,435,o),
(192,482,o),
(258,482,cs),
(324,482,o),
(363,435,o),
(363,355,cs),
(363,195,ls),
(363,115,o),
(324,68,o),
(258,68,cs)
);
},
{
pos = (665,0);
ref = caroncomb.alt;
}
);
width = 600;
},
{
layerId = "EDF5EB54-295C-4C90-9A2F-67CD82979CFF";
shapes = (
{
closed = 1;
nodes = (
(356,-10,o),
(415,48,o),
(415,140,c),
(377,75,l),
(405,75,l),
(405,0,l),
(455,0,l),
(455,730,l),
(405,730,l),
(405,580,l),
(405,475,l),
(387,475,l),
(415,410,l),
(415,502,o),
(356,560,o),
(262,560,cs),
(157,560,o),
(90,483,o),
(90,360,cs),
(90,189,ls),
(90,67,o),
(157,-10,o),
(262,-10,cs)
);
},
{
closed = 1;
nodes = (
(191,33,o),
(140,93,o),
(140,189,cs),
(140,360,ls),
(140,456,o),
(191,517,o),
(272,517,cs),
(354,517,o),
(405,456,o),
(405,360,cs),
(405,189,ls),
(405,93,o),
(354,33,o),
(272,33,cs)
);
},
{
pos = (670,0);
ref = caroncomb.alt;
}
);
width = 600;
}
);
unicode = 271;
},
{
glyphname = dcroat;
layers = (
{
layerId = "9ADF6715-3D0F-493D-8567-18A6FBCFC567";
shapes = (
{
closed = 1;
nodes = (
(334,-10,o),
(389,45,o),
(389,140,c),
(354,105,l),
(389,105,l),
(389,0,l),
(534,0,l),
(534,730,l),
(384,730,l),
(384,520,l),
(389,385,l),
(354,385,l),
(389,350,l),
(389,445,o),
(334,500,o),
(243,500,cs),
(132,500,o),
(60,416,o),
(60,285,cs),
(60,205,ls),
(60,73,o),
(132,-10,o),
(243,-10,cs)
);
},
{
closed = 1;
nodes = (
(241,120,o),
(210,152,o),
(210,210,cs),
(210,280,ls),
(210,337,o),
(241,370,o),
(297,370,cs),
(352,370,o),
(384,337,o),
(384,280,cs),
(384,210,ls),
(384,152,o),
(352,120,o),
(297,120,cs)
);
},
{
closed = 1;
nodes = (
(600,555,l),
(600,645,l),
(240,645,l),
(240,555,l)
);
}
);
width = 600;
},
{
layerId = "CCC0BD40-BA8C-414E-B576-CF0B94E6C996";
shapes = (
{
closed = 1;
nodes = (
(359,-10,o),
(416,42,o),
(416,126,c),
(398,105,l),
(416,105,l),
(416,0,l),
(506,0,l),
(506,730,l),
(416,730,l),
(416,510,l),
(418,385,l),
(398,385,l),
(416,364,l),
(416,447,o),
(358,500,o),
(268,500,cs),
(157,500,o),
(90,422,o),
(90,295,cs),
(90,194,ls),
(90,68,o),
(158,-10,o),
(268,-10,cs)
);
},
{
closed = 1;
nodes = (
(222,68,o),
(180,115,o),
(180,200,cs),
(180,290,ls),
(180,375,o),
(222,422,o),
(298,422,cs),
(372,422,o),
(416,373,o),
(416,290,cs),
(416,200,ls),
(416,117,o),
(372,68,o),
(298,68,cs)
);
},
{
closed = 1;
nodes = (
(600,570,l),
(600,645,l),
(250,645,l),
(250,570,l)
);
}
);
width = 600;
},
{
layerId = "EDF5EB54-295C-4C90-9A2F-67CD82979CFF";
shapes = (
{
closed = 1;
nodes = (
(383,-10,o),
(450,49,o),
(450,140,c),
(412,75,l),
(440,75,l),
(440,0,l),
(490,0,l),
(490,730,l),
(440,730,l),
(440,520,l),
(440,415,l),
(422,415,l),
(450,350,l),
(450,441,o),
(383,500,o),
(287,500,cs),
(177,500,o),
(105,420,o),
(105,300,cs),
(105,189,ls),
(105,69,o),
(177,-10,o),
(287,-10,cs)
);
},
{
closed = 1;
nodes = (
(208,33,o),
(155,91,o),
(155,189,cs),
(155,300,ls),
(155,398,o),
(208,457,o),
(297,457,cs),
(388,457,o),
(440,398,o),
(440,300,cs),
(440,189,ls),
(440,91,o),
(387,33,o),
(297,33,cs)
);
},
{
closed = 1;
nodes = (
(590,586,l),
(590,631,l),
(260,631,l),
(260,586,l)
);
}
);
width = 600;
}
);
unicode = 273;
},
{
glyphname = e;
layers = (
{
anchors = (
{
name = bottom;
pos = (300,0);
},
{
name = ogonek;
pos = (345,0);
},
{
name = top;
pos = (300,550);
}
);
layerId = "9ADF6715-3D0F-493D-8567-18A6FBCFC567";
shapes = (
{
closed = 1;
nodes = (
(420,-10,o),
(511,54,o),
(532,150,c),
(385,150,l),
(379,123,o),
(343,110,o),
(301,110,cs),
(236,110,o),
(203,141,o),
(203,210,cs),
(203,238,l),
(540,238,l),
(540,340,ls),
(540,472,o),
(447,560,o),
(301,560,cs),
(154,560,o),
(60,472,o),
(60,340,cs),
(60,210,ls),
(60,78,o),
(154,-10,o),
(301,-10,cs)
);
},
{
closed = 1;
nodes = (
(407,329,l),
(203,327,l),
(203,340,ls),
(203,408,o),
(235,449,o),
(301,449,cs),
(366,449,o),
(397,410,o),
(397,342,cs),
(397,317,l)
);
}
);
width = 600;
},
{
anchors = (
{
name = bottom;
pos = (300,0);
},
{
name = ogonek;
pos = (355,0);
},
{
name = top;
pos = (300,550);
}
);
layerId = "EDF5EB54-295C-4C90-9A2F-67CD82979CFF";
shapes = (
{
closed = 1;
nodes = (
(404,-10,o),
(475,46,o),
(491,135,c),
(441,135,l),
(430,72,o),
(375,34,o),
(301,34,cs),
(208,34,o),
(155,94,o),
(155,190,cs),
(155,265,l),
(495,265,l),
(495,360,ls),
(495,481,o),
(422,560,o),
(301,560,cs),
(179,560,o),
(105,481,o),
(105,360,cs),
(105,190,ls),
(105,68,o),
(178,-10,o),
(301,-10,cs)
);
},
{
closed = 1;
nodes = (
(456,308,l),
(155,308,l),
(155,360,ls),
(155,457,o),
(207,516,o),
(301,516,cs),
(393,516,o),
(445,456,o),
(445,360,cs),
(445,299,l)
);
}
);
width = 600;
},
{
anchors = (
{
name = bottom;
pos = (300,0);
},
{
name = ogonek;
pos = (350,0);
},
{
name = top;
pos = (300,550);
}
);
layerId = "CCC0BD40-BA8C-414E-B576-CF0B94E6C996";
shapes = (
{
closed = 1;
nodes = (
(416,-10,o),
(500,48,o),
(512,140,c),
(422,140,l),
(413,96,o),
(367,68,o),
(300,68,cs),
(222,68,o),
(172,119,o),
(172,200,cs),
(172,252,l),
(516,252,l),
(516,350,ls),
(516,477,o),
(430,560,o),
(300,560,cs),
(170,560,o),
(84,477,o),
(84,340,cs),
(84,210,ls),
(84,73,o),
(170,-10,o),
(300,-10,cs)
);
},
{
closed = 1;
nodes = (
(435,322,l),
(172,322,l),
(172,350,ls),
(172,437,o),
(219,486,o),
(300,486,cs),
(381,486,o),
(428,437,o),
(428,350,cs),
(428,313,l)
);
}
);
width = 600;
}
);
unicode = 101;
},
{
glyphname = eogonek;
layers = (
{
anchors = (
{
name = top;
pos = (300,550);
}
);
layerId = "9ADF6715-3D0F-493D-8567-18A6FBCFC567";
shapes = (
{
closed = 1;
nodes = (
(468,-225,l),
(468,-120,l),
(399,-120,ls),
(370,-120,o),
(353,-103,o),
(353,-83,cs),
(353,-66,o),
(368,-42,o),
(394,-18,cs),
(445,29,l),
(489,58,o),
(522,99,o),
(535,150,c),
(388,150,l),
(379,122,o),
(350,105,o),
(303,105,cs),
(236,105,o),
(203,141,o),
(203,210,cs),
(203,240,l),
(540,240,l),
(540,340,ls),
(540,472,o),
(447,560,o),
(301,560,cs),
(154,560,o),
(60,472,o),
(60,340,cs),
(60,210,ls),
(60,78,o),
(154,-10,o),
(301,-10,cs),
(336,-10,o),
(359,9,o),
(359,29,c),
(272,-19,o),
(229,-68,o),
(229,-115,cs),
(229,-180,o),
(279,-225,o),
(360,-225,cs)
);
},
{
closed = 1;
nodes = (
(407,327,l),
(203,325,l),
(203,340,ls),
(203,408,o),
(235,447,o),
(301,447,cs),
(366,447,o),
(397,410,o),
(397,342,cs),
(397,317,l)
);
}
);
width = 600;
},
{
anchors = (
{
name = top;
pos = (300,550);
}
);
layerId = "CCC0BD40-BA8C-414E-B576-CF0B94E6C996";
shapes = (
{
closed = 1;
nodes = (
(451,-203,l),
(451,-143,l),
(391,-143,ls),
(357,-143,o),
(336,-122,o),
(336,-93,cs),
(336,-65,o),
(355,-36,o),
(400,1,cs),
(416,14,l),
(468,39,o),
(503,83,o),
(510,140,c),
(420,140,l),
(410,91,o),
(369,66,o),
(300,66,cs),
(218,66,o),
(176,113,o),
(176,200,cs),
(176,253,l),
(512,253,l),
(512,350,ls),
(512,477,o),
(430,560,o),
(300,560,cs),
(170,560,o),
(88,477,o),
(88,350,cs),
(88,200,ls),
(88,73,o),
(170,-10,o),
(300,-10,cs),
(303,-10,o),
(307,-10,o),
(310,-10,c),
(271,-45,o),
(251,-80,o),
(251,-110,cs),
(251,-164,o),
(299,-203,o),
(373,-203,cs)
);
},
{
closed = 1;
nodes = (
(464,321,l),
(176,321,l),
(176,350,ls),
(176,437,o),
(218,485,o),
(300,485,cs),
(382,485,o),
(424,437,o),
(424,350,cs),
(424,281,l)
);
}
);
width = 600;
},
{
anchors = (
{
name = top;
pos = (300,550);
}
);
layerId = "EDF5EB54-295C-4C90-9A2F-67CD82979CFF";
shapes = (
{
closed = 1;
nodes = (
(449,-195,l),
(449,-153,l),
(385,-153,ls),
(353,-153,o),
(334,-134,o),
(334,-103,cs),
(334,-75,o),
(357,-36,o),
(395,0,cs),
(422,24,l),
(459,50,o),
(483,88,o),
(494,135,c),
(444,135,l),
(425,72,o),
(375,34,o),
(301,34,cs),
(208,34,o),
(155,94,o),
(155,190,cs),
(155,265,l),
(495,265,l),
(495,360,ls),
(495,481,o),
(422,560,o),
(301,560,cs),
(179,560,o),
(105,481,o),
(105,360,cs),
(105,190,ls),
(105,68,o),
(178,-10,o),
(301,-10,cs),
(318,-10,o),
(335,-8,o),
(350,-5,c),
(305,-48,o),
(287,-84,o),
(287,-115,cs),
(287,-165,o),
(321,-195,o),
(376,-195,cs)
);
},
{
closed = 1;
nodes = (
(467,308,l),
(155,308,l),
(155,360,ls),
(155,457,o),
(207,516,o),
(301,516,cs),
(393,516,o),
(445,456,o),
(445,360,cs),
(445,286,l)
);
}
);
width = 600;
}
);
unicode = 281;
},
{
glyphname = schwa;
layers = (
{
layerId = "9ADF6715-3D0F-493D-8567-18A6FBCFC567";
shapes = (
{
closed = 1;
nodes = (
(446,-10,o),
(540,78,o),
(540,210,cs),
(540,340,ls),
(540,472,o),
(446,560,o),
(299,560,cs),
(180,560,o),
(89,496,o),
(65,400,c),
(212,400,l),
(221,428,o),
(250,445,o),
(296.995,445,cs),
(364,445,o),
(397,409,o),
(397,340,cs),
(397,310,l),
(60,310,l),
(60,210,ls),
(60,78,o),
(153,-10,o),
(299,-10,cs)
);
},
{
closed = 1;
nodes = (
(234,105,o),
(203,142,o),
(203,210,cs),
(203,235,l),
(193,225,l),
(397,225,l),
(397,210,ls),
(397,142,o),
(365,105,o),
(299,105,cs)
);
}
);
width = 600;
},
{
layerId = "CCC0BD40-BA8C-414E-B576-CF0B94E6C996";
shapes = (
{
closed = 1;
nodes = (
(430,-10,o),
(510,73,o),
(510,200,cs),
(510,350,ls),
(510,477,o),
(430,560,o),
(300,560,cs),
(184,560,o),
(104,502,o),
(92,410,c),
(182,410,l),
(192,459,o),
(231,484,o),
(300,484,cs),
(382,484,o),
(422,437.009,o),
(422,350,cs),
(422,297,l),
(90,297,l),
(90,200,ls),
(90,73,o),
(170,-10,o),
(300,-10,cs)
);
},
{
closed = 1;
nodes = (
(218,65,o),
(178,113,o),
(178,200,cs),
(178,237,l),
(171,229,l),
(422,229,l),
(422,200,ls),
(422,113,o),
(382,65,o),
(300,65,cs)
);
}
);
width = 600;
},
{
layerId = "EDF5EB54-295C-4C90-9A2F-67CD82979CFF";
shapes = (
{
closed = 1;
nodes = (
(421,-10,o),
(495,69,o),
(495,190,cs),
(495,360,ls),
(495,482,o),
(422,560,o),
(299,560,cs),
(196,560,o),
(126,504,o),
(106,415,c),
(156,415,l),
(175,478,o),
(225,516,o),
(299,516,cs),
(392,516,o),
(445,456,o),
(445,360,cs),
(445,285,l),
(105,285,l),
(105,190,ls),
(105,69,o),
(178,-10,o),
(299,-10,cs)
);
},
{
closed = 1;
nodes = (
(207,34,o),
(155,94,o),
(155,190,cs),
(155,251,l),
(144,242,l),
(445,242,l),
(445,190,ls),
(445,93,o),
(393,34,o),
(299,34,cs)
);
}
);
width = 600;
}
);
unicode = 601;
},
{
glyphname = f;
layers = (
{
anchors = (
{
name = bottom;
pos = (300,0);
},
{
name = top;
pos = (300,730);
}
);
layerId = "EDF5EB54-295C-4C90-9A2F-67CD82979CFF";
shapes = (
{
closed = 1;
nodes = (
(285,0,l),
(285,429,l),
(518,429,l),
(518,474,l),
(285,474,l),
(285,605,ls),
(285,656,o),
(314,685,o),
(365,685,cs),
(518,685,l),
(518,730,l),
(365,730,ls),
(284,730,o),
(235,683,o),
(235,605,cs),
(235,474,l),
(65,474,l),
(65,429,l),
(235,429,l),
(235,0,l)
);
}
);
width = 600;
},
{
anchors = (
{
name = bottom;
pos = (300,0);
},
{
name = top;
pos = (300,730);
}
);
layerId = "9ADF6715-3D0F-493D-8567-18A6FBCFC567";
shapes = (
{
closed = 1;
nodes = (
(340,0,l),
(340,340,l),
(541,340,l),
(541,475,l),
(340,475,l),
(340,555,ls),
(340,582,o),
(358,600,o),
(385,600,cs),
(541,600,l),
(541,730,l),
(380,730,ls),
(266,730,o),
(190,662,o),
(190,560,cs),
(190,475,l),
(44,475,l),
(44,340,l),
(190,340,l),
(190,0,l)
);
}
);
width = 600;
},
{
anchors = (
{
name = bottom;
pos = (300,0);
},
{
name = top;
pos = (300,730);
}
);
layerId = "CCC0BD40-BA8C-414E-B576-CF0B94E6C996";
shapes = (
{
closed = 1;
nodes = (
(305,0,l),
(305,393,l),
(530,393,l),
(530,475,l),
(305,475,l),
(305,590,ls),
(305,628,o),
(328,648,o),
(369,648,cs),
(530,648,l),
(530,730,l),
(369,730,ls),
(273,730,o),
(215,677,o),
(215,590,cs),
(215,475,l),
(55,475,l),
(55,393,l),
(215,393,l),
(215,0,l)
);
}
);
width = 600;
}
);
unicode = 102;
},
{
glyphname = g;
layers = (
{
anchors = (
{
name = bottom;
pos = (300,-270);
},
{
name = top;
pos = (297,550);
}
);
layerId = "EDF5EB54-295C-4C90-9A2F-67CD82979CFF";
shapes = (
{
closed = 1;
nodes = (
(319,-180,ls),
(431,-180,o),
(490,-124,o),
(490,-15,cs),
(490,550,l),
(440,550,l),
(440,455,l),
(427,455,l),
(447,410,l),
(447,501,o),
(383,560,o),
(287,560,cs),
(177,560,o),
(105,480,o),
(105,360,cs),
(105,239,ls),
(105,119,o),
(177,40,o),
(287,40,cs),
(383,40,o),
(447,99,o),
(447,190,c),
(422,145,l),
(440,145,l),
(440,30,l),
(440,-15,ls),
(440,-94,o),
(398,-135,o),
(319,-135,cs),
(174,-135,l),
(174,-180,l)
);
},
{
closed = 1;
nodes = (
(208,83,o),
(155,141,o),
(155,239,cs),
(155,360,ls),
(155,458,o),
(208,517,o),
(297,517,cs),
(388,517,o),
(440,458,o),
(440,360,cs),
(440,239,ls),
(440,141,o),
(387,83,o),
(297,83,cs)
);
}
);
width = 600;
},
{
anchors = (
{
name = bottom;
pos = (300,-270);
},
{
name = top;
pos = (297,550);
}
);
layerId = "9ADF6715-3D0F-493D-8567-18A6FBCFC567";
shapes = (
{
closed = 1;
nodes = (
(305,-180,ls),
(446,-180,o),
(534,-106,o),
(534,14,cs),
(534,550,l),
(389,550,l),
(389,455,l),
(354,455,l),
(409,360,l),
(409,484,o),
(346,560,o),
(243,560,cs),
(132,560,o),
(60,476,o),
(60,345,cs),
(60,245,ls),
(60,113,o),
(132,30,o),
(243,30,cs),
(346,30,o),
(409,106,o),
(409,230,c),
(354,165,l),
(389,165,l),
(387,40,l),
(387,19,ls),
(387,-31,o),
(356,-60,o),
(300,-60,cs),
(145,-60,l),
(145,-180,l)
);
},
{
closed = 1;
nodes = (
(241,160,o),
(210,192,o),
(210,250,cs),
(210,340,ls),
(210,397,o),
(241,430,o),
(297,430,cs),
(352,430,o),
(384,397,o),
(384,340,cs),
(384,250,ls),
(384,192,o),
(352,160,o),
(297,160,cs)
);
}
);
width = 600;
},
{
anchors = (
{
name = bottom;
pos = (300,-270);
},
{
name = top;
pos = (297,550);
}
);
layerId = "CCC0BD40-BA8C-414E-B576-CF0B94E6C996";
shapes = (
{
closed = 1;
nodes = (
(315,-180,ls),
(433,-180,o),
(507,-111,o),
(507,0,cs),
(507,550,l),
(418,550,l),
(418,455,l),
(401,455,l),
(418,430,l),
(418,510,o),
(360,560,o),
(271,560,cs),
(158,560,o),
(88,481,o),
(88,356,cs),
(88,240,ls),
(88,114,o),
(158,38,o),
(271,38,cs),
(360,38,o),
(418,85,o),
(418,165,c),
(401,140,l),
(419,140,l),
(417,50,l),
(417,0,ls),
(417,-60,o),
(378,-98,o),
(316,-98,cs),
(161,-98,l),
(161,-180,l)
);
},
{
closed = 1;
nodes = (
(222,113,o),
(178,160,o),
(178,235,cs),
(178,360,ls),
(178,435,o),
(222,482,o),
(298,482,cs),
(372,482,o),
(418,433,o),
(418,350,cs),
(418,245,ls),
(418,162,o),
(372,113,o),
(298,113,cs)
);
}
);
width = 600;
}
);
unicode = 103;
},
{
glyphname = h;
layers = (
{
anchors = (
{
name = bottom;
pos = (300,0);
},
{
name = center;
pos = (300,365);
},
{
name = top;
pos = (135,730);
}
);
layerId = "EDF5EB54-295C-4C90-9A2F-67CD82979CFF";
shapes = (
{
closed = 1;
nodes = (
(160,0,l),
(160,360,ls),
(160,457,o),
(215,517,o),
(303,517,cs),
(389,517,o),
(442,459,o),
(442,360,cs),
(442,0,l),
(492,0,l),
(492,367,ls),
(492,485,o),
(421,560,o),
(313,560,cs),
(217,560,o),
(153,501,o),
(153,410,c),
(177,460,l),
(160,460,l),
(160,580,l),
(160,730,l),
(110,730,l),
(110,0,l)
);
}
);
width = 600;
},
{
anchors = (
{
name = bottom;
pos = (300,0);
},
{
name = center;
pos = (300,365);
},
{
name = top;
pos = (142,730);
}
);
layerId = "9ADF6715-3D0F-493D-8567-18A6FBCFC567";
shapes = (
{
closed = 1;
nodes = (
(216,0,l),
(216,340,ls),
(216,397,o),
(248,430,o),
(301,430,cs),
(354,430,o),
(386,397,o),
(386,340,cs),
(386,0,l),
(536,0,l),
(536,355,ls),
(536,479,o),
(466,560,o),
(359,560,cs),
(269,560,o),
(207,499,o),
(206,410,c),
(255,445,l),
(211,445,l),
(216,550,l),
(216,730,l),
(66,730,l),
(66,0,l)
);
}
);
width = 600;
},
{
anchors = (
{
name = bottom;
pos = (300,0);
},
{
name = center;
pos = (300,365);
},
{
name = top;
pos = (137,730);
}
);
layerId = "CCC0BD40-BA8C-414E-B576-CF0B94E6C996";
shapes = (
{
closed = 1;
nodes = (
(182,0,l),
(182,350,ls),
(182,435,o),
(228,484,o),
(303,484,cs),
(375,484,o),
(420,438,o),
(420,355,cs),
(420,0,l),
(510,0,l),
(510,370,ls),
(510,487,o),
(439,560,o),
(329,560,cs),
(237,560,o),
(182,510,o),
(182,424,c),
(201,445,l),
(182,445,l),
(182,550,l),
(182,730,l),
(92,730,l),
(92,0,l)
);
}
);
width = 600;
}
);
unicode = 104;
},
{
glyphname = idotless;
layers = (
{
anchors = (
{
name = bottom;
pos = (320,0);
},
{
name = ogonek;
pos = (330,0);
},
{
name = top;
pos = (320,550);
}
);
layerId = "9ADF6715-3D0F-493D-8567-18A6FBCFC567";
shapes = (
{
closed = 1;
nodes = (
(560,0,l),
(560,135,l),
(402,135,l),
(402,550,l),
(90,550,l),
(90,415,l),
(252,415,l),
(252,135,l),
(70,135,l),
(70,0,l)
);
}
);
width = 600;
},
{
anchors = (
{
name = bottom;
pos = (315,0);
},
{
name = ogonek;
pos = (330,0);
},
{
name = top;
pos = (315,550);
}
);
layerId = "CCC0BD40-BA8C-414E-B576-CF0B94E6C996";
shapes = (
{
closed = 1;
nodes = (
(555,0,l),
(555,82,l),
(370,82,l),
(370,550,l),
(105,550,l),
(105,468,l),
(280,468,l),
(280,82,l),
(85,82,l),
(85,0,l)
);
}
);
width = 600;
},
{
anchors = (
{
name = bottom;
pos = (315,0);
},
{
name = ogonek;
pos = (330,0);
},
{
name = top;
pos = (315,550);
}
);
layerId = "EDF5EB54-295C-4C90-9A2F-67CD82979CFF";
shapes = (
{
closed = 1;
nodes = (
(535,0,l),
(535,45,l),
(346,45,l),
(346,550,l),
(120,550,l),
(120,505,l),
(296,505,l),
(296,45,l),
(95,45,l),
(95,0,l)
);
}
);
width = 600;
}
);
unicode = 305;
},
{
glyphname = ij;
layers = (
{
layerId = "EDF5EB54-295C-4C90-9A2F-67CD82979CFF";
shapes = (
{
closed = 1;
nodes = (
(281,-180,ls),
(403,-180,o),
(475,-109,o),
(475,10,cs),
(475,550,l),
(425,550,l),
(425,10,ls),
(425,-84,o),
(375,-135,o),
(281,-135,cs),
(127,-135,l),
(127,-180,l)
);
},
{
closed = 1;
nodes = (
(177,0,l),
(177,550,l),
(127,550,l),
(127,0,l)
);
},
{
pos = (452,0);
ref = dotaccentcomb;
},
{
pos = (748,0);
ref = dotaccentcomb;
}
);
width = 600;
},
{
layerId = "CCC0BD40-BA8C-414E-B576-CF0B94E6C996";
shapes = (
{
closed = 1;
nodes = (
(274,-180,l),
(409,-180,o),
(495,-98,o),
(495,31,cs),
(495,550,l),
(405,550,l),
(405,31,ls),
(405,-51,o),
(357,-98,o),
(274,-98,c),
(108,-98,l),
(108,-180,l)
);
},
{
closed = 1;
nodes = (
(198,0,l),
(198,550,l),
(108,550,l),
(108,0,l)
);
},
{
pos = (451,0);
ref = dotaccentcomb;
},
{
pos = (749,0);
ref = dotaccentcomb;
}
);
width = 600;
},
{
layerId = "9ADF6715-3D0F-493D-8567-18A6FBCFC567";
shapes = (
{
closed = 1;
nodes = (
(291,-180,ls),
(429,-180,o),
(515,-96,o),
(515,40,cs),
(515,550,l),
(365,550,l),
(365,45,ls),
(365,-9,o),
(331,-45,o),
(280,-45,cs),
(85,-45,l),
(85,-180,l)
);
},
{
closed = 1;
nodes = (
(235,65,l),
(235,550,l),
(85,550,l),
(85,65,l)
);
},
{
pos = (460,0);
ref = dotaccentcomb;
},
{
pos = (740,0);
ref = dotaccentcomb;
}
);
width = 600;
}
);
unicode = 307;
},
{
glyphname = ij_acute;
layers = (
{
layerId = "EDF5EB54-295C-4C90-9A2F-67CD82979CFF";
shapes = (
{
closed = 1;
nodes = (
(281,-180,ls),
(403,-180,o),
(475,-109,o),
(475,10,cs),
(475,550,l),
(425,550,l),
(425,10,ls),
(425,-84,o),
(375,-135,o),
(281,-135,cs),
(127,-135,l),
(127,-180,l)
);
},
{
closed = 1;
nodes = (
(177,0,l),
(177,550,l),
(127,550,l),
(127,0,l)
);
},
{
alignment = -1;
pos = (766,0);
ref = acutecomb;
},
{
alignment = -1;
pos = (471,0);
ref = acutecomb;
}
);
width = 600;
},
{
layerId = "CCC0BD40-BA8C-414E-B576-CF0B94E6C996";
shapes = (
{
closed = 1;
nodes = (
(274,-180,l),
(409,-180,o),
(495,-98,o),
(495,31,cs),
(495,550,l),
(405,550,l),
(405,31,ls),
(405,-51,o),
(357,-98,o),
(274,-98,c),
(108,-98,l),
(108,-180,l)
);
},
{
closed = 1;
nodes = (
(198,0,l),
(198,550,l),
(108,550,l),
(108,0,l)
);
},
{
alignment = -1;
pos = (765,0);
ref = acutecomb;
},
{
alignment = -1;
pos = (476,0);
ref = acutecomb;
}
);
width = 600;
},
{
layerId = "9ADF6715-3D0F-493D-8567-18A6FBCFC567";
shapes = (
{
closed = 1;
nodes = (
(291,-180,ls),
(429,-180,o),
(515,-96,o),
(515,40,cs),
(515,550,l),
(365,550,l),
(365,45,ls),
(365,-9,o),
(331,-45,o),
(280,-45,cs),
(85,-45,l),
(85,-180,l)
);
},
{
closed = 1;
nodes = (
(235,65,l),
(235,550,l),
(85,550,l),
(85,65,l)
);
},
{
alignment = -1;
pos = (760,0);
ref = acutecomb;
},
{
alignment = -1;
pos = (476,0);
ref = acutecomb;
}
);
width = 600;
}
);
},
{
glyphname = iogonek;
layers = (
{
layerId = "EDF5EB54-295C-4C90-9A2F-67CD82979CFF";
shapes = (
{
closed = 1;
nodes = (
(390,-195,l),
(390,-153,l),
(326,-153,ls),
(294,-153,o),
(275,-134,o),
(275,-103,cs),
(275,-75,o),
(298,-36,o),
(336,0,cs),
(347,10,l),
(310,10,l),
(259,-27,o),
(228,-74,o),
(228,-115,cs),
(228,-165,o),
(262,-195,o),
(317,-195,c)
);
},
{
ref = idotless;
},
{
pos = (615,0);
ref = dotaccentcomb;
}
);
width = 600;
},
{
layerId = "CCC0BD40-BA8C-414E-B576-CF0B94E6C996";
shapes = (
{
closed = 1;
nodes = (
(400,-203,l),
(400,-143,l),
(340,-143,ls),
(306,-143,o),
(285,-122,o),
(285,-93,cs),
(285,-65,o),
(304,-36,o),
(349,1,c),
(360,10,l),
(285,10,l),
(222,-34,o),
(200,-72,o),
(200,-110,cs),
(200,-164,o),
(248,-203,o),
(322,-203,cs)
);
},
{
ref = idotless;
},
{
pos = (615,0);
ref = dotaccentcomb;
}
);
width = 600;
},
{
layerId = "9ADF6715-3D0F-493D-8567-18A6FBCFC567";
shapes = (
{
closed = 1;
nodes = (
(424,-225,l),
(424,-120,l),
(355,-120,ls),
(326,-120,o),
(309,-103,o),
(309,-83,cs),
(309,-66,o),
(324,-42,o),
(350,-18,cs),
(382,11,l),
(296,11,l),
(228,-19,o),
(185,-68,o),
(185,-115,cs),
(185,-180,o),
(235,-225,o),
(316,-225,cs)
);
},
{
ref = idotless;
},
{
pos = (620,0);
ref = dotaccentcomb;
}
);
width = 600;
}
);
unicode = 303;
},
{
glyphname = jdotless;
layers = (
{
anchors = (
{
name = bottom;
pos = (300,-270);
},
{
name = top;
pos = (390,550);
}
);
layerId = "9ADF6715-3D0F-493D-8567-18A6FBCFC567";
shapes = (
{
closed = 1;
nodes = (
(246,-180,ls),
(384,-180,o),
(470,-96,o),
(470,40,cs),
(470,550,l),
(70,550,l),
(70,415,l),
(320,415,l),
(320,45,ls),
(320,-9,o),
(286,-45,o),
(235,-45,cs),
(75,-45,l),
(75,-180,l)
);
}
);
width = 600;
},
{
anchors = (
{
name = bottom;
pos = (295,-270);
},
{
name = top;
pos = (380,550);
}
);
layerId = "CCC0BD40-BA8C-414E-B576-CF0B94E6C996";
shapes = (
{
closed = 1;
nodes = (
(214,-180,ls),
(349,-180,o),
(435,-98,o),
(435,31,cs),
(435,550,l),
(85,550,l),
(85,468,l),
(345,468,l),
(345,31,ls),
(345,-51,o),
(297,-98,o),
(214,-98,cs),
(90,-98,l),
(90,-180,l)
);
}
);
width = 600;
},
{
anchors = (
{
name = bottom;
pos = (296,-270);
},
{
name = top;
pos = (380,550);
}
);
layerId = "EDF5EB54-295C-4C90-9A2F-67CD82979CFF";
shapes = (
{
closed = 1;
nodes = (
(226,-180,ls),
(348,-180,o),
(420,-109,o),
(420,10,cs),
(420,550,l),
(105,550,l),
(105,505,l),
(370,505,l),
(370,10,ls),
(370,-84,o),
(320,-135,o),
(226,-135,cs),
(110,-135,l),
(110,-180,l)
);
}
);
width = 600;
}
);
unicode = 567;
},
{
glyphname = k;
layers = (
{
anchors = (
{
name = bottom;
pos = (300,0);
},
{
name = top;
pos = (300,730);
}
);
layerId = "EDF5EB54-295C-4C90-9A2F-67CD82979CFF";
shapes = (
{
closed = 1;
nodes = (
(165,0,l),
(165,264,l),
(295,264,l),
(474,0,l),
(533,0,l),
(339,288,l),
(523,550,l),
(465,550,l),
(294,309,l),
(165,309,l),
(165,730,l),
(115,730,l),
(115,0,l)
);
}
);
width = 600;
},
{
anchors = (
{
name = bottom;
pos = (300,0);
},
{
name = top;
pos = (300,730);
}
);
layerId = "CCC0BD40-BA8C-414E-B576-CF0B94E6C996";
shapes = (
{
closed = 1;
nodes = (
(187,0,l),
(187,245,l),
(294,245,l),
(454,0,l),
(559,0,l),
(372,288,l),
(549,550,l),
(446,550,l),
(292,323,l),
(187,323,l),
(187,730,l),
(97,730,l),
(97,0,l)
);
}
);
width = 600;
},
{
anchors = (
{
name = bottom;
pos = (300,0);
},
{
name = top;
pos = (300,730);
}
);
layerId = "9ADF6715-3D0F-493D-8567-18A6FBCFC567";
shapes = (
{
closed = 1;
nodes = (
(221,0,l),
(221,216,l),
(296,216,l),
(412,0,l),
(580,0,l),
(424,281,l),
(577,550,l),
(412,550,l),
(297,342,l),
(221,342,l),
(221,730,l),
(71,730,l),
(71,0,l)
);
}
);
width = 600;
}
);
unicode = 107;
},
{
glyphname = l;
layers = (
{
anchors = (
{
name = bottom;
pos = (320,0);
},
{
name = center;
pos = (300,365);
},
{
name = top;
pos = (230,730);
}
);
layerId = "EDF5EB54-295C-4C90-9A2F-67CD82979CFF";
shapes = (
{
closed = 1;
nodes = (
(540,0,l),
(540,45,l),
(370,45,ls),
(311,45,o),
(280,76,o),
(280,135,cs),
(280,730,l),
(50,730,l),
(50,685,l),
(230,685,l),
(230,135,ls),
(230,48,o),
(280,0,o),
(370,0,cs)
);
}
);
width = 600;
},
{
anchors = (
{
name = bottom;
pos = (320,0);
},
{
name = center;
pos = (300,365);
},
{
name = top;
pos = (270,730);
}
);
layerId = "9ADF6715-3D0F-493D-8567-18A6FBCFC567";
shapes = (
{
closed = 1;
nodes = (
(565,0,l),
(565,135,l),
(410,135,ls),
(374,135,o),
(350,161,o),
(350,200,cs),
(350,730,l),
(25,730,l),
(25,595,l),
(200,595,l),
(200,195,ls),
(200,78,o),
(278,0,o),
(395,0,cs)
);
}
);
width = 600;
},
{
anchors = (
{
name = bottom;
pos = (320,0);
},
{
name = center;
pos = (300,365);
},
{
name = top;
pos = (240,730);
}
);
layerId = "CCC0BD40-BA8C-414E-B576-CF0B94E6C996";
shapes = (
{
closed = 1;
nodes = (
(550,0,l),
(550,82,l),
(380,82,ls),
(337,82,o),
(310,110,o),
(310,155,cs),
(310,730,l),
(30,730,l),
(30,648,l),
(220,648,l),
(220,155,ls),
(220,61,o),
(283,0,o),
(380,0,cs)
);
}
);
width = 600;
}
);
unicode = 108;
},
{
glyphname = lambdastroke;
layers = (
{
layerId = "EDF5EB54-295C-4C90-9A2F-67CD82979CFF";
shapes = (
{
closed = 1;
nodes = (
(470,692,l),
(470,740,l),
(90,550,l),
(90,502,l)
);
},
{
ref = lambda;
}
);
width = 600;
},
{
layerId = "CCC0BD40-BA8C-414E-B576-CF0B94E6C996";
shapes = (
{
closed = 1;
nodes = (
(470,660,l),
(470,740,l),
(90,550,l),
(90,470,l)
);
},
{
ref = lambda;
}
);
width = 600;
},
{
layerId = "9ADF6715-3D0F-493D-8567-18A6FBCFC567";
shapes = (
{
closed = 1;
nodes = (
(470,635,l),
(470,740,l),
(90,550,l),
(90,445,l)
);
},
{
ref = lambda;
}
);
width = 600;
}
);
unicode = 411;
},
{
glyphname = lslash;
layers = (
{
layerId = "9ADF6715-3D0F-493D-8567-18A6FBCFC567";
shapes = (
{
closed = 1;
nodes = (
(480,420,l),
(480,560,l),
(100,370,l),
(100,230,l)
);
},
{
alignment = -1;
ref = l;
}
);
width = 600;
},
{
layerId = "CCC0BD40-BA8C-414E-B576-CF0B94E6C996";
shapes = (
{
closed = 1;
nodes = (
(470,480,l),
(470,560,l),
(100,310,l),
(100,230,l)
);
},
{
alignment = -1;
ref = l;
}
);
width = 600;
},
{
layerId = "EDF5EB54-295C-4C90-9A2F-67CD82979CFF";
shapes = (
{
closed = 1;
nodes = (
(470,495,l),
(470,550,l),
(100,295,l),
(100,240,l)
);
},
{
alignment = -1;
ref = l;
}
);
width = 600;
}
);
unicode = 322;
},
{
glyphname = m;
layers = (
{
anchors = (
{
name = bottom;
pos = (300,0);
},
{
name = top;
pos = (300,550);
}
);
layerId = "EDF5EB54-295C-4C90-9A2F-67CD82979CFF";
shapes = (
{
closed = 1;
nodes = (
(124,0,l),
(124,425,ls),
(124,482,o),
(154,518,o),
(201,518,cs),
(247,518,o),
(276,482,o),
(276,425,cs),
(276,0,l),
(324,0,l),
(324,425,ls),
(324,482,o),
(354,518,o),
(401,518,cs),
(447,518,o),
(476,482,o),
(476,425,cs),
(476,0,l),
(525,0,l),
(525,431,ls),
(525,510,o),
(483,560,o),
(416,560,cs),
(355,560,o),
(317,522,o),
(317,461,c),
(326,475,l),
(313,475,l),
(322,461,l),
(314,522,o),
(273,560,o),
(216,560,cs),
(158,560,o),
(121,522,o),
(121,461,c),
(125,475,l),
(119,475,l),
(119,550,l),
(75,550,l),
(75,0,l)
);
}
);
width = 600;
},
{
anchors = (
{
name = bottom;
pos = (300,0);
},
{
name = top;
pos = (300,550);
}
);
layerId = "9ADF6715-3D0F-493D-8567-18A6FBCFC567";
shapes = (
{
closed = 1;
nodes = (
(167,0,l),
(167,403,ls),
(167,434,o),
(180,451,o),
(205,451,cs),
(230,451,o),
(241,434,o),
(241,403,cs),
(241,0,l),
(359,0,l),
(359,403,ls),
(359,434,o),
(370,451,o),
(395,451,cs),
(420,451,o),
(433,434,o),
(433,403,cs),
(433,0,l),
(562,0,l),
(562,420,ls),
(562,502,o),
(511,560,o),
(446,560,cs),
(390,560,o),
(351,518,o),
(351,454,c),
(361,465,l),
(333,465,l),
(354,440,l),
(354,510,o),
(311,560,o),
(255,560,cs),
(199,560,o),
(163,516,o),
(163,454,c),
(182,465,l),
(161,465,l),
(161,550,l),
(38,550,l),
(38,0,l)
);
}
);
width = 600;
},
{
anchors = (
{
name = bottom;
pos = (300,0);
},
{
name = top;
pos = (300,550);
}
);
layerId = "CCC0BD40-BA8C-414E-B576-CF0B94E6C996";
shapes = (
{
closed = 1;
nodes = (
(144,0,l),
(144,420,ls),
(144,464,o),
(167,491,o),
(204,491,cs),
(240,491,o),
(263,463,o),
(263,419,cs),
(263,0,l),
(337,0,l),
(337,420,ls),
(337,464,o),
(360,491,o),
(396,491,cs),
(433,491,o),
(456,463,o),
(456,419,cs),
(456,0,l),
(540,0,l),
(540,418,ls),
(540,502,o),
(494,560,o),
(424,560,cs),
(366,560,o),
(329,521,o),
(328,460,c),
(351,482,l),
(309,482,l),
(336,430,l),
(336,507,o),
(296,560,o),
(232,560,cs),
(176,560,o),
(139,519,o),
(139,460,c),
(158,477,l),
(138,477,l),
(138,550,l),
(60,550,l),
(60,0,l)
);
}
);
width = 600;
}
);
unicode = 109;
},
{
glyphname = n;
layers = (
{
anchors = (
{
name = bottom;
pos = (300,0);
},
{
name = top;
pos = (305,550);
}
);
layerId = "EDF5EB54-295C-4C90-9A2F-67CD82979CFF";
shapes = (
{
closed = 1;
nodes = (
(160,0,l),
(160,360,ls),
(160,457,o),
(215,517,o),
(303,517,cs),
(389,517,o),
(442,459,o),
(442,360,cs),
(442,0,l),
(492,0,l),
(492,367,ls),
(492,485,o),
(421,560,o),
(313,560,cs),
(214,560,o),
(152,500,o),
(152,404,c),
(173,455,l),
(160,455,l),
(160,550,l),
(110,550,l),
(110,0,l)
);
}
);
width = 600;
},
{
anchors = (
{
name = bottom;
pos = (300,0);
},
{
name = top;
pos = (305,550);
}
);
layerId = "9ADF6715-3D0F-493D-8567-18A6FBCFC567";
shapes = (
{
closed = 1;
nodes = (
(216,0,l),
(216,340,ls),
(216,397,o),
(248,430,o),
(301,430,cs),
(354,430,o),
(386,397,o),
(386,340,cs),
(386,0,l),
(536,0,l),
(536,355,ls),
(536,479,o),
(466,560,o),
(359,560,cs),
(269,560,o),
(207,499,o),
(206,410,c),
(255,445,l),
(211,445,l),
(211,550,l),
(66,550,l),
(66,0,l)
);
}
);
width = 600;
},
{
anchors = (
{
name = bottom;
pos = (300,0);
},
{
name = top;
pos = (305,550);
}
);
layerId = "CCC0BD40-BA8C-414E-B576-CF0B94E6C996";
shapes = (
{
closed = 1;
nodes = (
(182,0,l),
(182,350,ls),
(182,435,o),
(228,484,o),
(303,484,cs),
(375,484,o),
(420,438,o),
(420,354,cs),
(420,0,l),
(510,0,l),
(510,370,ls),
(510,487,o),
(439,560,o),
(329,560,cs),
(237,560,o),
(182,510,o),
(182,424,c),
(201,445,l),
(182,445,l),
(182,550,l),
(92,550,l),
(92,0,l)
);
}
);
width = 600;
}
);
unicode = 110;
},
{
glyphname = eng;
layers = (
{
layerId = "9ADF6715-3D0F-493D-8567-18A6FBCFC567";
shapes = (
{
closed = 1;
nodes = (
(296,-180,ls),
(437,-180,o),
(536,-96,o),
(536,25,cs),
(536,355,ls),
(536,479,o),
(466,560,o),
(359,560,cs),
(268,560,o),
(211,503,o),
(211,410,c),
(255,445,l),
(211,445,l),
(211,550,l),
(66,550,l),
(66,0,l),
(216,0,l),
(216,340,ls),
(216,397,o),
(247,430,o),
(300,430,cs),
(354,430,o),
(386,397,o),
(386,340,cs),
(386,41,ls),
(386,-7,o),
(357,-35,o),
(306,-35,cs),
(246,-35,l),
(246,-180,l)
);
}
);
width = 600;
},
{
layerId = "CCC0BD40-BA8C-414E-B576-CF0B94E6C996";
shapes = (
{
closed = 1;
nodes = (
(303,-180,ls),
(427,-180,o),
(508,-103,o),
(508,15,cs),
(508,370,ls),
(508,487,o),
(439,560,o),
(329,560,cs),
(237,560,o),
(184,510,o),
(184,424,c),
(203,445,l),
(184,445,l),
(184,550,l),
(94,550,l),
(94,0,l),
(184,0,l),
(184,350,ls),
(184,435,o),
(228,484,o),
(303,484,cs),
(375,484,o),
(418,438,o),
(418,360,cs),
(418,15,ls),
(418,-55,o),
(374,-98,o),
(303,-98,cs),
(240,-98,l),
(240,-180,l)
);
}
);
width = 600;
},
{
layerId = "EDF5EB54-295C-4C90-9A2F-67CD82979CFF";
shapes = (
{
closed = 1;
nodes = (
(286,-180,ls),
(411,-180,o),
(492,-104,o),
(492,15,cs),
(492,367,ls),
(492,485,o),
(421,560,o),
(313,560,cs),
(215,560,o),
(153,499,o),
(153,404,c),
(183,455,l),
(160,455,l),
(160,550,l),
(110,550,l),
(110,0,l),
(160,0,l),
(160,360,ls),
(160,457,o),
(215,517,o),
(303,517,cs),
(388.997,517,o),
(442,459,o),
(442,360,cs),
(442,15,ls),
(442,-78,o),
(382,-135,o),
(286,-135,cs),
(245,-135,l),
(245,-180,l)
);
}
);
width = 600;
}
);
unicode = 331;
},
{
glyphname = o;
layers = (
{
anchors = (
{
name = bottom;
pos = (300,0);
},
{
name = center;
pos = (300,275);
},
{
name = horn;
pos = (320,550);
},
{
name = ogonek;
pos = (345,0);
},
{
name = top;
pos = (300,550);
},
{
name = topright;
pos = (580,550);
}
);
layerId = "9ADF6715-3D0F-493D-8567-18A6FBCFC567";
shapes = (
{
closed = 1;
nodes = (
(447,-10,o),
(540,78,o),
(540,210,cs),
(540,340,ls),
(540,472,o),
(447,560,o),
(300,560,cs),
(153,560,o),
(60,472,o),
(60,340,cs),
(60,210,ls),
(60,78,o),
(153,-10,o),
(300,-10,cs)
);
},
{
closed = 1;
nodes = (
(242,120,o),
(210,152,o),
(210,210,cs),
(210,340,ls),
(210,398,o),
(242,430,o),
(300,430,cs),
(358,430,o),
(390,398,o),
(390,340,cs),
(390,210,ls),
(390,152,o),
(358,120,o),
(300,120,cs)
);
}
);
width = 600;
},
{
anchors = (
{
name = bottom;
pos = (300,0);
},
{
name = center;
pos = (300,275);
},
{
name = horn;
pos = (320,550);
},
{
name = ogonek;
pos = (355,0);
},
{
name = top;
pos = (300,550);
},
{
name = topright;
pos = (580,550);
}
);
layerId = "EDF5EB54-295C-4C90-9A2F-67CD82979CFF";
shapes = (
{
closed = 1;
nodes = (
(419,-10,o),
(495,68,o),
(495,190,cs),
(495,360,ls),
(495,481,o),
(418,560,o),
(300,560,cs),
(182,560,o),
(105,481,o),
(105,360,cs),
(105,190,ls),
(105,68,o),
(182,-10,o),
(300,-10,cs)
);
},
{
closed = 1;
nodes = (
(208,34,o),
(155,91,o),
(155,190,cs),
(155,360,ls),
(155,458,o),
(209,516,o),
(300,516,cs),
(391,516,o),
(445,458,o),
(445,360,cs),
(445,190,ls),
(445,91,o),
(392,34,o),
(300,34,cs)
);
}
);
width = 600;
},
{
anchors = (
{
name = bottom;
pos = (300,0);
},
{
name = center;
pos = (300,275);
},
{
name = horn;
pos = (332,550);
},
{
name = ogonek;
pos = (350,0);
},
{
name = top;
pos = (300,550);
},
{
name = topright;
pos = (580,550);
}
);
layerId = "CCC0BD40-BA8C-414E-B576-CF0B94E6C996";
shapes = (
{
closed = 1;
nodes = (
(432,-8,o),
(516,73,o),
(516,212,cs),
(516,338,ls),
(516,478,o),
(433,558,o),
(300,558,cs),
(167,558,o),
(84,478,o),
(84,338,cs),
(84,212,ls),
(84,73,o),
(168,-8,o),
(300,-8,cs)
);
},
{
closed = 1;
nodes = (
(222,72,o),
(174,117,o),
(174,202,cs),
(174,348,ls),
(174,433,o),
(222,478,o),
(300,478,cs),
(378,478,o),
(426,433,o),
(426,348,cs),
(426,202,ls),
(426,117,o),
(378,72,o),
(300,72,cs)
);
}
);
width = 600;
}
);
unicode = 111;
},
{
glyphname = ohorn;
layers = (
{
anchors = (
{
name = top;
pos = (290,550);
}
);
layerId = "EDF5EB54-295C-4C90-9A2F-67CD82979CFF";
shapes = (
{
closed = 1;
nodes = (
(425,495,ls),
(476,495,o),
(510,529,o),
(510,580,cs),
(510,640,l),
(470,640,l),
(470,580,ls),
(470,550,o),
(452,530,o),
(425,530,cs),
(390,530,l),
(390,495,l)
);
},
{
ref = o;
}
);
width = 600;
},
{
anchors = (
{
name = top;
pos = (290,550);
}
);
layerId = "CCC0BD40-BA8C-414E-B576-CF0B94E6C996";
shapes = (
{
closed = 1;
nodes = (
(435,465,ls),
(498,465,o),
(540,503,o),
(540,560,cs),
(540,640,l),
(465,640,l),
(465,565,ls),
(465,542,o),
(453,530,o),
(430,530,cs),
(396,530,l),
(396,465,l)
);
},
{
ref = o;
}
);
width = 600;
},
{
anchors = (
{
name = top;
pos = (290,550);
}
);
layerId = "9ADF6715-3D0F-493D-8567-18A6FBCFC567";
shapes = (
{
closed = 1;
nodes = (
(435,430,ls),
(522,430,o),
(580,484,o),
(580,565,cs),
(580,640,l),
(460,640,l),
(460,565,ls),
(460,543,o),
(447,530,o),
(425,530,cs),
(365,530,l),
(365,430,l)
);
},
{
ref = o;
}
);
width = 600;
}
);
unicode = 417;
},
{
glyphname = oogonek;
layers = (
{
anchors = (
{
name = horn;
pos = (320,550);
},
{
name = top;
pos = (300,550);
}
);
layerId = "9ADF6715-3D0F-493D-8567-18A6FBCFC567";
shapes = (
{
closed = 1;
nodes = (
(467,-225,l),
(467,-120,l),
(398,-120,ls),
(369,-120,o),
(352,-103,o),
(352,-83,cs),
(352,-66,o),
(366,-41,o),
(393,-18,cs),
(449,31,l),
(503,70,o),
(540,135,o),
(540,210,cs),
(540,340,ls),
(540,472,o),
(447,560,o),
(300,560,cs),
(153,560,o),
(60,472,o),
(60,340,cs),
(60,210,ls),
(60,78,o),
(153,-10,o),
(300,-10,cs),
(321,-10,o),
(363,12,o),
(363,31,c),
(271,-19,o),
(228,-68,o),
(228,-115,cs),
(228,-180,o),
(278,-225,o),
(359,-225,cs)
);
},
{
closed = 1;
nodes = (
(242,120,o),
(210,152,o),
(210,210,cs),
(210,340,ls),
(210,398,o),
(242,430,o),
(300,430,cs),
(358,430,o),
(390,398,o),
(390,340,cs),
(390,210,ls),
(390,152,o),
(358,120,o),
(300,120,cs)
);
}
);
width = 600;
},
{
anchors = (
{
name = horn;
pos = (332,550);
},
{
name = top;
pos = (300,550);
}
);
layerId = "CCC0BD40-BA8C-414E-B576-CF0B94E6C996";
shapes = (
{
closed = 1;
nodes = (
(450,-203,l),
(450,-143,l),
(390,-143,ls),
(356,-143,o),
(335,-122,o),
(335,-93,cs),
(335,-65,o),
(354,-36,o),
(399,1,cs),
(423,21,l),
(480,55,o),
(512,117,o),
(512,200,cs),
(512,351,ls),
(512,481,o),
(431,560,o),
(300,560,cs),
(169,560,o),
(88,481,o),
(88,350,cs),
(88,200,ls),
(88,69,o),
(169,-10,o),
(300,-10,cs),
(303,-10,o),
(306,-10,o),
(309,-10,c),
(263,-51,o),
(250,-81,o),
(250,-110,cs),
(250,-164,o),
(298,-203,o),
(372,-203,cs)
);
},
{
closed = 1;
nodes = (
(222,70,o),
(178,115,o),
(178,200,cs),
(178,350,ls),
(178,435,o),
(222,480,o),
(300,480,cs),
(378,480,o),
(422,435,o),
(422,350,cs),
(422,200,ls),
(422,115,o),
(378,70,o),
(300,70,cs)
);
}
);
width = 600;
},
{
anchors = (
{
name = horn;
pos = (320,550);
},
{
name = top;
pos = (300,550);
}
);
layerId = "EDF5EB54-295C-4C90-9A2F-67CD82979CFF";
shapes = (
{
closed = 1;
nodes = (
(446,-195,l),
(446,-153,l),
(382,-153,ls),
(350,-153,o),
(331,-134,o),
(331,-103,cs),
(331,-75,o),
(354,-36,o),
(392,0,cs),
(419,25,l),
(467,59,o),
(495,116,o),
(495,190,cs),
(495,360,ls),
(495,481,o),
(418,560,o),
(300,560,cs),
(182,560,o),
(105,481,o),
(105,360,cs),
(105,190,ls),
(105,68,o),
(182,-10,o),
(300,-10,cs),
(316,-10,o),
(332,-9,o),
(346,-6,c),
(303,-47,o),
(284,-83,o),
(284,-115,cs),
(284,-165,o),
(318,-195,o),
(373,-195,cs)
);
},
{
closed = 1;
nodes = (
(208,34,o),
(155,91,o),
(155,190,cs),
(155,360,ls),
(155,458,o),
(209,516,o),
(300,516,cs),
(391,516,o),
(445,458,o),
(445,360,cs),
(445,190,ls),
(445,91,o),
(392,34,o),
(300,34,cs)
);
}
);
width = 600;
}
);
unicode = 491;
},
{
glyphname = oslash;
layers = (
{
anchors = (
{
name = bottom;
pos = (300,0);
},
{
name = horn;
pos = (320,550);
},
{
name = top;
pos = (300,550);
}
);
layerId = "9ADF6715-3D0F-493D-8567-18A6FBCFC567";
shapes = (
{
closed = 1;
nodes = (
(140,-30,l),
(575,590,l),
(460,590,l),
(25,-30,l)
);
},
{
closed = 1;
nodes = (
(447,-10,o),
(540,78,o),
(540,210,cs),
(540,340,ls),
(540,472,o),
(447,560,o),
(300,560,cs),
(153,560,o),
(60,472,o),
(60,340,cs),
(60,210,ls),
(60,78,o),
(153,-10,o),
(300,-10,cs)
);
},
{
closed = 1;
nodes = (
(237,120,o),
(200,154,o),
(200,210,cs),
(200,340,ls),
(200,396,o),
(237,430,o),
(300,430,cs),
(363,430,o),
(400,396,o),
(400,340,cs),
(400,210,ls),
(400,154,o),
(363,120,o),
(300,120,cs)
);
}
);
width = 600;
},
{
anchors = (
{
name = bottom;
pos = (300,0);
},
{
name = horn;
pos = (332,550);
},
{
name = top;
pos = (300,550);
}
);
layerId = "CCC0BD40-BA8C-414E-B576-CF0B94E6C996";
shapes = (
{
closed = 1;
nodes = (
(125,-30,l),
(565,590,l),
(474,590,l),
(35,-30,l)
);
},
{
closed = 1;
nodes = (
(431,-10,o),
(512,69,o),
(512,200,cs),
(512,351,ls),
(512,481,o),
(431,560,o),
(300,560,cs),
(169,560,o),
(88,481,o),
(88,350,cs),
(88,200,ls),
(88,69,o),
(169,-10,o),
(300,-10,cs)
);
},
{
closed = 1;
nodes = (
(220,70,o),
(173,118,o),
(173,200,cs),
(173,350,ls),
(173,432,o),
(220,480,o),
(300,480,cs),
(380,480,o),
(427,432,o),
(427,350,cs),
(427,200,ls),
(427,118,o),
(380,70,o),
(300,70,cs)
);
}
);
width = 600;
},
{
anchors = (
{
name = bottom;
pos = (300,0);
},
{
name = horn;
pos = (320,550);
},
{
name = top;
pos = (300,550);
}
);
layerId = "EDF5EB54-295C-4C90-9A2F-67CD82979CFF";
shapes = (
{
closed = 1;
nodes = (
(108,-30,l),
(541,590,l),
(492,590,l),
(59,-30,l)
);
},
{
closed = 1;
nodes = (
(419,-10,o),
(495,68,o),
(495,190,cs),
(495,360,ls),
(495,481,o),
(418,560,o),
(300,560,cs),
(182,560,o),
(105,481,o),
(105,360,cs),
(105,190,ls),
(105,68,o),
(182,-10,o),
(300,-10,cs)
);
},
{
closed = 1;
nodes = (
(208,34,o),
(155,91,o),
(155,190,cs),
(155,360,ls),
(155,458,o),
(209,516,o),
(300,516,cs),
(391,516,o),
(445,458,o),
(445,360,cs),
(445,190,ls),
(445,91,o),
(392,34,o),
(300,34,cs)
);
}
);
width = 600;
}
);
unicode = 248;
},
{
glyphname = oe;
layers = (
{
layerId = "9ADF6715-3D0F-493D-8567-18A6FBCFC567";
shapes = (
{
closed = 1;
nodes = (
(254,-10,o),
(290,33,o),
(296,65,c),
(304,65,l),
(309,33,o),
(343,-10,o),
(420,-10,cs),
(507,-10,o),
(565,50,o),
(565,140,c),
(450,140,l),
(450,106,o),
(433,87,o),
(404,87,cs),
(375,87,o),
(357,107,o),
(357,140,cs),
(357,250,l),
(565,250,l),
(565,410,ls),
(565,500,o),
(507,560,o),
(420,560,cs),
(343,560,o),
(309,517,o),
(304,485,c),
(296,485,l),
(290,517,o),
(254,560,o),
(180,560,cs),
(93,560,o),
(35,500,o),
(35,410,cs),
(35,140,ls),
(35,50,o),
(93,-10,o),
(180,-10,cs)
);
},
{
closed = 1;
nodes = (
(168,87,o),
(150,107,o),
(150,140,cs),
(150,410,ls),
(150,443,o),
(168,463,o),
(197,463,cs),
(226,463,o),
(243,444,o),
(243,410,cs),
(243,140,ls),
(243,106,o),
(226,87,o),
(197,87,cs)
);
},
{
closed = 1;
nodes = (
(357,410,ls),
(357,443,o),
(374,463,o),
(404,463,cs),
(433,463,o),
(450,444,o),
(450,410,cs),
(450,330,l),
(357,330,l)
);
}
);
width = 600;
},
{
layerId = "CCC0BD40-BA8C-414E-B576-CF0B94E6C996";
shapes = (
{
closed = 1;
nodes = (
(260,-10,o),
(295,36,o),
(298,70,c),
(302,70,l),
(305,36,o),
(340,-10,o),
(420,-10,cs),
(494,-10,o),
(549,42,o),
(562,125,c),
(477,125,l),
(471,90,o),
(444,67,o),
(410,67,cs),
(369,67,o),
(343,99,o),
(343,150,cs),
(343,250,l),
(565,250,l),
(565,400,ls),
(565,498,o),
(509,560,o),
(420,560,cs),
(340,560,o),
(305,514,o),
(302,480,c),
(298,480,l),
(295,514,o),
(260,560,o),
(180,560,cs),
(91,560,o),
(35,498,o),
(35,400,cs),
(35,150,ls),
(35,52,o),
(91,-10,o),
(180,-10,cs)
);
},
{
closed = 1;
nodes = (
(147,67,o),
(120,99,o),
(120,150,cs),
(120,400,ls),
(120,451,o),
(147,483,o),
(190,483,cs),
(231,483,o),
(257,451,o),
(257,400,cs),
(257,150,ls),
(257,99,o),
(231,67,o),
(190,67,cs)
);
},
{
closed = 1;
nodes = (
(343,400,ls),
(343,451,o),
(369,483,o),
(410,483,cs),
(453,483,o),
(480,451,o),
(480,400,cs),
(480,323,l),
(343,323,l)
);
}
);
width = 600;
},
{
layerId = "EDF5EB54-295C-4C90-9A2F-67CD82979CFF";
shapes = (
{
closed = 1;
nodes = (
(255,-10,o),
(294,38,o),
(301,75,c),
(304,75,l),
(311,38,o),
(349,-10,o),
(426,-10,cs),
(507,-10,o),
(564,43,o),
(571,125,c),
(521,125,l),
(516,71,o),
(477,34,o),
(423,34,cs),
(366,34,o),
(327,77,o),
(327,140,cs),
(327,260,l),
(565,260,l),
(565,410,ls),
(565,501,o),
(510,560,o),
(423,560,cs),
(352,560,o),
(313,511,o),
(304,474,c),
(302,474,l),
(295,511,o),
(257,560,o),
(180,560,cs),
(92,560,o),
(35,500,o),
(35,408,cs),
(35,139,ls),
(35,48,o),
(89,-10,o),
(174,-10,cs)
);
},
{
closed = 1;
nodes = (
(125,34,o),
(86,76,o),
(86,139,cs),
(86,408,ls),
(86,473,o),
(125,516,o),
(183,516,cs),
(240,516,o),
(278,473,o),
(278,410,cs),
(278,140,ls),
(278,77,o),
(240,34,o),
(183,34,cs)
);
},
{
closed = 1;
nodes = (
(327,410,ls),
(327,473,o),
(364,516,o),
(420,516,cs),
(477,516,o),
(515,473,o),
(515,410,cs),
(515,310,l),
(327,310,l)
);
}
);
width = 600;
}
);
unicode = 339;
},
{
glyphname = p;
layers = (
{
anchors = (
{
name = bottom;
pos = (300,0);
},
{
name = top;
pos = (300,550);
}
);
layerId = "EDF5EB54-295C-4C90-9A2F-67CD82979CFF";
shapes = (
{
closed = 1;
nodes = (
(160,-180,l),
(160,0,l),
(160,95,l),
(178,95,l),
(150,140,l),
(150,50,o),
(216,-10,o),
(313,-10,cs),
(422,-10,o),
(495,70,o),
(495,190,cs),
(495,361,ls),
(495,481,o),
(423,560,o),
(313,560,cs),
(215,560,o),
(150,500,o),
(150,410,c),
(178,455,l),
(160,455,l),
(160,550,l),
(110,550,l),
(110,-180,l)
);
},
{
closed = 1;
nodes = (
(213,33,o),
(160,91,o),
(160,190,cs),
(160,361,ls),
(160,459,o),
(213,517,o),
(303,517,cs),
(392,517,o),
(445,459,o),
(445,361,cs),
(445,190,ls),
(445,91,o),
(392,33,o),
(303,33,cs)
);
}
);
width = 600;
},
{
anchors = (
{
name = bottom;
pos = (300,0);
},
{
name = top;
pos = (300,550);
}
);
layerId = "CCC0BD40-BA8C-414E-B576-CF0B94E6C996";
shapes = (
{
closed = 1;
nodes = (
(182,-180,l),
(182,-20,l),
(180,105,l),
(200,105,l),
(182,126,l),
(182,43,o),
(242,-10,o),
(332,-10,cs),
(443,-10,o),
(513,68,o),
(513,195,cs),
(513,356,ls),
(513,482,o),
(442,560,o),
(332,560,cs),
(241,560,o),
(182,508,o),
(182,424,c),
(200,445,l),
(182,445,l),
(182,550,l),
(92,550,l),
(92,-180,l)
);
},
{
closed = 1;
nodes = (
(228,68,o),
(182,117,o),
(182,200,cs),
(182,350,ls),
(182,433,o),
(228,482,o),
(302,482,cs),
(378,482,o),
(423,445,o),
(423,355,cs),
(423,195,ls),
(423,105,o),
(378,68,o),
(302,68,cs)
);
}
);
width = 600;
},
{
anchors = (
{
name = bottom;
pos = (300,0);
},
{
name = top;
pos = (300,550);
}
);
layerId = "9ADF6715-3D0F-493D-8567-18A6FBCFC567";
shapes = (
{
closed = 1;
nodes = (
(216,-180,l),
(216,-30,l),
(211,114,l),
(246,114,l),
(197,190,l),
(197,67,o),
(261,-10,o),
(362,-10,cs),
(468,-10,o),
(540,78,o),
(540,205,cs),
(540,345,ls),
(540,472,o),
(468,560,o),
(362,560,cs),
(261,560,o),
(197,483,o),
(197,360,c),
(246,435,l),
(211,435,l),
(211,550,l),
(66,550,l),
(66,-180,l)
);
},
{
closed = 1;
nodes = (
(247,120,o),
(216,154,o),
(216,215,cs),
(216,335,ls),
(216,396,o),
(247,430,o),
(304,430,cs),
(359,430,o),
(390,398,o),
(390,340,cs),
(390,210,ls),
(390,152,o),
(359,120,o),
(304,120,cs)
);
}
);
width = 600;
}
);
unicode = 112;
},
{
glyphname = thorn;
layers = (
{
layerId = "9ADF6715-3D0F-493D-8567-18A6FBCFC567";
shapes = (
{
closed = 1;
nodes = (
(211,-170,l),
(211,50,l),
(66,50,l),
(66,-170,l)
);
},
{
alignment = -1;
ref = b;
}
);
width = 600;
},
{
layerId = "CCC0BD40-BA8C-414E-B576-CF0B94E6C996";
shapes = (
{
closed = 1;
nodes = (
(177,-170,l),
(177,59,l),
(87,59,l),
(87,-170,l)
);
},
{
alignment = -1;
pos = (-5,0);
ref = b;
}
);
width = 600;
},
{
layerId = "EDF5EB54-295C-4C90-9A2F-67CD82979CFF";
shapes = (
{
closed = 1;
nodes = (
(160,-180,l),
(160,59,l),
(110,59,l),
(110,-180,l)
);
},
{
alignment = -1;
ref = b;
}
);
width = 600;
}
);
unicode = 254;
},
{
glyphname = q;
layers = (
{
anchors = (
{
name = bottom;
pos = (300,0);
},
{
name = top;
pos = (300,550);
}
);
layerId = "9ADF6715-3D0F-493D-8567-18A6FBCFC567";
shapes = (
{
closed = 1;
nodes = (
(534,-180,l),
(534,550,l),
(389,550,l),
(389,435,l),
(354,435,l),
(403,360,l),
(403,484,o),
(340,560,o),
(238,560,cs),
(132,560,o),
(60,476,o),
(60,345,cs),
(60,205,ls),
(60,74,o),
(132,-10,o),
(238,-10,cs),
(340,-10,o),
(403,66,o),
(403,190,c),
(354,95,l),
(389,95,l),
(384,-30,l),
(384,-180,l)
);
},
{
closed = 1;
nodes = (
(241,120,o),
(210,152,o),
(210,210,cs),
(210,340,ls),
(210,398,o),
(241,430,o),
(296,430,cs),
(353,430,o),
(384,396,o),
(384,335,cs),
(384,215,ls),
(384,154,o),
(353,120,o),
(296,120,cs)
);
}
);
width = 600;
},
{
anchors = (
{
name = bottom;
pos = (300,0);
},
{
name = top;
pos = (300,550);
}
);
layerId = "CCC0BD40-BA8C-414E-B576-CF0B94E6C996";
shapes = (
{
closed = 1;
nodes = (
(508,-180,l),
(508,550,l),
(418,550,l),
(418,445,l),
(400,445,l),
(418,424,l),
(418,508,o),
(359,560,o),
(268,560,cs),
(158,560,o),
(87,482,o),
(87,356,cs),
(87,195,ls),
(87,68,o),
(157,-10,o),
(268,-10,cs),
(358,-10,o),
(418,43,o),
(418,126,c),
(400,105,l),
(420,105,l),
(418,-20,l),
(418,-180,l)
);
},
{
closed = 1;
nodes = (
(222,68,o),
(177,105,o),
(177,190,cs),
(177,360,ls),
(177,445,o),
(222,482,o),
(298,482,cs),
(372,482,o),
(418,433,o),
(418,350,cs),
(418,200,ls),
(418,117,o),
(372,68,o),
(298,68,cs)
);
}
);
width = 600;
},
{
anchors = (
{
name = bottom;
pos = (300,0);
},
{
name = top;
pos = (300,550);
}
);
layerId = "EDF5EB54-295C-4C90-9A2F-67CD82979CFF";
shapes = (
{
closed = 1;
nodes = (
(490,-180,l),
(490,550,l),
(440,550,l),
(440,475,l),
(412,475,l),
(450,410,l),
(450,501,o),
(383,560,o),
(287,560,cs),
(177,560,o),
(105,481,o),
(105,361,cs),
(105,190,ls),
(105,70,o),
(177,-10,o),
(287,-10,cs),
(383,-10,o),
(450,49,o),
(450,140,c),
(422,75,l),
(440,75,l),
(440,-30,l),
(440,-180,l)
);
},
{
closed = 1;
nodes = (
(208,33,o),
(155,92,o),
(155,190,cs),
(155,361,ls),
(155,459,o),
(208,517,o),
(297,517,cs),
(387,517,o),
(440,459,o),
(440,361,cs),
(440,190,ls),
(440,92,o),
(388,33,o),
(297,33,cs)
);
}
);
width = 600;
}
);
unicode = 113;
},
{
glyphname = r;
layers = (
{
anchors = (
{
name = bottom;
pos = (135,0);
},
{
name = top;
pos = (320,550);
}
);
layerId = "EDF5EB54-295C-4C90-9A2F-67CD82979CFF";
shapes = (
{
closed = 1;
nodes = (
(182,0,l),
(182,360,ls),
(182,460,o),
(231,517,o),
(320,517,cs),
(411,517,o),
(458,463,o),
(458,365,cs),
(458,315,l),
(508,315,l),
(508,365,ls),
(508,489,o),
(449,560,o),
(328,560,cs),
(231,560,o),
(172,497,o),
(171,397,c),
(194,455,l),
(182,455,l),
(182,550,l),
(132,550,l),
(132,0,l)
);
}
);
width = 600;
},
{
anchors = (
{
name = bottom;
pos = (145,0);
},
{
name = top;
pos = (320,550);
}
);
layerId = "9ADF6715-3D0F-493D-8567-18A6FBCFC567";
shapes = (
{
closed = 1;
nodes = (
(236,0,l),
(236,328,ls),
(236,393,o),
(268,430,o),
(324,430,cs),
(380,430,o),
(412,397,o),
(412,340,cs),
(412,295,l),
(562,295,l),
(562,350,ls),
(562,481,o),
(496,560,o),
(385,560,cs),
(287,560,o),
(226,498,o),
(226,400,c),
(275,435,l),
(231,435,l),
(231,550,l),
(86,550,l),
(86,0,l)
);
}
);
width = 600;
},
{
anchors = (
{
name = bottom;
pos = (145,0);
},
{
name = top;
pos = (320,550);
}
);
layerId = "CCC0BD40-BA8C-414E-B576-CF0B94E6C996";
shapes = (
{
closed = 1;
nodes = (
(202,0,l),
(202,350,ls),
(202,435,o),
(244,482,o),
(323,482,cs),
(399,482,o),
(440,443,o),
(440,362,cs),
(440,315,l),
(530,315,l),
(530,362,ls),
(530,488,o),
(465,560,o),
(351,560,cs),
(257,560,o),
(202,506,o),
(202,421,c),
(221,445,l),
(202,445,l),
(202,550,l),
(112,550,l),
(112,0,l)
);
}
);
width = 600;
}
);
unicode = 114;
},
{
glyphname = s;
layers = (
{
anchors = (
{
name = bottom;
pos = (300,0);
},
{
name = top;
pos = (300,550);
}
);
layerId = "EDF5EB54-295C-4C90-9A2F-67CD82979CFF";
shapes = (
{
closed = 1;
nodes = (
(342,-10,ls),
(444,-10,o),
(510,52,o),
(510,147,cs),
(510,228,o),
(456,292,o),
(372,303,cs),
(253,318,ls),
(185,327,o),
(148,357,o),
(148,412,cs),
(148,475,o),
(196,515,o),
(271,515,cs),
(325,515,ls),
(395,515,o),
(444,477,o),
(452,425,c),
(502,425,l),
(492,506,o),
(425,560,o),
(325,560,cs),
(271,560,ls),
(165,560,o),
(97,502,o),
(97,411,cs),
(97,329,o),
(151,281,o),
(245,269,cs),
(366,254,ls),
(424,247,o),
(461,197,o),
(461,140,cs),
(461,76,o),
(415,35,o),
(342,35,cs),
(269,35,ls),
(200,35,o),
(150,77,o),
(140,135,c),
(90,135,l),
(99,50,o),
(169,-10,o),
(269,-10,cs)
);
}
);
width = 600;
},
{
anchors = (
{
name = bottom;
pos = (300,0);
},
{
name = top;
pos = (300,550);
}
);
layerId = "9ADF6715-3D0F-493D-8567-18A6FBCFC567";
shapes = (
{
closed = 1;
nodes = (
(321,-10,ls),
(471,-10,o),
(550,52,o),
(550,160,cs),
(550,263,o),
(495,328,o),
(387,341,cs),
(267,356,ls),
(224,361,o),
(200,368,o),
(200,399,cs),
(200,429,o),
(224,448,o),
(271,448,cs),
(318,448,ls),
(365,448,o),
(392,430,o),
(392,398,c),
(539,398,l),
(539,496,o),
(452,560,o),
(318,560,cs),
(271,560,ls),
(130,560,o),
(57,503,o),
(57,393,cs),
(57,302,o),
(111,237,o),
(208,225,cs),
(334,210,ls),
(383,204,o),
(407,191,o),
(407,158,cs),
(407,123,o),
(376,104,o),
(321,104,cs),
(277,104,ls),
(226,104,o),
(197,123,o),
(197,160,c),
(50,160,l),
(50,58,o),
(141,-10,o),
(277,-10,cs)
);
}
);
width = 600;
},
{
anchors = (
{
name = bottom;
pos = (300,0);
},
{
name = top;
pos = (300,550);
}
);
layerId = "CCC0BD40-BA8C-414E-B576-CF0B94E6C996";
shapes = (
{
closed = 1;
nodes = (
(322,-8,ls),
(445,-8,o),
(515,51,o),
(515,154,cs),
(515,250,o),
(468,305,o),
(375,318,cs),
(233,338,ls),
(198,343,o),
(180,366,o),
(180,404,cs),
(180,452,o),
(216,482,o),
(278,482,cs),
(322,482,ls),
(377,482,o),
(413,453,o),
(416,415,c),
(507,415,l),
(502,500,o),
(429,558,o),
(322,558,cs),
(278,558,ls),
(162,558,o),
(92,500,o),
(92,404,cs),
(92,320,o),
(135,267,o),
(210,256,cs),
(362,234,ls),
(406,228,o),
(427,202,o),
(427,154,cs),
(427,101,o),
(389,70,o),
(322,70,cs),
(278,70,ls),
(213,70,o),
(175,100,o),
(175,151,c),
(85,151,l),
(85,49,o),
(155,-8,o),
(278,-8,cs)
);
}
);
width = 600;
}
);
unicode = 115;
},
{
glyphname = scedilla;
layers = (
{
anchors = (
{
name = _bottom;
pos = (310,0);
}
);
layerId = "EDF5EB54-295C-4C90-9A2F-67CD82979CFF";
shapes = (
{
closed = 1;
nodes = (
(300,-195,ls),
(360,-195,o),
(400,-161,o),
(400,-118,cs),
(400,-61,o),
(337,-37,o),
(290,-34,c),
(313,26,l),
(271,26,l),
(236,-64,l),
(307,-64,o),
(354,-86,o),
(354,-118,cs),
(354,-140,o),
(332,-160,o),
(300,-160,cs),
(220,-160,l),
(220,-195,l)
);
},
{
ref = s;
}
);
width = 600;
},
{
anchors = (
{
name = _bottom;
pos = (310,0);
}
);
layerId = "CCC0BD40-BA8C-414E-B576-CF0B94E6C996";
shapes = (
{
closed = 1;
nodes = (
(300,-203,ls),
(372,-203,o),
(420,-166,o),
(420,-120,cs),
(420,-68,o),
(352,-41,o),
(300,-35,c),
(321,26,l),
(264,26,l),
(229,-69,l),
(296,-69,o),
(334,-89,o),
(334,-112,cs),
(334,-130,o),
(314,-148,o),
(285,-148,cs),
(215,-148,l),
(215,-203,l)
);
},
{
ref = s;
}
);
width = 600;
},
{
anchors = (
{
name = _bottom;
pos = (310,0);
}
);
layerId = "9ADF6715-3D0F-493D-8567-18A6FBCFC567";
shapes = (
{
closed = 1;
nodes = (
(310,-225,ls),
(394,-225,o),
(450,-182,o),
(450,-133,cs),
(450,-72,o),
(369,-43,o),
(308,-39,c),
(327,16,l),
(254,16,l),
(219,-69,l),
(292,-69,o),
(335,-88,o),
(335,-119,cs),
(335,-135,o),
(313,-155,o),
(280,-155,cs),
(200,-155,l),
(200,-225,l)
);
},
{
ref = s;
}
);
width = 600;
}
);
unicode = 351;
},
{
glyphname = germandbls;
layers = (
{
layerId = "9ADF6715-3D0F-493D-8567-18A6FBCFC567";
shapes = (
{
closed = 1;
nodes = (
(210,0,l),
(210,512,ls),
(210,573,o),
(247,615,o),
(303,615,cs),
(357,615,o),
(396,578,o),
(396,525,cs),
(396,472,o),
(357,435,o),
(303,435,cs),
(271,435,l),
(271,325,l),
(314,325,ls),
(371,325,o),
(412,286,o),
(412,228,cs),
(412,170,o),
(371,130,o),
(314,130,cs),
(271,130,l),
(271,0,l),
(319,0,ls),
(463,0,o),
(564,84,o),
(564,207,cs),
(564,295,o),
(509,368,o),
(429,386,c),
(429,388,l),
(497,400,o),
(544,462,o),
(544,541,cs),
(544,659,o),
(445,740,o),
(304,740,cs),
(159,740,o),
(60,647,o),
(60,512,cs),
(60,0,l)
);
}
);
width = 600;
},
{
layerId = "EDF5EB54-295C-4C90-9A2F-67CD82979CFF";
shapes = (
{
closed = 1;
nodes = (
(160,0,l),
(160,543,ls),
(160,633,o),
(220,695,o),
(307,695,cs),
(393,695,o),
(452,636,o),
(452,550,cs),
(452,463,o),
(393,404,o),
(307,404,cs),
(265,404,l),
(265,359,l),
(307,359,ls),
(404,359,o),
(470,295,o),
(470,202,cs),
(470,109,o),
(404,45,o),
(307,45,cs),
(265,45,l),
(265,0,l),
(307,0,ls),
(434,0,o),
(522,81,o),
(522,198,cs),
(522,292,o),
(465,367,o),
(382,383,c),
(382,386,l),
(453,401,o),
(502,468,o),
(502,550,cs),
(502,663,o),
(423,740,o),
(307,740,cs),
(190,740,o),
(110,660,o),
(110,543,cs),
(110,0,l)
);
}
);
width = 600;
},
{
layerId = "CCC0BD40-BA8C-414E-B576-CF0B94E6C996";
shapes = (
{
closed = 1;
nodes = (
(182,0,l),
(182,534,ls),
(182,609,o),
(231,660,o),
(303,660,cs),
(374,660,o),
(423,612,o),
(423,541,cs),
(423,470,o),
(374,422,o),
(303,422,cs),
(257,422,l),
(257,342,l),
(314,342,ls),
(391,342,o),
(444,289,o),
(444,212,cs),
(444,135,o),
(387,82,o),
(305,82,cs),
(257,82,l),
(257,0,l),
(315,0,ls),
(446,0,o),
(536,83,o),
(536,204,cs),
(536,300,o),
(479,376,o),
(396,391,c),
(396,394,l),
(465,411,o),
(513,477,o),
(513,556,cs),
(513,665,o),
(428,740,o),
(303,740,cs),
(178,740,o),
(92,656,o),
(92,534,cs),
(92,0,l)
);
}
);
visible = 1;
width = 600;
}
);
unicode = 223;
},
{
glyphname = longs;
layers = (
{
layerId = "9ADF6715-3D0F-493D-8567-18A6FBCFC567";
shapes = (
{
closed = 1;
nodes = (
(285,0,l),
(285,525,ls),
(285,570,o),
(315,600,o),
(360,600,cs),
(535,600,l),
(535,730,l),
(350,730,ls),
(219,730,o),
(135,650,o),
(135,525,cs),
(135,0,l)
);
}
);
width = 600;
},
{
layerId = "CCC0BD40-BA8C-414E-B576-CF0B94E6C996";
shapes = (
{
closed = 1;
nodes = (
(255,0,l),
(255,570,ls),
(255,618,o),
(287,650,o),
(334,650,cs),
(510,650,l),
(510,730,l),
(334,730,ls),
(233,730,o),
(165,666,o),
(165,571,cs),
(165,0,l)
);
}
);
width = 600;
},
{
layerId = "EDF5EB54-295C-4C90-9A2F-67CD82979CFF";
shapes = (
{
closed = 1;
nodes = (
(230,0,l),
(230,595,ls),
(230,648,o),
(265,685,o),
(315,685,cs),
(495,685,l),
(495,730,l),
(316,730,ls),
(233,730,o),
(180,678,o),
(180,595,cs),
(180,0,l)
);
}
);
width = 600;
}
);
unicode = 383;
},
{
glyphname = t;
layers = (
{
anchors = (
{
name = bottom;
pos = (360,0);
},
{
name = center;
pos = (300,275);
},
{
name = top;
pos = (250,705);
},
{
name = topright;
pos = (375,621);
}
);
layerId = "9ADF6715-3D0F-493D-8567-18A6FBCFC567";
shapes = (
{
closed = 1;
nodes = (
(535,0,l),
(535,135,l),
(370,135,ls),
(341,135,o),
(325,156,o),
(325,185,cs),
(325,415,l),
(540,415,l),
(540,550,l),
(325,550,l),
(325,705,l),
(175,705,l),
(175,550,l),
(27,550,l),
(27,415,l),
(175,415,l),
(175,180,ls),
(175,68,o),
(243,0,o),
(355,0,cs)
);
}
);
width = 600;
},
{
anchors = (
{
name = bottom;
pos = (360,0);
},
{
name = center;
pos = (300,275);
},
{
name = top;
pos = (250,705);
},
{
name = topright;
pos = (355,621);
}
);
layerId = "EDF5EB54-295C-4C90-9A2F-67CD82979CFF";
shapes = (
{
closed = 1;
nodes = (
(500,0,l),
(500,45,l),
(355,45,ls),
(303,45,o),
(275,73,o),
(275,125,cs),
(275,505,l),
(505,505,l),
(505,550,l),
(275,550,l),
(275,705,l),
(225,705,l),
(225,550,l),
(62,550,l),
(62,505,l),
(225,505,l),
(225,125,ls),
(225,44,o),
(271,0,o),
(355,0,cs)
);
}
);
width = 600;
},
{
anchors = (
{
name = bottom;
pos = (360,0);
},
{
name = center;
pos = (300,275);
},
{
name = top;
pos = (250,705);
},
{
name = topright;
pos = (355,621);
}
);
layerId = "CCC0BD40-BA8C-414E-B576-CF0B94E6C996";
shapes = (
{
closed = 1;
nodes = (
(515,0,l),
(515,82,l),
(355,82,ls),
(319,82,o),
(295,107,o),
(295,145,cs),
(295,468,l),
(520,468,l),
(520,550,l),
(295,550,l),
(295,705,l),
(205,705,l),
(205,550,l),
(47,550,l),
(47,468,l),
(205,468,l),
(205,145,ls),
(205,57,o),
(264,0,o),
(355,0,cs)
);
}
);
width = 600;
}
);
unicode = 116;
},
{
glyphname = tbar;
layers = (
{
layerId = "9ADF6715-3D0F-493D-8567-18A6FBCFC567";
shapes = (
{
closed = 1;
nodes = (
(490,220,l),
(490,335,l),
(70,335,l),
(70,220,l)
);
},
{
alignment = -1;
ref = t;
}
);
width = 600;
},
{
layerId = "CCC0BD40-BA8C-414E-B576-CF0B94E6C996";
shapes = (
{
closed = 1;
nodes = (
(475,239,l),
(475,314,l),
(85,314,l),
(85,239,l)
);
},
{
alignment = -1;
ref = t;
}
);
width = 600;
},
{
layerId = "EDF5EB54-295C-4C90-9A2F-67CD82979CFF";
shapes = (
{
closed = 1;
nodes = (
(465,261,l),
(465,304,l),
(94,304,l),
(94,261,l)
);
},
{
alignment = -1;
ref = t;
}
);
width = 600;
}
);
unicode = 359;
},
{
glyphname = tcedilla;
layers = (
{
anchors = (
{
name = _bottom;
pos = (360,0);
}
);
layerId = "EDF5EB54-295C-4C90-9A2F-67CD82979CFF";
shapes = (
{
closed = 1;
nodes = (
(350,-195,ls),
(410,-195,o),
(450,-161,o),
(450,-118,cs),
(450,-61,o),
(387,-37,o),
(340,-34,c),
(363,26,l),
(321,26,l),
(286,-64,l),
(357,-64,o),
(404,-86,o),
(404,-118,cs),
(404,-140,o),
(382,-160,o),
(350,-160,cs),
(270,-160,l),
(270,-195,l)
);
},
{
ref = t;
}
);
width = 600;
},
{
anchors = (
{
name = _bottom;
pos = (360,0);
}
);
layerId = "CCC0BD40-BA8C-414E-B576-CF0B94E6C996";
shapes = (
{
closed = 1;
nodes = (
(350,-203,ls),
(422,-203,o),
(470,-166,o),
(470,-120,cs),
(470,-68,o),
(402,-41,o),
(350,-35,c),
(371,26,l),
(314,26,l),
(279,-69,l),
(346,-69,o),
(384,-89,o),
(384,-112,cs),
(384,-130,o),
(364,-148,o),
(335,-148,cs),
(265,-148,l),
(265,-203,l)
);
},
{
ref = t;
}
);
width = 600;
},
{
anchors = (
{
name = _bottom;
pos = (360,0);
}
);
layerId = "9ADF6715-3D0F-493D-8567-18A6FBCFC567";
shapes = (
{
closed = 1;
nodes = (
(360,-225,ls),
(444,-225,o),
(500,-182,o),
(500,-133,cs),
(500,-72,o),
(419,-43,o),
(358,-39,c),
(377,16,l),
(304,16,l),
(269,-69,l),
(342,-69,o),
(385,-88,o),
(385,-119,cs),
(385,-135,o),
(363,-155,o),
(330,-155,cs),
(250,-155,l),
(250,-225,l)
);
},
{
ref = t;
}
);
width = 600;
}
);
unicode = 355;
},
{
glyphname = u;
layers = (
{
anchors = (
{
name = bottom;
pos = (300,0);
},
{
name = horn;
pos = (410,550);
},
{
name = ogonek;
pos = (355,0);
},
{
name = top;
pos = (300,550);
},
{
name = topright;
pos = (580,550);
}
);
layerId = "EDF5EB54-295C-4C90-9A2F-67CD82979CFF";
shapes = (
{
closed = 1;
nodes = (
(419,-10,o),
(492,68,o),
(492,194,cs),
(492,550,l),
(442,550,l),
(442,194,ls),
(442,94,o),
(388,35,o),
(299,35,cs),
(211,35,o),
(158,94,o),
(158,194,cs),
(158,550,l),
(108,550,l),
(108,194,ls),
(108,67,o),
(180,-10,o),
(299,-10,cs)
);
}
);
width = 600;
},
{
anchors = (
{
name = bottom;
pos = (300,0);
},
{
name = horn;
pos = (410,550);
},
{
name = ogonek;
pos = (345,0);
},
{
name = top;
pos = (300,550);
},
{
name = topright;
pos = (580,550);
}
);
layerId = "9ADF6715-3D0F-493D-8567-18A6FBCFC567";
shapes = (
{
closed = 1;
nodes = (
(446,-10,o),
(536,74,o),
(536,214,cs),
(536,550,l),
(386,550,l),
(386,215,ls),
(386,153,o),
(355,120,o),
(300,120,cs),
(244,120,o),
(214,153,o),
(214,215,cs),
(214,550,l),
(64,550,l),
(64,214,ls),
(64,75,o),
(152,-10,o),
(300,-10,cs)
);
}
);
width = 600;
},
{
anchors = (
{
name = bottom;
pos = (300,0);
},
{
name = horn;
pos = (420,550);
},
{
name = ogonek;
pos = (350,0);
},
{
name = top;
pos = (300,550);
},
{
name = topright;
pos = (580,550);
}
);
layerId = "CCC0BD40-BA8C-414E-B576-CF0B94E6C996";
shapes = (
{
closed = 1;
nodes = (
(426,-10,o),
(510,71,o),
(510,200,cs),
(510,550,l),
(420,550,l),
(420,200,ls),
(420,120,o),
(373,69,o),
(299,69,cs),
(226,69,o),
(180,120,o),
(180,200,cs),
(180,550,l),
(90,550,l),
(90,200,ls),
(90,71,o),
(172,-10,o),
(299,-10,cs)
);
}
);
width = 600;
}
);
unicode = 117;
},
{
glyphname = uhorn;
layers = (
{
anchors = (
{
name = bottom;
pos = (280,0);
},
{
name = top;
pos = (280,550);
}
);
layerId = "9ADF6715-3D0F-493D-8567-18A6FBCFC567";
shapes = (
{
closed = 1;
nodes = (
(64,72,o),
(145,-10,o),
(280,-10,cs),
(415,-10,o),
(496,72,o),
(496,209,cs),
(496,450,l),
(583,450,o),
(635,504,o),
(635,585,cs),
(635,660,l),
(515,660,l),
(515,585,ls),
(515,563,o),
(502,550,o),
(480,550,cs),
(346,550,l),
(346,206,ls),
(346,150,o),
(323,120,o),
(280,120,cs),
(237,120,o),
(214,150,o),
(214,206,cs),
(214,550,l),
(64,550,l),
(64,209,ls)
);
}
);
width = 600;
},
{
anchors = (
{
name = bottom;
pos = (299,0);
},
{
name = top;
pos = (300,550);
}
);
layerId = "CCC0BD40-BA8C-414E-B576-CF0B94E6C996";
shapes = (
{
closed = 1;
nodes = (
(90,71,o),
(172,-10,o),
(299,-10,cs),
(426,-10,o),
(510,71,o),
(510,200,cs),
(510,485,l),
(573,485,o),
(600,523,o),
(600,580,cs),
(600,660,l),
(525,660,l),
(525,585,ls),
(525,562,o),
(513,550,o),
(490,550,cs),
(420,550,l),
(420,200,ls),
(420,117,o),
(374,69,o),
(299,69,cs),
(225,69,o),
(180,117,o),
(180,200,cs),
(180,550,l),
(90,550,l),
(90,200,ls)
);
}
);
width = 600;
},
{
anchors = (
{
name = bottom;
pos = (299,0);
},
{
name = top;
pos = (300,550);
}
);
layerId = "EDF5EB54-295C-4C90-9A2F-67CD82979CFF";
shapes = (
{
closed = 1;
nodes = (
(108,67,o),
(180,-10,o),
(299,-10,cs),
(419,-10,o),
(492,68,o),
(492,194,cs),
(492,515,l),
(542,515,o),
(576,549,o),
(576,600,cs),
(576,660,l),
(536,660,l),
(536,600,ls),
(536,570,o),
(518,550,o),
(491,550,cs),
(442,550,l),
(442,194,ls),
(442,94,o),
(388,35,o),
(299,35,cs),
(211,35,o),
(158,94,o),
(158,194,cs),
(158,550,l),
(108,550,l),
(108,194,ls)
);
}
);
width = 600;
}
);
unicode = 432;
},
{
glyphname = uogonek;
layers = (
{
anchors = (
{
name = horn;
pos = (410,550);
},
{
name = top;
pos = (300,550);
}
);
layerId = "EDF5EB54-295C-4C90-9A2F-67CD82979CFF";
shapes = (
{
closed = 1;
nodes = (
(446,-195,l),
(446,-153,l),
(382,-153,ls),
(350,-153,o),
(331,-134,o),
(331,-103,cs),
(331,-75,o),
(354,-36,o),
(392,0,cs),
(419,25,l),
(467,59,o),
(492,116,o),
(492,190,cs),
(492,550,l),
(442,550,l),
(442,190,ls),
(442,91,o),
(392,34,o),
(300,34,cs),
(208,34,o),
(158,91,o),
(158,190,cs),
(158,550,l),
(108,550,l),
(108,190,ls),
(108,68,o),
(182,-10,o),
(300,-10,cs),
(316,-10,o),
(332,-9,o),
(346,-6,c),
(303,-47,o),
(284,-83,o),
(284,-115,cs),
(284,-165,o),
(318,-195,o),
(373,-195,cs)
);
}
);
width = 600;
},
{
anchors = (
{
name = horn;
pos = (420,550);
},
{
name = top;
pos = (300,550);
}
);
layerId = "CCC0BD40-BA8C-414E-B576-CF0B94E6C996";
shapes = (
{
closed = 1;
nodes = (
(450,-203,l),
(450,-143,l),
(390,-143,ls),
(356,-143,o),
(335,-122,o),
(335,-93,cs),
(335,-65,o),
(354,-36,o),
(399,1,cs),
(423,21,l),
(480,55,o),
(510,117,o),
(510,200,cs),
(510,550,l),
(420,550,l),
(420,200,ls),
(420,115,o),
(378,70,o),
(300,70,cs),
(222,70,o),
(180,115,o),
(180,200,cs),
(180,550,l),
(90,550,l),
(90,200,ls),
(90,69,o),
(169,-10,o),
(300,-10,cs),
(303,-10,o),
(306,-10,o),
(309,-10,c),
(263,-51,o),
(250,-81,o),
(250,-110,cs),
(250,-164,o),
(298,-203,o),
(372,-203,cs)
);
}
);
width = 600;
},
{
anchors = (
{
name = horn;
pos = (410,550);
},
{
name = top;
pos = (300,550);
}
);
layerId = "9ADF6715-3D0F-493D-8567-18A6FBCFC567";
shapes = (
{
closed = 1;
nodes = (
(467,-225,l),
(467,-120,l),
(398,-120,ls),
(369,-120,o),
(352,-103,o),
(352,-83,cs),
(352,-66,o),
(366,-41,o),
(393,-18,cs),
(449,31,l),
(503,70,o),
(536,135,o),
(536,210,cs),
(536,550,l),
(386,550,l),
(386,210,ls),
(386,152,o),
(358,120,o),
(300,120,cs),
(242,120,o),
(214,152,o),
(214,210,cs),
(214,550,l),
(64,550,l),
(64,210,ls),
(64,78,o),
(153,-10,o),
(300,-10,cs),
(321,-10,o),
(363,12,o),
(363,31,c),
(271,-19,o),
(228,-68,o),
(228,-115,cs),
(228,-180,o),
(278,-225,o),
(359,-225,cs)
);
}
);
width = 600;
}
);
unicode = 371;
},
{
glyphname = v;
layers = (
{
anchors = (
{
name = bottom;
pos = (300,0);
},
{
name = top;
pos = (300,550);
}
);
layerId = "9ADF6715-3D0F-493D-8567-18A6FBCFC567";
shapes = (
{
closed = 1;
nodes = (
(395,0,l),
(576,550,l),
(419,550,l),
(325,240,ls),
(314,204,o),
(304,161,o),
(301,127,c),
(298,161,o),
(287,204,o),
(275,241,cs),
(179,550,l),
(24,550,l),
(207,0,l)
);
}
);
width = 600;
},
{
anchors = (
{
name = bottom;
pos = (300,0);
},
{
name = top;
pos = (300,550);
}
);
layerId = "CCC0BD40-BA8C-414E-B576-CF0B94E6C996";
shapes = (
{
closed = 1;
nodes = (
(359,0,l),
(546,550,l),
(451,550,l),
(331,180,ls),
(317,136,o),
(308,91,o),
(302,69,c),
(296,91,o),
(285,136,o),
(271,180,cs),
(151,550,l),
(54,550,l),
(241,0,l)
);
}
);
width = 600;
},
{
anchors = (
{
name = bottom;
pos = (300,0);
},
{
name = top;
pos = (300,550);
}
);
layerId = "EDF5EB54-295C-4C90-9A2F-67CD82979CFF";
shapes = (
{
closed = 1;
nodes = (
(331,0,l),
(520,550,l),
(466,550,l),
(329,140,ls),
(317,104,o),
(305,62,o),
(301,39,c),
(296,62,o),
(285,104,o),
(273,140,cs),
(134,550,l),
(80,550,l),
(269,0,l)
);
}
);
width = 600;
}
);
unicode = 118;
},
{
glyphname = w;
layers = (
{
anchors = (
{
name = bottom;
pos = (300,0);
},
{
name = top;
pos = (300,550);
}
);
layerId = "9ADF6715-3D0F-493D-8567-18A6FBCFC567";
shapes = (
{
closed = 1;
nodes = (
(239,0,l),
(285,310,ls),
(290,347,o),
(299,410,o),
(300,445,c),
(302,410,o),
(310,348,o),
(316,310,cs),
(361,0,l),
(511,0,l),
(595,550,l),
(483,550,l),
(438,250,ls),
(430,199,o),
(428,134,o),
(426,96,c),
(423,134,o),
(418,199,o),
(409,250,cs),
(358,550,l),
(244,550,l),
(191,250,ls),
(182,199,o),
(178,136,o),
(176,97,c),
(173,136,o),
(170,199,o),
(163,250,cs),
(120,550,l),
(5,550,l),
(88,0,l)
);
}
);
width = 600;
},
{
anchors = (
{
name = bottom;
pos = (300,0);
},
{
name = top;
pos = (300,550);
}
);
layerId = "CCC0BD40-BA8C-414E-B576-CF0B94E6C996";
shapes = (
{
closed = 1;
nodes = (
(220,0,l),
(286,380,ls),
(292,417,o),
(298,465,o),
(300,488,c),
(302,465,o),
(307,417,o),
(313,380,cs),
(376,0,l),
(475,0,l),
(569,550,l),
(495,550,l),
(437,162,ls),
(433,132,o),
(428,93,o),
(426,70,c),
(424,93,o),
(419,132,o),
(414,162,cs),
(345,550,l),
(255,550,l),
(186,162,ls),
(181,132,o),
(177,92,o),
(175,70,c),
(173,92,o),
(169,132,o),
(165,162,cs),
(109,550,l),
(31,550,l),
(121,0,l)
);
}
);
width = 600;
},
{
anchors = (
{
name = bottom;
pos = (300,0);
},
{
name = top;
pos = (300,550);
}
);
layerId = "EDF5EB54-295C-4C90-9A2F-67CD82979CFF";
shapes = (
{
closed = 1;
nodes = (
(209,0,l),
(281,391,ls),
(288,427,o),
(299,478,o),
(301,507,c),
(303,478,o),
(315,427,o),
(321,391,cs),
(390,0,l),
(456,0,l),
(550,550,l),
(504,550,l),
(436,141,ls),
(428,95,o),
(427,64,o),
(425,35,c),
(423,65,o),
(416,95,o),
(407,140,cs),
(327,550,l),
(275,550,l),
(195,140,ls),
(185,91,o),
(180,63,o),
(177,35,c),
(176,63,o),
(173,91,o),
(165,141,cs),
(97,550,l),
(50,550,l),
(143,0,l)
);
}
);
width = 600;
}
);
unicode = 119;
},
{
glyphname = x;
layers = (
{
anchors = (
{
name = bottom;
pos = (300,0);
},
{
name = top;
pos = (300,550);
}
);
layerId = "9ADF6715-3D0F-493D-8567-18A6FBCFC567";
shapes = (
{
closed = 1;
nodes = (
(193,0,l),
(274,130,ls),
(285,148,o),
(295,172,o),
(300,185,c),
(305,172,o),
(316,148,o),
(327,130,cs),
(407,0,l),
(574,0,l),
(385,285,l),
(561,550,l),
(394,550,l),
(326,440,ls),
(315,422,o),
(305,398,o),
(300,385,c),
(295,398,o),
(285,422,o),
(274,440,cs),
(206,550,l),
(39,550,l),
(216,285,l),
(26,0,l)
);
}
);
width = 600;
},
{
anchors = (
{
name = bottom;
pos = (300,0);
},
{
name = top;
pos = (300,550);
}
);
layerId = "EDF5EB54-295C-4C90-9A2F-67CD82979CFF";
shapes = (
{
closed = 1;
nodes = (
(132,0,l),
(274,210,ls),
(282,222,o),
(294,239,o),
(300,248,c),
(306,239,o),
(318,222,o),
(326,210,cs),
(467,0,l),
(525,0,l),
(330,282,l),
(514,550,l),
(456,550,l),
(324,350,ls),
(317,340,o),
(307,324,o),
(301,315,c),
(295,324,o),
(286,339,o),
(279,350,cs),
(146,550,l),
(87,550,l),
(271,282,l),
(75,0,l)
);
}
);
width = 600;
},
{
anchors = (
{
name = bottom;
pos = (300,0);
},
{
name = top;
pos = (300,550);
}
);
layerId = "CCC0BD40-BA8C-414E-B576-CF0B94E6C996";
shapes = (
{
closed = 1;
nodes = (
(156,0,l),
(274,180,ls),
(284,195,o),
(295,217,o),
(301,229,c),
(307,217,o),
(316,195,o),
(326,180,cs),
(444,0,l),
(550,0,l),
(356,282,l),
(539,550,l),
(433,550,l),
(324,380,ls),
(314,365,o),
(305,346,o),
(301,335,c),
(296,346,o),
(286,365,o),
(277,380,cs),
(168,550,l),
(62,550,l),
(245,283,l),
(50,0,l)
);
}
);
width = 600;
}
);
unicode = 120;
},
{
glyphname = y;
layers = (
{
anchors = (
{
name = bottom;
pos = (300,0);
},
{
name = top;
pos = (300,550);
}
);
layerId = "9ADF6715-3D0F-493D-8567-18A6FBCFC567";
shapes = (
{
closed = 1;
nodes = (
(313,-180,l),
(576,550,l),
(419,550,l),
(336,310,ls),
(323,274,o),
(309,223,o),
(304,182,c),
(299,223,o),
(282,274,o),
(269,310,cs),
(180,550,l),
(24,550,l),
(231,27,l),
(156,-180,l)
);
}
);
width = 600;
},
{
anchors = (
{
name = bottom;
pos = (300,0);
},
{
name = top;
pos = (300,550);
}
);
layerId = "EDF5EB54-295C-4C90-9A2F-67CD82979CFF";
shapes = (
{
closed = 1;
nodes = (
(250,-180,l),
(524,550,l),
(470,550,l),
(342,202,ls),
(328,163,o),
(314,121,o),
(306,101,c),
(299,121,o),
(282,163,o),
(268,200,cs),
(132,550,l),
(76,550,l),
(280,39,l),
(199,-180,l)
);
}
);
width = 600;
},
{
anchors = (
{
name = bottom;
pos = (300,0);
},
{
name = top;
pos = (300,550);
}
);
layerId = "CCC0BD40-BA8C-414E-B576-CF0B94E6C996";
shapes = (
{
closed = 1;
nodes = (
(272,-180,l),
(546,550,l),
(451,550,l),
(330,210,ls),
(320,183,o),
(310,151,o),
(306,130,c),
(302,151,o),
(291,183,o),
(281,210,cs),
(151,550,l),
(54,550,l),
(259,34,l),
(178,-180,l)
);
}
);
visible = 1;
width = 600;
}
);
unicode = 121;
},
{
glyphname = z;
layers = (
{
anchors = (
{
name = bottom;
pos = (300,0);
},
{
name = center;
pos = (300,275);
},
{
name = top;
pos = (300,550);
}
);
layerId = "9ADF6715-3D0F-493D-8567-18A6FBCFC567";
shapes = (
{
closed = 1;
nodes = (
(530,0,l),
(530,130,l),
(247,130,l),
(519,420,l),
(519,550,l),
(80,550,l),
(80,420,l),
(342,420,l),
(70,130,l),
(70,0,l)
);
}
);
width = 600;
},
{
anchors = (
{
name = bottom;
pos = (300,0);
},
{
name = center;
pos = (300,275);
},
{
name = top;
pos = (300,550);
}
);
layerId = "CCC0BD40-BA8C-414E-B576-CF0B94E6C996";
shapes = (
{
closed = 1;
nodes = (
(510,0,l),
(510,82,l),
(185,82,l),
(499,460,l),
(499,550,l),
(98,550,l),
(98,468,l),
(398,468,l),
(90,90,l),
(90,0,l)
);
}
);
width = 600;
},
{
anchors = (
{
name = bottom;
pos = (300,0);
},
{
name = center;
pos = (300,275);
},
{
name = top;
pos = (300,550);
}
);
layerId = "EDF5EB54-295C-4C90-9A2F-67CD82979CFF";
shapes = (
{
closed = 1;
nodes = (
(497,0,l),
(497,45,l),
(159,45,l),
(484,503,l),
(484,550,l),
(112,550,l),
(112,505,l),
(427,505,l),
(103,46,l),
(103,0,l)
);
}
);
width = 600;
}
);
unicode = 122;
},
{
glyphname = l.cv01;
layers = (
{
anchors = (
{
name = bottom;
pos = (310,0);
},
{
name = top;
pos = (285,730);
}
);
layerId = "CCC0BD40-BA8C-414E-B576-CF0B94E6C996";
shapes = (
{
closed = 1;
nodes = (
(555,0,l),
(555,82,l),
(355,82,l),
(355,730,l),
(85,730,l),
(85,648,l),
(265,648,l),
(265,82,l),
(65,82,l),
(65,0,l)
);
}
);
width = 600;
},
{
anchors = (
{
name = bottom;
pos = (305,0);
},
{
name = top;
pos = (271,730);
}
);
layerId = "EDF5EB54-295C-4C90-9A2F-67CD82979CFF";
shapes = (
{
closed = 1;
nodes = (
(540,0,l),
(540,45,l),
(331,45,l),
(331,730,l),
(105,730,l),
(105,685,l),
(281,685,l),
(281,45,l),
(60,45,l),
(60,0,l)
);
}
);
width = 600;
},
{
anchors = (
{
name = bottom;
pos = (305,0);
},
{
name = top;
pos = (297,730);
}
);
layerId = "9ADF6715-3D0F-493D-8567-18A6FBCFC567";
shapes = (
{
closed = 1;
nodes = (
(560,0,l),
(560,135,l),
(377,135,l),
(377,730,l),
(60,730,l),
(60,595,l),
(227,595,l),
(227,135,l),
(50,135,l),
(50,0,l)
);
}
);
width = 600;
}
);
},
{
glyphname = lslash.cv01;
layers = (
{
layerId = "9ADF6715-3D0F-493D-8567-18A6FBCFC567";
shapes = (
{
closed = 1;
nodes = (
(495,420,l),
(495,560,l),
(115,370,l),
(115,230,l)
);
},
{
ref = l.cv01;
}
);
width = 600;
},
{
layerId = "CCC0BD40-BA8C-414E-B576-CF0B94E6C996";
shapes = (
{
closed = 1;
nodes = (
(495,480,l),
(495,560,l),
(125,310,l),
(125,230,l)
);
},
{
ref = l.cv01;
}
);
width = 600;
},
{
layerId = "EDF5EB54-295C-4C90-9A2F-67CD82979CFF";
shapes = (
{
closed = 1;
nodes = (
(495,495,l),
(495,550,l),
(125,295,l),
(125,240,l)
);
},
{
ref = l.cv01;
}
);
width = 600;
}
);
},
{
glyphname = t.cv02;
layers = (
{
anchors = (
{
name = bottom;
pos = (360,0);
},
{
name = center;
pos = (300,275);
},
{
name = topright;
pos = (355,621);
}
);
layerId = "9ADF6715-3D0F-493D-8567-18A6FBCFC567";
shapes = (
{
closed = 1;
nodes = (
(508,-10,o),
(584,63,o),
(584,190,cs),
(584,212,l),
(440,212,l),
(440,190,ls),
(440,149,o),
(417,125,o),
(376,125,cs),
(334,125,o),
(310,149,o),
(310,190,cs),
(310,415,l),
(525,415,l),
(525,550,l),
(310,550,l),
(310,705,l),
(160,705,l),
(160,550,l),
(15,550,l),
(15,415,l),
(160,415,l),
(160,190,ls),
(160,63,o),
(239,-10,o),
(376,-10,cs)
);
}
);
width = 600;
},
{
anchors = (
{
name = bottom;
pos = (360,0);
},
{
name = center;
pos = (275,275);
},
{
name = topright;
pos = (375,621);
}
);
layerId = "EDF5EB54-295C-4C90-9A2F-67CD82979CFF";
shapes = (
{
closed = 1;
nodes = (
(465,-10,o),
(526,56,o),
(526,160,cs),
(526,185,l),
(478,185,l),
(478,160,ls),
(478,83,o),
(434,35,o),
(365,35,cs),
(294,35,o),
(250,83,o),
(250,160,cs),
(250,505,l),
(480,505,l),
(480,550,l),
(250,550,l),
(250,705,l),
(200,705,l),
(200,550,l),
(40,550,l),
(40,505,l),
(200,505,l),
(200,160,ls),
(200,56,o),
(264,-10,o),
(365,-10,cs)
);
}
);
width = 600;
},
{
anchors = (
{
name = bottom;
pos = (360,0);
},
{
name = center;
pos = (275,275);
},
{
name = topright;
pos = (355,621);
}
);
layerId = "CCC0BD40-BA8C-414E-B576-CF0B94E6C996";
shapes = (
{
closed = 1;
nodes = (
(479,-10,o),
(548,60,o),
(548,172,cs),
(548,175,l),
(460,175,l),
(460,172,ls),
(460,109,o),
(425,70,o),
(368,70,cs),
(311,70,o),
(275,109,o),
(275,172,cs),
(275,468,l),
(500,468,l),
(500,550,l),
(275,550,l),
(275,705,l),
(185,705,l),
(185,550,l),
(35,550,l),
(35,468,l),
(185,468,l),
(185,172,ls),
(185,60,o),
(256,-10,o),
(368,-10,cs)
);
}
);
width = 600;
}
);
},
{
glyphname = tbar.cv02;
layers = (
{
layerId = "9ADF6715-3D0F-493D-8567-18A6FBCFC567";
shapes = (
{
closed = 1;
nodes = (
(490,220,l),
(490,335,l),
(70,335,l),
(70,220,l)
);
},
{
alignment = -1;
ref = t.cv02;
}
);
width = 600;
},
{
layerId = "CCC0BD40-BA8C-414E-B576-CF0B94E6C996";
shapes = (
{
closed = 1;
nodes = (
(475,239,l),
(475,314,l),
(85,314,l),
(85,239,l)
);
},
{
alignment = -1;
ref = t.cv02;
}
);
width = 600;
},
{
layerId = "EDF5EB54-295C-4C90-9A2F-67CD82979CFF";
shapes = (
{
closed = 1;
nodes = (
(465,261,l),
(465,304,l),
(94,304,l),
(94,261,l)
);
},
{
alignment = -1;
ref = t.cv02;
}
);
width = 600;
}
);
},
{
glyphname = tcedilla.cv02;
layers = (
{
anchors = (
{
name = _bottom;
pos = (360,0);
}
);
layerId = "EDF5EB54-295C-4C90-9A2F-67CD82979CFF";
shapes = (
{
closed = 1;
nodes = (
(350,-195,ls),
(410,-195,o),
(450,-161,o),
(450,-118,cs),
(450,-61,o),
(387,-37,o),
(340,-34,c),
(363,26,l),
(321,26,l),
(286,-64,l),
(357,-64,o),
(404,-86,o),
(404,-118,cs),
(404,-140,o),
(382,-160,o),
(350,-160,cs),
(270,-160,l),
(270,-195,l)
);
},
{
ref = t.cv02;
}
);
width = 600;
},
{
anchors = (
{
name = _bottom;
pos = (360,0);
}
);
layerId = "CCC0BD40-BA8C-414E-B576-CF0B94E6C996";
shapes = (
{
closed = 1;
nodes = (
(350,-203,ls),
(422,-203,o),
(470,-166,o),
(470,-120,cs),
(470,-68,o),
(402,-41,o),
(350,-35,c),
(371,26,l),
(314,26,l),
(279,-69,l),
(346,-69,o),
(384,-89,o),
(384,-112,cs),
(384,-130,o),
(364,-148,o),
(335,-148,cs),
(265,-148,l),
(265,-203,l)
);
},
{
ref = t.cv02;
}
);
width = 600;
},
{
anchors = (
{
name = _bottom;
pos = (360,0);
}
);
layerId = "9ADF6715-3D0F-493D-8567-18A6FBCFC567";
shapes = (
{
closed = 1;
nodes = (
(360,-225,ls),
(444,-225,o),
(500,-182,o),
(500,-133,cs),
(500,-72,o),
(419,-43,o),
(358,-39,c),
(377,16,l),
(304,16,l),
(269,-69,l),
(342,-69,o),
(385,-88,o),
(385,-119,cs),
(385,-135,o),
(363,-155,o),
(330,-155,cs),
(250,-155,l),
(250,-225,l)
);
},
{
ref = t.cv02;
}
);
width = 600;
}
);
},
{
glyphname = g.cv03;
layers = (
{
anchors = (
{
name = bottom;
pos = (300,-270);
},
{
name = top;
pos = (300,550);
}
);
layerId = "EDF5EB54-295C-4C90-9A2F-67CD82979CFF";
shapes = (
{
closed = 1;
nodes = (
(392,-190,ls),
(483,-190,o),
(549,-123,o),
(549,-31,cs),
(549,60,o),
(483,126,o),
(392,126,cs),
(231,126,ls),
(139,126,o),
(72,60,o),
(72,-31,cs),
(72,-123,o),
(139,-190,o),
(231,-190,cs)
);
},
{
closed = 1;
nodes = (
(168,-145,o),
(121,-97,o),
(121,-31,cs),
(121,35,o),
(168,83,o),
(231,83,cs),
(392,83,ls),
(454,83,o),
(500,35,o),
(500,-31,cs),
(500,-97,o),
(454,-145,o),
(392,-145,cs),
(231,-145,ls)
);
},
{
closed = 1;
nodes = (
(255,106,l),
(255,250,l),
(215,250,l),
(215,106,l)
);
},
{
closed = 1;
nodes = (
(398,225,o),
(468,289,o),
(468,391,cs),
(468,458,o),
(441,495,o),
(385,505,c),
(385,511,l),
(385,540,o),
(347,560,o),
(287,560,cs),
(175,560,o),
(104,495,o),
(104,391,cs),
(104,289,o),
(175,225,o),
(287,225,cs)
);
},
{
closed = 1;
nodes = (
(205,268,o),
(153,315,o),
(153,391,cs),
(153,467,o),
(205,515,o),
(287,515,cs),
(369,515,o),
(421,467,o),
(421,391,cs),
(421,315,o),
(369,268,o),
(287,268,cs)
);
},
{
closed = 1;
nodes = (
(555,505,l),
(555,550,l),
(332,550,l),
(352,505,l)
);
}
);
width = 600;
},
{
anchors = (
{
name = bottom;
pos = (300,-270);
},
{
name = top;
pos = (300,550);
}
);
layerId = "9ADF6715-3D0F-493D-8567-18A6FBCFC567";
shapes = (
{
closed = 1;
nodes = (
(389,-190,ls),
(502,-190,o),
(579,-121,o),
(579,-22,cs),
(579,77,o),
(502,149,o),
(389,149,cs),
(229,149,ls),
(116,149,o),
(39,77,o),
(39,-22,cs),
(39,-121,o),
(116,-190,o),
(229,-190,cs)
);
},
{
closed = 1;
nodes = (
(203,-68,o),
(178,-46,o),
(178,-12,cs),
(178,22,o),
(203,43,o),
(242,43,cs),
(376,43,ls),
(415,43,o),
(440,22,o),
(440,-12,cs),
(440,-46,o),
(415,-68,o),
(376,-68,cs),
(242,-68,ls)
);
},
{
closed = 1;
nodes = (
(301,100,l),
(301,220,l),
(191,220,l),
(191,100,l)
);
},
{
closed = 1;
nodes = (
(411,202,o),
(493,257,o),
(493,352,cs),
(493,405,o),
(462,429,o),
(399,435,c),
(446,467,l),
(421,522,o),
(355,560,o),
(287,560,cs),
(154,560,o),
(71,491,o),
(71,373,cs),
(71,265,o),
(152,202,o),
(280,202,cs)
);
},
{
closed = 1;
nodes = (
(232,298,o),
(201,322,o),
(201,373,cs),
(201,420,o),
(232,442,o),
(287,442,cs),
(342,442,o),
(373,420,o),
(373,373,cs),
(373,322,o),
(342,298,o),
(287,298,cs)
);
},
{
closed = 1;
nodes = (
(585,435,l),
(585,550,l),
(318,550,l),
(366,435,l)
);
}
);
width = 600;
},
{
anchors = (
{
name = bottom;
pos = (300,-270);
},
{
name = top;
pos = (300,550);
}
);
layerId = "CCC0BD40-BA8C-414E-B576-CF0B94E6C996";
shapes = (
{
closed = 1;
nodes = (
(391,-190,ls),
(494,-190,o),
(568,-124,o),
(568,-28,cs),
(568,70,o),
(494,137,o),
(391,137,cs),
(227,137,ls),
(124,137,o),
(50,70,o),
(50,-28,cs),
(50,-124,o),
(123,-190,o),
(226,-190,cs)
);
},
{
closed = 1;
nodes = (
(176,-112,o),
(139,-77,o),
(139,-25,cs),
(139,27,o),
(176,62,o),
(226,62,cs),
(392,62,ls),
(442,62,o),
(479,27,o),
(479,-25,cs),
(479,-77,o),
(442,-112,o),
(392,-112,cs),
(226,-112,ls)
);
},
{
closed = 1;
nodes = (
(272,116,l),
(272,238,l),
(195,238,l),
(195,116,l)
);
},
{
closed = 1;
nodes = (
(412,215,o),
(489,277,o),
(489,377,cs),
(489,441,o),
(452,468,o),
(397,475,c),
(397,487,l),
(397,536,o),
(374,560,o),
(289,560,cs),
(164,560,o),
(85,493,o),
(85,386,cs),
(85,281,o),
(164,215,o),
(289,215,cs)
);
},
{
closed = 1;
nodes = (
(214,286,o),
(167,325,o),
(167,386,cs),
(167,447,o),
(214,486,o),
(289,486,cs),
(363,486,o),
(409,447,o),
(409,386,cs),
(409,325,o),
(363,286,o),
(289,286,cs)
);
},
{
closed = 1;
nodes = (
(582,476,l),
(582,550,l),
(340,550,l),
(377,476,l)
);
}
);
width = 600;
}
);
},
{
glyphname = jdotless.cv04;
layers = (
{
anchors = (
{
name = bottom;
pos = (300,-270);
},
{
name = top;
pos = (440,550);
}
);
layerId = "9ADF6715-3D0F-493D-8567-18A6FBCFC567";
shapes = (
{
closed = 1;
nodes = (
(426,-190,o),
(520,-105,o),
(520,30,cs),
(520,550,l),
(110,550,l),
(110,415,l),
(370,415,l),
(370,30,ls),
(370,-22,o),
(334,-55,o),
(287,-55,cs),
(241,-55,o),
(206,-22,o),
(206,30,cs),
(206,90,l),
(56,90,l),
(56,30,ls),
(56,-105,o),
(149,-190,o),
(287,-190,cs)
);
}
);
width = 600;
},
{
anchors = (
{
name = bottom;
pos = (295,-270);
},
{
name = top;
pos = (425,550);
}
);
layerId = "EDF5EB54-295C-4C90-9A2F-67CD82979CFF";
shapes = (
{
closed = 1;
nodes = (
(393,-190,o),
(465,-119,o),
(465,-15,cs),
(465,550,l),
(150,550,l),
(150,505,l),
(415,505,l),
(415,-15,ls),
(415,-92,o),
(363,-145,o),
(288,-145,cs),
(213,-145,o),
(160,-92,o),
(160,-15,cs),
(160,75,l),
(110,75,l),
(110,-15,ls),
(110,-119,o),
(183,-190,o),
(288,-190,cs)
);
}
);
width = 600;
},
{
anchors = (
{
name = bottom;
pos = (295,-270);
},
{
name = top;
pos = (439,550);
}
);
layerId = "CCC0BD40-BA8C-414E-B576-CF0B94E6C996";
shapes = (
{
closed = 1;
nodes = (
(412,-190,o),
(494,-110,o),
(494,6,cs),
(494,550,l),
(135,550,l),
(135,468,l),
(404,468,l),
(404,6,ls),
(404,-63,o),
(358,-110,o),
(292,-110,cs),
(226,-110,o),
(180,-63,o),
(180,6,cs),
(180,80,l),
(90,80,l),
(90,6,ls),
(90,-110,o),
(172,-190,o),
(292,-190,cs)
);
}
);
width = 600;
}
);
},
